<svg width="40" height="40" viewBox="0 0 40 40" fill="none" xmlns="http://www.w3.org/2000/svg">
<path d="M20 0C8.97219 0 0 8.85413 0 19.7368C0 30.6196 8.97219 39.4737 20 39.4737C25.3426 39.4737 30.3646 37.421 34.1423 33.693C34.4678 33.3718 34.4678 32.8514 34.1423 32.5302C33.8167 32.2089 33.2894 32.2089 32.9639 32.5302C29.5012 35.9473 24.8975 37.829 20 37.829C9.89094 37.829 1.66664 29.7129 1.66664 19.7368C1.66664 9.76079 9.89094 1.64471 20 1.64471C30.1091 1.64471 38.3334 9.76079 38.3334 19.7368V21.3816C38.3334 24.1025 36.0905 26.3158 33.3334 26.3158C30.5762 26.3158 28.3334 24.1025 28.3334 21.3816V13.9802C28.3334 13.5257 27.9606 13.1578 27.5 13.1578C27.0394 13.1578 26.6666 13.5257 26.6666 13.9802V14.8535C25.1462 12.8384 22.7355 11.5131 20 11.5131C15.4052 11.5131 11.6666 15.2025 11.6666 19.7368C11.6666 24.2711 15.4053 27.9606 20 27.9606C23.0648 27.9606 25.7192 26.3007 27.1667 23.8618C28.1618 26.262 30.5473 27.9606 33.3333 27.9606C37.0092 27.9606 39.9999 25.0092 39.9999 21.3816V19.7368C40 8.85413 31.0278 0 20 0ZM20 26.3158C16.3241 26.3158 13.3334 23.3644 13.3334 19.7368C13.3334 16.1093 16.3241 13.1579 20 13.1579C23.6759 13.1579 26.6666 16.1093 26.6666 19.7368C26.6666 23.3644 23.6759 26.3158 20 26.3158Z" fill="#1FC935"/>
</svg>
