<svg width="26" height="26" viewBox="0 0 26 26" fill="none" xmlns="http://www.w3.org/2000/svg">
<path d="M13.885 24.2987C13.2459 24.9378 12.2099 24.9378 11.5708 24.2987C10.9318 23.6597 10.9318 22.6236 11.5708 21.9846L21.9846 11.5708C22.6236 10.9318 23.6597 10.9318 24.2987 11.5708C24.9378 12.2098 24.9378 13.2459 24.2987 13.885L13.885 24.2987Z" fill="#1FC935"/>
<path d="M13.885 21.9846C14.524 22.6236 14.524 23.6597 13.885 24.2987C13.2459 24.9378 12.2099 24.9378 11.5708 24.2987L1.15707 13.885C0.518029 13.2459 0.518028 12.2098 1.15707 11.5708C1.79611 10.9318 2.8322 10.9318 3.47124 11.5708L13.885 21.9846Z" fill="#1FC935"/>
<path d="M13.885 24.2987C13.2459 24.9378 12.2099 24.9378 11.5708 24.2987C10.9318 23.6597 10.9318 22.6236 11.5708 21.9846L21.9846 11.5708C22.6236 10.9318 23.6597 10.9318 24.2987 11.5708C24.9378 12.2098 24.9378 13.2459 24.2987 13.885L13.885 24.2987Z" fill="#1FC935"/>
<path d="M13.885 21.9846C14.524 22.6236 14.524 23.6597 13.885 24.2987C13.2459 24.9378 12.2099 24.9378 11.5708 24.2987L1.15707 13.885C0.518029 13.2459 0.518028 12.2098 1.15707 11.5708C1.79611 10.9318 2.8322 10.9318 3.47124 11.5708L13.885 21.9846Z" fill="#1FC935"/>
</svg>
