<svg width="26" height="26" viewBox="0 0 26 26" fill="none" xmlns="http://www.w3.org/2000/svg">
<path d="M11.5708 1.15708C12.2099 0.518044 13.2459 0.518044 13.885 1.15708C14.524 1.79612 14.524 2.83221 13.885 3.47125L3.47123 13.885C2.83219 14.524 1.7961 14.524 1.15706 13.885C0.518024 13.246 0.518025 12.2099 1.15706 11.5708L11.5708 1.15708Z" fill="#1FC935"/>
<path d="M11.5708 3.47125C10.9318 2.83221 10.9318 1.79612 11.5708 1.15708C12.2099 0.518044 13.2459 0.518044 13.885 1.15708L24.2987 11.5708C24.9378 12.2099 24.9378 13.246 24.2987 13.885C23.6597 14.524 22.6236 14.524 21.9846 13.885L11.5708 3.47125Z" fill="#1FC935"/>
<path d="M11.5708 1.15708C12.2099 0.518044 13.2459 0.518044 13.885 1.15708C14.524 1.79612 14.524 2.83221 13.885 3.47125L3.47123 13.885C2.83219 14.524 1.7961 14.524 1.15706 13.885C0.518024 13.246 0.518025 12.2099 1.15706 11.5708L11.5708 1.15708Z" fill="#1FC935"/>
<path d="M11.5708 3.47125C10.9318 2.83221 10.9318 1.79612 11.5708 1.15708C12.2099 0.518044 13.2459 0.518044 13.885 1.15708L24.2987 11.5708C24.9378 12.2099 24.9378 13.246 24.2987 13.885C23.6597 14.524 22.6236 14.524 21.9846 13.885L11.5708 3.47125Z" fill="#1FC935"/>
</svg>
