<svg width="40" height="40" viewBox="0 0 40 40" fill="none" xmlns="http://www.w3.org/2000/svg">
<g clip-path="url(#clip0)">
<path d="M38.0459 34.7508H37.55V25.0749C37.55 24.7513 37.2878 24.489 36.9641 24.489C36.6404 24.489 36.3782 24.7513 36.3782 25.0749V34.7509H23.9482V18.8227H35.8993C36.1634 18.8227 36.3782 19.0376 36.3782 19.3016V22.3145C36.3782 22.6381 36.6405 22.9004 36.9642 22.9004C37.2878 22.9004 37.5501 22.6381 37.5501 22.3145V19.3016C37.5501 18.3913 36.8096 17.6509 35.8993 17.6509H23.9482V7.0029C23.9482 6.15032 23.2848 5.43024 22.4363 5.35845V4.18306C22.4363 3.32712 21.7679 2.60423 20.9145 2.53735L5.73949 1.34798C4.78129 1.27227 3.9598 2.0322 3.9598 2.99368V3.93204C3.09082 4.00626 2.44801 4.73313 2.44801 5.57657V34.7507H1.95215C0.875195 34.7507 -0.000976562 35.6269 -0.000976562 36.7038C-0.000976562 37.7808 0.875195 38.657 1.95215 38.657H38.0459C39.1229 38.657 39.999 37.7808 39.999 36.7038C39.999 35.6269 39.1229 34.7508 38.0459 34.7508ZM5.13168 2.99376C5.13168 2.71313 5.37051 2.49438 5.64801 2.51634L20.823 3.70563C21.0705 3.72509 21.2644 3.93477 21.2644 4.18306V5.2661L5.1316 4.00173V2.99376H5.13168ZM3.61988 5.57665C3.61988 5.29376 3.86184 5.07673 4.13613 5.09923L22.3347 6.52548C22.5823 6.54493 22.7762 6.75462 22.7762 7.0029V34.7508H21.1389V26.3617C21.1389 25.8284 20.7051 25.3946 20.1718 25.3946H14.7281C14.1948 25.3946 13.761 25.8284 13.761 26.3617V30.1627C13.761 30.4863 14.0233 30.7487 14.3469 30.7487C14.6705 30.7487 14.9329 30.4863 14.9329 30.1627V26.5665H19.9671V34.7508H14.9329V32.902C14.9329 32.5784 14.6705 32.3161 14.3469 32.3161C14.0233 32.3161 13.761 32.5784 13.761 32.902V34.7508H3.61988V5.57665ZM38.0459 37.4852H1.95215C1.52137 37.4852 1.1709 37.1347 1.1709 36.7039C1.1709 36.2731 1.52137 35.9227 1.95215 35.9227H38.0459C38.4767 35.9227 38.8271 36.2731 38.8271 36.7039C38.8271 37.1347 38.4767 37.4852 38.0459 37.4852Z" fill="#1FC935"/>
<path d="M5.92906 12.7298H8.30078C8.85836 12.7298 9.31196 12.2762 9.31196 11.7187V9.89391C9.31196 9.33641 8.85836 8.88281 8.30078 8.88281H5.92906C5.37156 8.88281 4.91797 9.33641 4.91797 9.89391V11.7187C4.91797 12.2762 5.37156 12.7298 5.92906 12.7298ZM6.08984 10.0546H8.14016V11.5579H6.08984V10.0546Z" fill="#1FC935"/>
<path d="M11.8421 12.7298H14.2139C14.7714 12.7298 15.225 12.2762 15.225 11.7187V9.89391C15.225 9.33641 14.7714 8.88281 14.2139 8.88281H11.8421C11.2846 8.88281 10.8311 9.33641 10.8311 9.89391V11.7187C10.831 12.2762 11.2846 12.7298 11.8421 12.7298ZM12.0029 10.0546H14.0531V11.5579H12.0029V10.0546Z" fill="#1FC935"/>
<path d="M17.7562 12.7298H20.1279C20.6855 12.7298 21.139 12.2762 21.139 11.7187V9.89391C21.139 9.33641 20.6854 8.88281 20.1279 8.88281H17.7562C17.1987 8.88281 16.7451 9.33641 16.7451 9.89391V11.7187C16.745 12.2762 17.1986 12.7298 17.7562 12.7298ZM17.9169 10.0546H19.9671V11.5579H17.9169V10.0546Z" fill="#1FC935"/>
<path d="M5.92906 17.9984H8.30078C8.85836 17.9984 9.31196 17.5448 9.31196 16.9873V15.1625C9.31196 14.605 8.85836 14.1514 8.30078 14.1514H5.92906C5.37156 14.1514 4.91797 14.605 4.91797 15.1625V16.9872C4.91797 17.5448 5.37156 17.9984 5.92906 17.9984ZM6.08984 15.3232H8.14016V16.8265H6.08984V15.3232Z" fill="#1FC935"/>
<path d="M11.8421 17.9984H14.2139C14.7714 17.9984 15.225 17.5448 15.225 16.9873V15.1625C15.225 14.605 14.7714 14.1514 14.2139 14.1514H11.8421C11.2846 14.1514 10.8311 14.605 10.8311 15.1625V16.9872C10.831 17.5448 11.2846 17.9984 11.8421 17.9984ZM12.0029 15.3232H14.0531V16.8265H12.0029V15.3232Z" fill="#1FC935"/>
<path d="M17.7562 17.9984H20.1279C20.6855 17.9984 21.139 17.5448 21.139 16.9873V15.1625C21.139 14.605 20.6854 14.1514 20.1279 14.1514H17.7562C17.1987 14.1514 16.7451 14.605 16.7451 15.1625V16.9872C16.745 17.5448 17.1986 17.9984 17.7562 17.9984ZM17.9169 15.3232H19.9671V16.8265H17.9169V15.3232Z" fill="#1FC935"/>
<path d="M5.92906 23.2669H8.30078C8.85836 23.2669 9.31196 22.8133 9.31196 22.2558V20.431C9.31196 19.8735 8.85836 19.4199 8.30078 19.4199H5.92906C5.37156 19.4199 4.91797 19.8735 4.91797 20.431V22.2558C4.91797 22.8133 5.37156 23.2669 5.92906 23.2669ZM6.08984 20.5917H8.14016V22.095H6.08984V20.5917Z" fill="#1FC935"/>
<path d="M11.292 25.3945H6.04297C5.42266 25.3945 4.91797 25.8992 4.91797 26.5195V28.1166C4.91797 28.7369 5.42266 29.2416 6.04297 29.2416H11.292C11.9123 29.2416 12.417 28.7369 12.417 28.1166V26.5195C12.417 25.8992 11.9123 25.3945 11.292 25.3945ZM11.2452 28.0697H6.08984V26.5664H11.2452V28.0697Z" fill="#1FC935"/>
<path d="M11.8421 23.2669H14.2139C14.7714 23.2669 15.225 22.8133 15.225 22.2558V20.431C15.225 19.8735 14.7714 19.4199 14.2139 19.4199H11.8421C11.2846 19.4199 10.8311 19.8735 10.8311 20.431V22.2558C10.831 22.8133 11.2846 23.2669 11.8421 23.2669ZM12.0029 20.5917H14.0531V22.095H12.0029V20.5917Z" fill="#1FC935"/>
<path d="M17.7562 23.2669H20.1279C20.6855 23.2669 21.139 22.8133 21.139 22.2558V20.431C21.139 19.8735 20.6854 19.4199 20.1279 19.4199H17.7562C17.1987 19.4199 16.7451 19.8735 16.7451 20.431V22.2558C16.745 22.8133 17.1986 23.2669 17.7562 23.2669ZM17.9169 20.5917H19.9671V22.095H17.9169V20.5917Z" fill="#1FC935"/>
<path d="M29.7312 22.7576C29.7312 22.1633 29.2477 21.6797 28.6533 21.6797H26.2605C25.6662 21.6797 25.1826 22.1632 25.1826 22.7576V24.6555C25.1826 25.2498 25.6661 25.7334 26.2605 25.7334H28.6533C29.2476 25.7334 29.7312 25.2498 29.7312 24.6555V22.7576ZM28.5593 24.5615H26.3545V22.8516H28.5593V24.5615Z" fill="#1FC935"/>
<path d="M28.6533 27.0874H26.2605C25.6662 27.0874 25.1826 27.5709 25.1826 28.1653V30.0632C25.1826 30.6575 25.6661 31.1411 26.2605 31.1411H28.6533C29.2476 31.1411 29.7312 30.6576 29.7312 30.0632V28.1653C29.7312 27.5709 29.2477 27.0874 28.6533 27.0874ZM28.5593 29.9692H26.3545V28.2593H28.5593V29.9692Z" fill="#1FC935"/>
<path d="M35.1813 22.7576C35.1813 22.1633 34.6978 21.6797 34.1034 21.6797H31.7107C31.1164 21.6797 30.6328 22.1632 30.6328 22.7576V24.6555C30.6328 25.2498 31.1163 25.7334 31.7107 25.7334H34.1034C34.6977 25.7334 35.1813 25.2498 35.1813 24.6555V22.7576ZM34.0095 24.5615H31.8047V22.8516H34.0095V24.5615Z" fill="#1FC935"/>
<path d="M34.1034 27.0874H31.7107C31.1164 27.0874 30.6328 27.5709 30.6328 28.1653V30.0632C30.6328 30.6575 31.1163 31.1411 31.7107 31.1411H34.1034C34.6977 31.1411 35.1813 30.6576 35.1813 30.0632V28.1653C35.1813 27.5709 34.6978 27.0874 34.1034 27.0874ZM34.0095 29.9692H31.8047V28.2593H34.0095V29.9692Z" fill="#1FC935"/>
</g>
<defs>
<clipPath id="clip0">
<rect x="-0.000976562" width="40" height="40" fill="white"/>
</clipPath>
</defs>
</svg>
