<svg width="40" height="40" viewBox="0 0 40 40" fill="none" xmlns="http://www.w3.org/2000/svg">
<g clip-path="url(#clip0)">
<path d="M28.1369 24.8793C27.1712 23.9133 25.6026 23.9133 24.6366 24.8793L22.7562 26.7419H22.7558L22.7538 26.7433C22.0295 27.2044 19.3393 26.1646 16.5924 23.4156C13.8437 20.668 12.8022 17.9754 13.2647 17.2541L13.293 17.2101C13.2968 17.2046 13.3023 17.1998 13.306 17.194L15.128 15.372C15.5959 14.9041 15.853 14.283 15.853 13.6212C15.853 12.9594 15.5959 12.3383 15.128 11.8711L7.64366 4.38674C6.68039 3.42176 5.10935 3.41937 4.14437 4.38674L1.30412 7.22664C-0.49594 9.02602 -0.432018 12.3773 1.48393 16.6628C3.29356 20.7107 6.55938 25.2088 10.6801 29.3289C14.7998 33.4486 19.2979 36.7147 23.3458 38.524C25.5588 39.5133 27.5223 40.0086 29.1521 40.0086C30.678 40.0086 31.9107 39.5741 32.7813 38.7038L35.6212 35.8636C36.5862 34.8989 36.5862 33.3293 35.6212 32.3643L28.1369 24.8793ZM5.27548 5.51819C5.61559 5.17739 6.17106 5.17739 6.51255 5.51819L13.9969 13.0032C14.1623 13.1679 14.2529 13.3874 14.2529 13.6212C14.2529 13.8547 14.1623 14.0741 13.9969 14.2399L12.5684 15.6681L3.84664 6.94634L5.27548 5.51819ZM31.6499 37.5724C29.1224 40.0978 20.548 36.9342 11.8105 28.1974C7.82517 24.212 4.67625 19.8835 2.9449 16.0096C1.34241 12.4258 1.15714 9.63721 2.43557 8.35809L2.71553 8.07779L11.656 17.0186C11.13 19.0409 13.1416 22.2284 15.4609 24.547C17.5283 26.6144 20.2885 28.4452 22.2957 28.4452C22.5419 28.4452 22.7767 28.4175 22.9975 28.3598L31.9302 37.2924L31.6499 37.5724ZM34.4901 34.7325L33.0616 36.1613L24.3399 27.4396L25.768 26.0104C26.1088 25.6699 26.665 25.6699 27.0058 26.0104L34.4901 33.4954C34.8306 33.8362 34.8306 34.3917 34.4901 34.7325Z" fill="#EB194A"/>
<path d="M35.327 4.67473C32.3172 1.66529 28.324 0.00878906 24.0805 0.00878906C24.0751 0.00878906 24.0696 0.00878906 24.0648 0.00878906C23.6235 0.00947273 23.2649 0.367366 23.2656 0.809691C23.2663 1.25099 23.6242 1.60888 24.0658 1.60888H24.0805C27.8964 1.60888 31.4883 3.09959 34.1956 5.80618C36.9059 8.51722 38.399 12.117 38.399 15.9424C38.399 16.3844 38.7569 16.7423 39.1992 16.7423C39.6412 16.7423 39.9991 16.3844 39.9991 15.9424C39.9991 11.6894 38.3395 7.6876 35.327 4.67473Z" fill="#EB194A"/>
<path d="M24.0688 6.99365C29.0003 6.99365 33.0123 11.0057 33.0123 15.9369C33.0123 16.3789 33.3702 16.7368 33.8126 16.7368C34.2549 16.7368 34.6124 16.3789 34.6124 15.9369C34.6124 10.1231 29.8826 5.39355 24.0688 5.39355C23.6264 5.39355 23.2686 5.75145 23.2686 6.19377C23.2686 6.63576 23.6264 6.99365 24.0688 6.99365Z" fill="#EB194A"/>
<path d="M24.0688 12.3822C26.0292 12.3822 27.6238 13.9768 27.6238 15.9372C27.6238 16.3792 27.9817 16.7371 28.4237 16.7371C28.866 16.7371 29.2239 16.3792 29.2239 15.9372C29.2239 13.0945 26.9111 10.7817 24.0688 10.7817C23.6264 10.7817 23.2686 11.1396 23.2686 11.582C23.2686 12.0243 23.6264 12.3822 24.0688 12.3822Z" fill="#EB194A"/>
</g>
<defs>
<clipPath id="clip0">
<rect x="-0.000976562" width="40" height="40" fill="white"/>
</clipPath>
</defs>
</svg>
