<svg width="40" height="40" viewBox="0 0 40 40" fill="none" xmlns="http://www.w3.org/2000/svg">
<g clip-path="url(#clip0)">
<path d="M38.7878 34.7576H37.495V22.8184C37.495 21.8047 36.6702 20.98 35.6566 20.98H33.7375V12.7982C33.7375 11.7844 32.9127 10.9597 31.8991 10.9597H26.2223V6.39904C26.9495 6.15381 27.4748 5.46576 27.4748 4.65686C27.4748 3.84545 26.4366 2.27943 26.1185 1.81881C26.0091 1.66045 25.8289 1.56592 25.6364 1.56592C25.4439 1.56592 25.2637 1.66045 25.1543 1.81881C24.8361 2.27943 23.798 3.84545 23.798 4.65686C23.798 5.46576 24.3233 6.15373 25.0505 6.39904V10.9598H20.5859V6.39904C21.3131 6.15381 21.8384 5.46576 21.8384 4.65686C21.8384 3.84545 20.8002 2.27943 20.4821 1.81881C20.3727 1.66045 20.1925 1.56592 20 1.56592C19.8075 1.56592 19.6273 1.66045 19.5179 1.81881C19.1997 2.27943 18.1616 3.84545 18.1616 4.65686C18.1616 5.46576 18.6869 6.15373 19.4141 6.39904V10.9598H14.9496V6.39904C15.6768 6.15381 16.2021 5.46576 16.2021 4.65686C16.2021 3.84545 15.1639 2.27943 14.8458 1.81881C14.7364 1.66045 14.5562 1.56592 14.3637 1.56592C14.1712 1.56592 13.9909 1.66045 13.8816 1.81881C13.5634 2.27943 12.5252 3.84545 12.5252 4.65686C12.5252 5.46576 13.0505 6.15373 13.7777 6.39904V10.9598H8.10102C7.08727 10.9598 6.26258 11.7846 6.26258 12.7983V20.98H4.34352C3.32977 20.98 2.50508 21.8047 2.50508 22.8184V34.7576H1.21219C0.54375 34.7576 0 35.3014 0 35.9698V37.2223C0 37.8908 0.54375 38.4345 1.21219 38.4345H38.7878C39.4562 38.4345 40 37.8908 40 37.2223V35.9698C40 35.3014 39.4562 34.7576 38.7878 34.7576ZM25.6364 3.23381C26.0216 3.87545 26.3016 4.4592 26.3029 4.65693C26.3029 5.02443 26.0038 5.3235 25.6363 5.3235C25.2688 5.3235 24.9698 5.02443 24.9698 4.65693C24.9711 4.45967 25.2512 3.87584 25.6364 3.23381ZM20.0001 3.23381C20.3852 3.87545 20.6652 4.4592 20.6666 4.65693C20.6666 5.02443 20.3675 5.3235 20 5.3235C19.6325 5.3235 19.3334 5.02443 19.3334 4.65693C19.3348 4.45967 19.6148 3.87584 20.0001 3.23381ZM14.3638 3.23381C14.7489 3.87545 15.0289 4.4592 15.0302 4.65693C15.0302 5.02443 14.7312 5.3235 14.3637 5.3235C13.9962 5.3235 13.6971 5.02443 13.6971 4.65693C13.6984 4.45967 13.9785 3.87584 14.3638 3.23381ZM3.67687 25.3263C4.20055 25.4104 4.53336 25.6076 4.90406 25.8275C5.46383 26.1594 6.09828 26.5357 7.31492 26.5357C8.53242 26.5357 9.16727 26.1595 9.72742 25.8276C10.2205 25.5354 10.6462 25.2832 11.5425 25.2832C12.4397 25.2832 12.8658 25.5355 13.3592 25.8277C13.9197 26.1596 14.5549 26.5357 15.773 26.5357C16.9911 26.5357 17.6263 26.1596 18.1868 25.8277C18.6802 25.5355 19.1064 25.2832 20.0035 25.2832C20.8991 25.2832 21.3246 25.5354 21.8173 25.8275C22.3772 26.1594 23.0117 26.5357 24.2287 26.5357C25.4459 26.5357 26.0805 26.1595 26.6405 25.8276C27.1334 25.5354 27.5589 25.2832 28.4549 25.2832C29.3502 25.2832 29.7755 25.5354 30.268 25.8275C30.8278 26.1595 31.4623 26.5357 32.6789 26.5357C33.8963 26.5357 34.5312 26.1595 35.0914 25.8276C35.4632 25.6073 35.797 25.4098 36.3229 25.326V27.2751C35.4716 27.3727 34.9568 27.6765 34.494 27.9508C34.0009 28.2429 33.5752 28.4951 32.6789 28.4951C31.7836 28.4951 31.3583 28.2429 30.8658 27.9508C30.306 27.6189 29.6716 27.2426 28.4549 27.2426C27.2377 27.2426 26.603 27.6188 26.043 27.9508C25.5502 28.2429 25.1246 28.4951 24.2286 28.4951C23.333 28.4951 22.9075 28.2429 22.4148 27.9508C21.8549 27.6189 21.2204 27.2426 20.0034 27.2426C18.7853 27.2426 18.1501 27.6187 17.5896 27.9506C17.0962 28.2428 16.67 28.4951 15.7729 28.4951C14.8758 28.4951 14.4496 28.2428 13.9562 27.9506C13.3957 27.6187 12.7605 27.2426 11.5423 27.2426C10.3249 27.2426 9.69 27.6188 9.12984 27.9507C8.6368 28.2428 8.21109 28.4951 7.31469 28.4951C6.41937 28.4951 5.99406 28.2429 5.50156 27.9508C5.03953 27.6769 4.5257 27.3733 3.67664 27.2754V25.3263H3.67687ZM8.10102 12.1316H31.8989C32.2665 12.1316 32.5655 12.4307 32.5655 12.7982V14.1219C31.6809 14.217 31.147 14.5205 30.6673 14.7944C30.1512 15.089 29.7055 15.3435 28.7643 15.3435C27.823 15.3435 27.3773 15.089 26.8612 14.7944C26.2838 14.4647 25.6295 14.091 24.3772 14.091C23.1255 14.091 22.4715 14.4647 21.8945 14.7944C21.3788 15.089 20.9335 15.3435 19.9931 15.3435C19.0538 15.3435 18.6089 15.0891 18.0938 14.7945C17.5172 14.4647 16.8636 14.091 15.6128 14.091C14.3615 14.091 13.7076 14.4647 13.1307 14.7945C12.6152 15.0891 12.1702 15.3435 11.2301 15.3435C10.2904 15.3435 9.84539 15.0891 9.33016 14.7945C8.85109 14.5207 8.31781 14.2172 7.43445 14.1219V12.7982C7.43445 12.4307 7.73352 12.1316 8.10102 12.1316ZM4.34352 22.1519H28.7676C29.0912 22.1519 29.3535 21.8895 29.3535 21.5659C29.3535 21.2423 29.0912 20.98 28.7676 20.98H7.43445V15.3026C8 15.385 8.35406 15.5865 8.74844 15.812C9.32523 16.1418 9.97898 16.5155 11.2301 16.5155C12.4814 16.5155 13.1353 16.1418 13.7122 15.812C14.2277 15.5174 14.6727 15.263 15.6128 15.263C16.5521 15.263 16.997 15.5174 17.5121 15.8119C18.0888 16.1418 18.7423 16.5155 19.9931 16.5155C21.2448 16.5155 21.8988 16.1418 22.4759 15.8121C22.9915 15.5175 23.4368 15.263 24.3773 15.263C25.3185 15.263 25.7642 15.5175 26.2803 15.8122C26.8577 16.1419 27.5121 16.5155 28.7644 16.5155C30.0166 16.5155 30.6711 16.1419 31.2484 15.8122C31.6438 15.5865 31.9985 15.3848 32.5655 15.3026V20.9801H31.2727C30.9491 20.9801 30.6868 21.2424 30.6868 21.566C30.6868 21.8896 30.9491 22.1519 31.2727 22.1519H35.6566C36.0241 22.1519 36.3231 22.451 36.3231 22.8185V24.1438C35.4719 24.2414 34.957 24.5452 34.4942 24.8194C34.0012 25.1115 33.5755 25.3638 32.6791 25.3638C31.7838 25.3638 31.3585 25.1115 30.866 24.8195C30.3062 24.4876 29.6718 24.1113 28.4552 24.1113C27.238 24.1113 26.6032 24.4875 26.0432 24.8194C25.5504 25.1115 25.1248 25.3638 24.2288 25.3638C23.3332 25.3638 22.9077 25.1115 22.4151 24.8195C21.8552 24.4876 21.2206 24.1113 20.0037 24.1113C18.7855 24.1113 18.1503 24.4874 17.5898 24.8193C17.0964 25.1115 16.6702 25.3638 15.7731 25.3638C14.876 25.3638 14.4498 25.1115 13.9564 24.8193C13.3959 24.4874 12.7607 24.1113 11.5426 24.1113C10.3252 24.1113 9.69023 24.4875 9.13008 24.8194C8.63703 25.1115 8.21133 25.3638 7.31492 25.3638C6.41961 25.3638 5.9943 25.1115 5.5018 24.8195C5.03977 24.5455 4.52594 24.2419 3.67687 24.144V22.8184C3.67687 22.4508 3.97594 22.1519 4.34352 22.1519ZM38.8281 37.2223C38.8281 37.2446 38.8101 37.2626 38.7878 37.2626H1.21219C1.18992 37.2626 1.17188 37.2446 1.17188 37.2223V35.9698C1.17188 35.9476 1.18992 35.9295 1.21219 35.9295H5.59609C5.91969 35.9295 6.18203 35.6672 6.18203 35.3436C6.18203 35.02 5.91969 34.7576 5.59609 34.7576H3.67687V28.4576C4.20055 28.5417 4.53336 28.7389 4.90406 28.9587C5.46383 29.2907 6.09828 29.6669 7.31492 29.6669C8.53242 29.6669 9.16727 29.2908 9.72742 28.9588C10.2205 28.6667 10.6462 28.4144 11.5425 28.4144C12.4397 28.4144 12.8658 28.6668 13.3592 28.959C13.9197 29.2908 14.5549 29.6669 15.773 29.6669C16.9911 29.6669 17.6263 29.2908 18.1868 28.959C18.6802 28.6668 19.1064 28.4144 20.0035 28.4144C20.8991 28.4144 21.3246 28.6667 21.8173 28.9587C22.3772 29.2907 23.0117 29.6669 24.2287 29.6669C25.4459 29.6669 26.0805 29.2908 26.6405 28.9588C27.1334 28.6667 27.5589 28.4144 28.4549 28.4144C29.3502 28.4144 29.7755 28.6667 30.268 28.9587C30.8278 29.2908 31.4623 29.6669 32.6789 29.6669C33.8963 29.6669 34.5312 29.2908 35.0914 28.9589C35.4632 28.7386 35.797 28.5411 36.3229 28.4572V34.7577H8.10109C7.7775 34.7577 7.51516 35.0201 7.51516 35.3437C7.51516 35.6672 7.7775 35.9296 8.10109 35.9296H38.7878C38.8101 35.9296 38.8281 35.9476 38.8281 35.9699V37.2223Z" fill="#1FC935"/>
</g>
<defs>
<clipPath id="clip0">
<rect width="40" height="40" fill="white"/>
</clipPath>
</defs>
</svg>
