<svg width="48" height="32" viewBox="0 0 48 32" fill="none" xmlns="http://www.w3.org/2000/svg">
<path d="M40.8864 30.5083H1.40149C1.01587 30.5083 0.703125 30.1956 0.703125 29.8099V6.54456C0.703125 6.15894 1.01587 5.84619 1.40149 5.84619H40.8864C41.272 5.84619 41.5847 6.15894 41.5847 6.54456V29.8099C41.5847 30.1956 41.272 30.5083 40.8864 30.5083Z" fill="#00C395"/>
<path d="M40.8864 5.84619H1.40149C1.01587 5.84619 0.703125 6.15894 0.703125 6.54456V29.2075H41.5847V6.54456C41.5847 6.15894 41.272 5.84619 40.8864 5.84619Z" fill="#00A97D"/>
<path d="M43.6495 28.0299H4.16431C3.77869 28.0299 3.46631 27.7175 3.46631 27.3319V4.06653C3.46631 3.68091 3.77869 3.36816 4.16431 3.36816H43.6495C44.0352 3.36816 44.3475 3.68091 44.3475 4.06653V27.3319C44.3475 27.7175 44.0352 28.0299 43.6495 28.0299Z" fill="#00C395"/>
<path d="M43.6495 3.36816H4.16431C3.77869 3.36816 3.46631 3.68054 3.46631 4.06653V26.624H44.3475V4.06653C44.3475 3.68054 44.0352 3.36816 43.6495 3.36816Z" fill="#00A97D"/>
<path d="M46.5988 25.3652H7.11389C6.72827 25.3652 6.41553 25.0525 6.41553 24.6669V1.40149C6.41553 1.01587 6.72827 0.703125 7.11389 0.703125H46.5988C46.9844 0.703125 47.2971 1.01587 47.2971 1.40149V24.6669C47.2971 25.0525 46.9844 25.3652 46.5988 25.3652Z" fill="#00C395"/>
<path d="M46.5989 0.703125H42.2476V25.3652H46.5989C46.9845 25.3652 47.2972 25.0525 47.2972 24.6669V1.40149C47.2972 1.01587 46.9845 0.703125 46.5989 0.703125Z" fill="#00A97D"/>
<path d="M11.7875 22.8317C11.6399 21.3346 10.4457 20.1404 8.94861 19.9928C8.86401 19.9844 8.80029 19.9119 8.80029 19.8269V6.24194C8.80029 6.15698 8.86401 6.08411 8.94861 6.07605C10.4457 5.92847 11.6399 4.73425 11.7875 3.23718C11.7955 3.15259 11.8684 3.08887 11.9534 3.08887H41.7578C41.8428 3.08887 41.9156 3.15259 41.9241 3.23718C42.0717 4.73389 43.2659 5.92847 44.7626 6.07605C44.8475 6.08411 44.9109 6.15698 44.9109 6.24194V19.8269C44.9109 19.9119 44.8475 19.9847 44.7626 19.9932C43.2659 20.1404 42.0717 21.3346 41.9241 22.8317C41.9156 22.9163 41.8428 22.98 41.7578 22.98H11.9534C11.8684 22.98 11.7955 22.9163 11.7875 22.8317Z" fill="#76FFDA"/>
<path d="M44.7633 6.07568C43.2666 5.92847 42.072 4.73389 41.9244 3.23718C41.9164 3.15222 41.8435 3.08887 41.7585 3.08887H39.7554V22.98H41.7585C41.8435 22.98 41.9164 22.9163 41.9244 22.8317C42.072 21.3346 43.2662 20.1404 44.7633 19.9928C44.8479 19.9844 44.9116 19.9119 44.9116 19.8269V6.24194C44.9116 6.15698 44.8479 6.08411 44.7633 6.07568Z" fill="#5DE1C0"/>
<path d="M33.6028 13.0343C33.6028 16.7605 30.5823 19.781 26.8561 19.781C23.1299 19.781 20.1094 16.7605 20.1094 13.0343C20.1094 9.3081 23.1299 6.2876 26.8561 6.2876C30.5823 6.2876 33.6028 9.3081 33.6028 13.0343Z" fill="white"/>
<path d="M26.856 6.2876C25.9426 6.2876 25.0721 6.46997 24.2778 6.79883C26.7245 7.8114 28.4464 10.2214 28.4464 13.0343C28.4464 15.8468 26.7245 18.2568 24.2778 19.2694C25.0721 19.5986 25.9426 19.7806 26.856 19.7806C30.5822 19.7806 33.6027 16.7601 33.6027 13.0339C33.6027 9.3081 30.5822 6.2876 26.856 6.2876Z" fill="#E2EBF9"/>
<path d="M46.5985 0H7.11365C6.34094 0 5.71216 0.628784 5.71216 1.40149V2.66528H4.16382C3.39111 2.66528 2.7627 3.2937 2.7627 4.06641V5.14307H1.40149C0.628784 5.14307 0 5.77185 0 6.54456V29.8099C0 30.5826 0.628784 31.2114 1.40149 31.2114H40.8864C41.6591 31.2114 42.2878 30.5826 42.2878 29.8099V28.7336H43.649C44.4214 28.7336 45.0502 28.1049 45.0502 27.3322V26.0684H46.5985C47.3712 26.0684 48 25.4399 48 24.6672V1.40149C48 0.628784 47.3712 0 46.5985 0V0ZM40.8864 29.8052L1.40625 29.8099L1.40149 6.54932H2.7627V27.3322C2.7627 28.1049 3.39111 28.7336 4.16382 28.7336H40.8834L40.8864 29.8052ZM43.649 27.327L4.16895 27.3322L4.16382 4.07153H5.71216V24.6669C5.71216 25.4396 6.34094 26.0684 7.11365 26.0684H43.6458L43.649 27.327ZM7.11841 24.6669L7.11365 1.40625L46.5938 1.40149L46.5989 24.6621L7.11841 24.6669Z" fill="#434C54"/>
<path d="M26.6782 16.4384C25.3448 16.4167 24.4414 15.696 24.4414 15.1691C24.4414 14.9109 24.667 14.556 24.9362 14.556C25.291 14.556 25.5814 15.309 26.6782 15.395V12.8674C25.7103 12.5232 24.6348 12.1361 24.6348 10.7595C24.6348 9.40454 25.6565 8.86658 26.6782 8.75928V8.44727C26.6782 8.31799 26.8075 8.19971 26.9902 8.19971C27.1517 8.19971 27.3129 8.31799 27.3129 8.44727V8.73767C28.0442 8.75928 29.0765 8.98523 29.0765 9.51221C29.0765 9.71655 28.926 10.1249 28.6034 10.1249C28.3452 10.1249 28.0658 9.78101 27.3129 9.72717V11.9102C28.2485 12.2544 29.2703 12.7279 29.2703 14.1906C29.2703 15.5133 28.4745 16.2446 27.3129 16.4061V16.7716C27.3129 16.9009 27.1514 17.0192 26.9902 17.0192C26.8075 17.0192 26.6782 16.9009 26.6782 16.7716V16.4384ZM26.743 11.7058V9.74841C26.1406 9.82385 25.7103 10.0927 25.7103 10.6519C25.7103 11.2649 26.1729 11.4908 26.743 11.7058ZM27.2484 13.104V15.3734C27.8292 15.2657 28.1947 14.9215 28.1947 14.3085C28.1947 13.631 27.7754 13.33 27.2484 13.104Z" fill="#5DE1C0"/>
</svg>
