<svg width="40" height="40" viewBox="0 0 40 40" fill="none" xmlns="http://www.w3.org/2000/svg">
<g clip-path="url(#clip0)">
<path d="M28.1379 24.8793C27.1722 23.9133 25.6036 23.9133 24.6376 24.8793L22.7572 26.7419H22.7568L22.7548 26.7433C22.0304 27.2044 19.3403 26.1646 16.5933 23.4156C13.8447 20.668 12.8032 17.9754 13.2656 17.2541L13.294 17.2101C13.2978 17.2046 13.3032 17.1998 13.307 17.194L15.1289 15.372C15.5969 14.9041 15.854 14.283 15.854 13.6212C15.854 12.9594 15.5969 12.3383 15.1289 11.8711L7.64463 4.38674C6.68136 3.42176 5.11032 3.41937 4.14534 4.38674L1.3051 7.22664C-0.494963 9.02602 -0.431041 12.3773 1.4849 16.6628C3.29454 20.7107 6.56036 25.2088 10.6811 29.3289C14.8008 33.4486 19.2989 36.7147 23.3468 38.524C25.5598 39.5133 27.5233 40.0086 29.1531 40.0086C30.679 40.0086 31.9116 39.5741 32.7823 38.7038L35.6222 35.8636C36.5872 34.8989 36.5872 33.3293 35.6222 32.3643L28.1379 24.8793ZM5.27645 5.51819C5.61657 5.17739 6.17204 5.17739 6.51353 5.51819L13.9978 13.0032C14.1633 13.1679 14.2539 13.3874 14.2539 13.6212C14.2539 13.8547 14.1633 14.0741 13.9978 14.2399L12.5693 15.6681L3.84761 6.94634L5.27645 5.51819ZM31.6508 37.5724C29.1234 40.0978 20.549 36.9342 11.8115 28.1974C7.82614 24.212 4.67723 19.8835 2.94587 16.0096C1.34338 12.4258 1.15811 9.63721 2.43655 8.35809L2.71651 8.07779L11.657 17.0186C11.1309 19.0409 13.1426 22.2284 15.4619 24.547C17.5293 26.6144 20.2895 28.4452 22.2967 28.4452C22.5428 28.4452 22.7777 28.4175 22.9985 28.3598L31.9311 37.2924L31.6508 37.5724ZM34.4911 34.7325L33.0626 36.1613L24.3409 27.4396L25.769 26.0104C26.1098 25.6699 26.666 25.6699 27.0068 26.0104L34.4911 33.4954C34.8315 33.8362 34.8315 34.3917 34.4911 34.7325Z" fill="#1FC935"/>
<path d="M35.328 4.67473C32.3182 1.66529 28.325 0.00878906 24.0815 0.00878906C24.0761 0.00878906 24.0706 0.00878906 24.0658 0.00878906C23.6245 0.00947273 23.2659 0.367366 23.2666 0.809691C23.2673 1.25099 23.6252 1.60888 24.0668 1.60888H24.0815C27.8973 1.60888 31.4893 3.09959 34.1965 5.80618C36.9069 8.51722 38.4 12.117 38.4 15.9424C38.4 16.3844 38.7579 16.7423 39.2002 16.7423C39.6422 16.7423 40.0001 16.3844 40.0001 15.9424C40.0001 11.6894 38.3405 7.6876 35.328 4.67473Z" fill="#1FC935"/>
<path d="M24.0697 6.99365C29.0013 6.99365 33.0133 11.0057 33.0133 15.9369C33.0133 16.3789 33.3712 16.7368 33.8135 16.7368C34.2559 16.7368 34.6134 16.3789 34.6134 15.9369C34.6134 10.1231 29.8835 5.39355 24.0697 5.39355C23.6274 5.39355 23.2695 5.75145 23.2695 6.19377C23.2695 6.63576 23.6274 6.99365 24.0697 6.99365Z" fill="#1FC935"/>
<path d="M24.0697 12.3822C26.0301 12.3822 27.6248 13.9768 27.6248 15.9372C27.6248 16.3792 27.9826 16.7371 28.4246 16.7371C28.867 16.7371 29.2248 16.3792 29.2248 15.9372C29.2248 13.0945 26.912 10.7817 24.0697 10.7817C23.6274 10.7817 23.2695 11.1396 23.2695 11.582C23.2695 12.0243 23.6274 12.3822 24.0697 12.3822Z" fill="#1FC935"/>
</g>
<defs>
<clipPath id="clip0">
<rect width="40" height="40" fill="white"/>
</clipPath>
</defs>
</svg>
