<svg width="40" height="40" viewBox="0 0 40 40" fill="none" xmlns="http://www.w3.org/2000/svg">
<path d="M30.5471 19.6448H33.3372C33.968 19.6448 34.4812 19.1316 34.4812 18.5009V15.7107C34.4812 15.0799 33.968 14.5667 33.3372 14.5667H30.5471C29.9163 14.5667 29.4031 15.0799 29.4031 15.7107V18.5009C29.4031 19.1316 29.9163 19.6448 30.5471 19.6448ZM30.575 15.7386H33.3093V18.473H30.575V15.7386ZM30.5471 27.0667H33.3372C33.968 27.0667 34.4812 26.5535 34.4812 25.9227V23.1326C34.4812 22.5018 33.968 21.9886 33.3372 21.9886H30.5471C29.9163 21.9886 29.4031 22.5018 29.4031 23.1326V25.9227C29.4031 26.5535 29.9163 27.0667 30.5471 27.0667ZM30.575 23.1605H33.3093V25.8948H30.575V23.1605ZM22.5849 19.6448H25.375C26.0058 19.6448 26.519 19.1316 26.519 18.5009V15.7107C26.519 15.0799 26.0058 14.5667 25.375 14.5667H22.5849C21.9541 14.5667 21.4409 15.0799 21.4409 15.7107V18.5009C21.4409 19.1316 21.9541 19.6448 22.5849 19.6448ZM22.6128 15.7386H25.3471V18.473H22.6128V15.7386ZM9.45066 29.0625H6.66051C6.02973 29.0625 5.51652 29.5757 5.51652 30.2065V32.9966C5.51652 33.6274 6.02973 34.1406 6.66051 34.1406H9.45066C10.0814 34.1406 10.5946 33.6274 10.5946 32.9966V30.2065C10.5946 29.5757 10.0814 29.0625 9.45066 29.0625ZM9.42277 32.9688H6.6884V30.2344H9.42277V32.9688ZM9.45066 14.5667H6.66051C6.02973 14.5667 5.51652 15.0799 5.51652 15.7107V18.5009C5.51652 19.1316 6.02973 19.6448 6.66051 19.6448H9.45066C10.0814 19.6448 10.5946 19.1316 10.5946 18.5009V15.7107C10.5946 15.0798 10.0814 14.5667 9.45066 14.5667ZM9.42277 18.473H6.6884V15.7386H9.42277V18.473ZM22.5849 26.8927H25.375C26.0058 26.8927 26.519 26.3795 26.519 25.7488V22.9586C26.519 22.3278 26.0058 21.8146 25.375 21.8146H22.5849C21.9541 21.8146 21.4409 22.3278 21.4409 22.9586V25.7488C21.4409 26.3795 21.9541 26.8927 22.5849 26.8927ZM22.6128 22.9865H25.3471V25.7209H22.6128V22.9865ZM35.0632 2.67766H32.558V1.7818C32.558 0.799297 31.7587 0 30.7762 0H30.5071C29.5247 0 28.7254 0.799297 28.7254 1.7818V2.67766H11.2723V1.7818C11.2723 0.799297 10.473 0 9.49051 0H9.22144C8.23894 0 7.43965 0.799297 7.43965 1.7818V2.67766H4.93457C3.31699 2.67766 2.00098 3.99367 2.00098 5.61125V37.0703C2.00098 38.6858 3.3152 40 4.93066 40H35.0672C36.6827 40 37.9969 38.6858 37.9969 37.0703V5.61125C37.9968 3.99367 36.6808 2.67766 35.0632 2.67766ZM29.8973 1.7818C29.8973 1.44547 30.1709 1.17188 30.5072 1.17188H30.7763C31.1126 1.17188 31.3862 1.44547 31.3862 1.7818V2.67766H29.8973V1.7818ZM8.6116 1.7818C8.6116 1.44547 8.88519 1.17188 9.22152 1.17188H9.49058C9.82691 1.17188 10.1005 1.44547 10.1005 1.7818V2.67766H8.61168V1.7818H8.6116ZM36.825 37.0703C36.825 38.0396 36.0364 38.8281 35.0671 38.8281H4.93059C3.96129 38.8281 3.17277 38.0396 3.17277 37.0703V37.0666C3.66371 37.4366 4.27394 37.6562 4.93457 37.6562H28.691C29.4746 37.6562 30.2114 37.3511 30.7654 36.797L36.825 30.7374V37.0703ZM30.1675 35.7376C30.2135 35.548 30.2385 35.3502 30.2385 35.1467V31.2355C30.2385 30.498 30.8385 29.8979 31.5761 29.8979H35.4873C35.6908 29.8979 35.8885 29.8729 36.0782 29.827L30.1675 35.7376ZM36.825 11.0511H11.8582C11.5346 11.0511 11.2723 11.3134 11.2723 11.637C11.2723 11.9606 11.5346 12.223 11.8582 12.223H36.825V27.3884C36.825 28.126 36.2249 28.7261 35.4873 28.7261H31.5761C30.1924 28.7261 29.0666 29.8519 29.0666 31.2355V35.1468C29.0666 35.8844 28.4665 36.4845 27.729 36.4845H4.93457C3.96316 36.4845 3.17285 35.6941 3.17285 34.7227V12.223H9.51449C9.83808 12.223 10.1004 11.9606 10.1004 11.637C10.1004 11.3134 9.83808 11.0511 9.51449 11.0511H3.17277V5.61125C3.17277 4.63984 3.96309 3.84953 4.93449 3.84953H7.43965V5.57234C7.43965 6.55484 8.23894 7.35414 9.22144 7.35414C9.54504 7.35414 9.80738 7.0918 9.80738 6.7682C9.80738 6.44461 9.54504 6.18227 9.22144 6.18227C8.88512 6.18227 8.61152 5.90867 8.61152 5.57234V3.84953H28.7254V5.57234C28.7254 6.55484 29.5247 7.35414 30.5072 7.35414C30.8308 7.35414 31.0932 7.0918 31.0932 6.7682C31.0932 6.44461 30.8308 6.18227 30.5072 6.18227C30.1709 6.18227 29.8973 5.90867 29.8973 5.57234V3.84953H35.0632C36.0346 3.84953 36.825 4.63984 36.825 5.61125V11.0511ZM9.45066 21.8146H6.66051C6.02973 21.8146 5.51652 22.3278 5.51652 22.9586V25.7488C5.51652 26.3795 6.02973 26.8927 6.66051 26.8927H9.45066C10.0814 26.8927 10.5946 26.3795 10.5946 25.7488V22.9586C10.5946 22.3277 10.0814 21.8146 9.45066 21.8146ZM9.42277 25.7209H6.6884V22.9865H9.42277V25.7209ZM14.6227 19.6448H17.4128C18.0436 19.6448 18.5568 19.1316 18.5568 18.5009V15.7107C18.5568 15.0799 18.0436 14.5667 17.4128 14.5667H14.6227C13.9919 14.5667 13.4787 15.0799 13.4787 15.7107V18.5009C13.4787 19.1316 13.9919 19.6448 14.6227 19.6448ZM14.6506 15.7386H17.385V18.473H14.6506V15.7386ZM22.6121 32.9688C22.5975 32.658 22.341 32.4107 22.0268 32.4107C21.7032 32.4107 21.4408 32.673 21.4408 32.9966C21.4408 33.6274 21.954 34.1406 22.5848 34.1406H25.375C26.0057 34.1406 26.5189 33.6274 26.5189 32.9966V30.2065C26.5189 29.5757 26.0057 29.0625 25.375 29.0625H22.5848C21.954 29.0625 21.4408 29.5757 21.4408 30.2065V31.0112C21.4408 31.3348 21.7032 31.5971 22.0268 31.5971C22.3503 31.5971 22.6127 31.3348 22.6127 31.0112V30.2344H25.3471V32.9688H22.6121ZM14.6227 26.8927H17.4128C18.0436 26.8927 18.5568 26.3795 18.5568 25.7488V22.9586C18.5568 22.3278 18.0436 21.8146 17.4128 21.8146H14.6227C13.9919 21.8146 13.4787 22.3278 13.4787 22.9586V25.7488C13.4787 26.3795 13.9919 26.8927 14.6227 26.8927ZM14.6506 22.9865H17.385V25.7209H14.6506V22.9865ZM14.6227 34.1406H17.4128C18.0436 34.1406 18.5568 33.6274 18.5568 32.9966V30.2065C18.5568 29.5757 18.0436 29.0625 17.4128 29.0625H14.6227C13.9919 29.0625 13.4787 29.5757 13.4787 30.2065V32.9966C13.4787 33.6274 13.9919 34.1406 14.6227 34.1406ZM14.6506 30.2344H17.385V32.9688H14.6506V30.2344Z" fill="#1FC935"/>
</svg>
