<svg width="14" height="14" viewBox="0 0 14 14" fill="none" xmlns="http://www.w3.org/2000/svg">
<g clip-path="url(#clip0)">
<path d="M0.501716 7.62607C0.500012 6.48542 0.808723 5.3658 1.39476 4.38721C1.92305 5.37969 2.6994 6.21842 3.64817 6.82168C4.59694 7.42495 5.6858 7.77219 6.80866 7.82958C7.93152 7.88696 9.05009 7.65253 10.0554 7.14913C11.0608 6.64572 11.9186 5.89051 12.5453 4.95705C12.935 5.79278 13.1364 6.70394 13.1351 7.62607C13.1351 11.1146 10.3072 13.9425 6.81867 13.9425C3.33015 13.9425 0.501716 11.1146 0.501716 7.62607Z" fill="#1FC935"/>
<path d="M7.00114 13.9999C5.61683 13.9997 4.26365 13.5891 3.1127 12.8199C1.96176 12.0507 1.06471 10.9575 0.534984 9.67856C0.00525814 8.3996 -0.133363 6.9923 0.136646 5.63458C0.406655 4.27685 1.07317 3.02966 2.05192 2.0507C3.18991 0.912739 4.68516 0.201538 6.28604 0.0367935C7.88692 -0.127951 9.49568 0.263819 10.8416 1.14617C10.9185 1.1946 10.9849 1.25787 11.0371 1.3323C11.0893 1.40672 11.1261 1.4908 11.1453 1.57961C11.1646 1.66842 11.166 1.76018 11.1494 1.84953C11.1328 1.93888 11.0985 2.02402 11.0486 2.09998C10.9987 2.17593 10.9342 2.24117 10.8587 2.29188C10.7833 2.3426 10.6986 2.37776 10.6094 2.39532C10.5202 2.41288 10.4285 2.41249 10.3394 2.39416C10.2504 2.37584 10.166 2.33995 10.091 2.28859C9.17347 1.68555 8.09909 1.36514 7.00114 1.3671C3.89599 1.3671 1.36833 3.89394 1.36833 6.99992C1.36833 10.1059 3.89517 12.6327 7.00114 12.6327C10.1071 12.6327 12.634 10.1059 12.634 6.99992C12.6345 6.45106 12.5548 5.90507 12.3974 5.37925C12.3716 5.29325 12.363 5.20301 12.3721 5.11369C12.3812 5.02436 12.4078 4.93769 12.4503 4.85864C12.5363 4.69898 12.6822 4.58001 12.8559 4.52791C13.0295 4.4758 13.2168 4.49482 13.3765 4.58079C13.5361 4.66676 13.6551 4.81264 13.7072 4.98632C14.0208 6.03177 14.0856 7.13605 13.8965 8.21101C13.7074 9.28596 13.2697 10.3018 12.6182 11.1775C11.9667 12.0532 11.1195 12.7645 10.1442 13.2545C9.16893 13.7446 8.09261 13.9998 7.00114 13.9999Z" fill="#3E3C42"/>
<path d="M5.97573 10.3443C5.8493 10.3446 5.72407 10.3198 5.60728 10.2714C5.4905 10.223 5.3845 10.1518 5.29542 10.0621L2.85308 7.62031C2.78959 7.55682 2.73923 7.48145 2.70487 7.3985C2.67052 7.31555 2.65283 7.22665 2.65283 7.13687C2.65283 6.95554 2.72486 6.78165 2.85308 6.65343C2.98129 6.52521 3.15519 6.45318 3.33652 6.45318C3.51784 6.45318 3.69174 6.52521 3.81995 6.65343L5.97573 8.80921L10.1818 4.6021C10.31 4.47389 10.4839 4.40186 10.6652 4.40186C10.8465 4.40186 11.0204 4.47389 11.1486 4.6021C11.2768 4.73032 11.3489 4.90422 11.3489 5.08554C11.3489 5.26686 11.2768 5.44076 11.1486 5.56898L6.65632 10.0621C6.56715 10.1518 6.46109 10.2229 6.34427 10.2713C6.22745 10.3197 6.1022 10.3446 5.97573 10.3443Z" fill="#3E3C42"/>
</g>
<defs>
<clipPath id="clip0">
<rect width="14" height="14" fill="white"/>
</clipPath>
</defs>
</svg>
