<svg width="14" height="14" viewBox="0 0 14 14" fill="none" xmlns="http://www.w3.org/2000/svg">
<g clip-path="url(#clip0)">
<path d="M8.62996 0.896053C8.09821 0.754581 7.55025 0.683157 7 0.683593C3.51148 0.683593 0.683594 3.51148 0.683594 7C0.683594 10.4885 3.51148 13.3164 7 13.3164C8.0198 13.3171 9.02458 13.0706 9.92825 12.598C10.8319 12.1254 11.6076 11.4408 12.1888 10.6028C9.205 10.4833 6.82281 8.02648 6.82281 5.0132C6.82187 4.23911 6.98206 3.4733 7.29318 2.76448C7.60431 2.05566 8.05955 1.41936 8.62996 0.896053Z" fill="#C91F4B"/>
<path d="M6.99944 3.52859e-05C5.61512 0.000244141 4.26195 0.410901 3.111 1.18009C1.96005 1.94927 1.063 3.04244 0.533276 4.3214C0.00354915 5.60035 -0.135072 7.00765 0.134937 8.36538C0.404946 9.72311 1.07146 10.9703 2.05022 11.9493C3.27529 13.1746 4.91126 13.902 6.64166 13.9908C8.37206 14.0796 10.0739 13.5235 11.418 12.43C12.7621 11.3366 13.6528 9.7835 13.918 8.07123C14.1832 6.35896 13.8039 4.6092 12.8535 3.16043C12.7518 3.01408 12.5971 2.91321 12.4221 2.87929C12.2472 2.84537 12.066 2.88109 11.917 2.97884C11.768 3.07659 11.6631 3.22864 11.6246 3.4026C11.5861 3.57656 11.617 3.75869 11.7108 3.91019C12.3138 4.82771 12.6342 5.90209 12.6322 7.00004C12.6322 10.106 10.1054 12.6329 6.99944 12.6329C3.89346 12.6329 1.36662 10.106 1.36662 7.00004C1.36662 3.89406 3.89346 1.36722 6.99944 1.36722C7.54829 1.36673 8.09428 1.44641 8.6201 1.60375C8.79347 1.65492 8.98005 1.63533 9.13902 1.54928C9.29799 1.46323 9.41641 1.31772 9.46836 1.14458C9.52031 0.971441 9.50157 0.784773 9.41624 0.625416C9.33091 0.46606 9.18593 0.346989 9.01303 0.294254C8.35974 0.0986643 7.68138 -0.000455856 6.99944 3.52859e-05Z" fill="#3E3C42"/>
<path d="M4.32435 3.64038C4.18913 3.64035 4.05694 3.68043 3.9445 3.75554C3.83206 3.83066 3.74442 3.93743 3.69267 4.06236C3.64092 4.18728 3.62738 4.32475 3.65377 4.45737C3.68015 4.58999 3.74528 4.71181 3.84091 4.80741L9.19263 10.1591C9.25611 10.2226 9.33148 10.273 9.41443 10.3073C9.49738 10.3417 9.58628 10.3594 9.67606 10.3594C9.76585 10.3594 9.85475 10.3417 9.9377 10.3073C10.0206 10.273 10.096 10.2226 10.1595 10.1591C10.223 10.0956 10.2733 10.0203 10.3077 9.93733C10.3421 9.85438 10.3597 9.76547 10.3597 9.67569C10.3597 9.58591 10.3421 9.497 10.3077 9.41406C10.2733 9.33111 10.223 9.25574 10.1595 9.19225L4.80778 3.84053C4.74436 3.77698 4.669 3.72657 4.58603 3.69223C4.50307 3.65788 4.41414 3.64026 4.32435 3.64038Z" fill="#3E3C42"/>
<path d="M9.67578 3.64038C9.58599 3.64026 9.49706 3.65788 9.41409 3.69223C9.33113 3.72657 9.25577 3.77698 9.19234 3.84053L3.84063 9.19225C3.77714 9.25574 3.72678 9.33111 3.69242 9.41406C3.65806 9.497 3.64038 9.58591 3.64038 9.67569C3.64038 9.85702 3.71241 10.0309 3.84063 10.1591C3.96884 10.2873 4.14274 10.3594 4.32406 10.3594C4.50539 10.3594 4.67929 10.2873 4.8075 10.1591L10.1592 4.80741C10.2548 4.71181 10.32 4.58999 10.3464 4.45737C10.3727 4.32475 10.3592 4.18728 10.3075 4.06236C10.2557 3.93743 10.1681 3.83066 10.0556 3.75554C9.94319 3.68043 9.811 3.64035 9.67578 3.64038Z" fill="#3E3C42"/>
</g>
<defs>
<clipPath id="clip0">
<rect width="14" height="14" transform="matrix(1 0 0 -1 0 14)" fill="white"/>
</clipPath>
</defs>
</svg>
