<svg width="47" height="36" viewBox="0 0 47 36" fill="none" xmlns="http://www.w3.org/2000/svg">
<path d="M8.54448 35.821V33.4383C8.54448 32.5247 7.98011 31.9292 7.01275 31.9292C6.52917 31.9292 6.00519 32.088 5.64241 32.6043C5.36041 32.1674 4.95742 31.9292 4.35285 31.9292C3.94968 31.9292 3.54687 32.0482 3.2243 32.4851V32.0086H2.37793V35.821H3.2243V33.7162C3.2243 33.0412 3.58708 32.7234 4.15145 32.7234C4.71545 32.7234 4.99781 33.0808 4.99781 33.7162V35.821H5.84418V33.7162C5.84418 33.0412 6.24698 32.7234 6.77096 32.7234C7.33533 32.7234 7.61733 33.0808 7.61733 33.7162V35.821H8.54448ZM21.0786 32.0086H19.7084V30.857H18.8621V32.0086H18.0963V32.763H18.8619V34.5105C18.8619 35.3843 19.2247 35.9004 20.192 35.9004C20.5548 35.9004 20.9576 35.7814 21.24 35.6225L20.998 34.9076C20.7562 35.0664 20.4742 35.1062 20.2726 35.1062C19.8696 35.1062 19.7084 34.868 19.7084 34.4707V32.763H21.0786V32.0086ZM28.2527 31.929C27.7691 31.929 27.4467 32.1674 27.2452 32.4851V32.0086H26.3988V35.821H27.2452V33.6766C27.2452 33.0412 27.5272 32.6838 28.0511 32.6838C28.2123 32.6838 28.4139 32.7236 28.5751 32.7632L28.8169 31.969C28.6557 31.9292 28.4139 31.9292 28.2527 31.9292V31.929ZM17.4111 32.3263C17.008 32.0482 16.4438 31.9292 15.8392 31.9292C14.872 31.9292 14.2273 32.4057 14.2273 33.1603C14.2273 33.7958 14.7108 34.1531 15.5572 34.2723L15.9602 34.3121C16.4036 34.3913 16.6454 34.5105 16.6454 34.7092C16.6454 34.987 16.323 35.1857 15.7586 35.1857C15.1944 35.1857 14.751 34.987 14.4689 34.7886L14.0659 35.4239C14.5093 35.7416 15.1138 35.9004 15.7182 35.9004C16.8468 35.9004 17.4917 35.3843 17.4917 34.6694C17.4917 33.9942 16.9678 33.6368 16.1616 33.5177L15.7586 33.4779C15.3958 33.4381 15.1138 33.3589 15.1138 33.1206C15.1138 32.8426 15.3958 32.6838 15.8392 32.6838C16.323 32.6838 16.8066 32.8822 17.0484 33.0014L17.4111 32.3263ZM39.9005 31.9292C39.4167 31.9292 39.0943 32.1674 38.8927 32.4851V32.0086H38.0463V35.821H38.8927V33.6766C38.8927 33.0412 39.1749 32.6838 39.6987 32.6838C39.8601 32.6838 40.0616 32.7236 40.2228 32.7632L40.4646 31.969C40.3034 31.9292 40.0616 31.9292 39.9005 31.9292ZM29.0991 33.9148C29.0991 35.0664 29.9051 35.9004 31.1546 35.9004C31.7188 35.9004 32.1218 35.7814 32.5248 35.4637L32.1218 34.7886C31.7994 35.0268 31.477 35.1459 31.1142 35.1459C30.429 35.1459 29.9454 34.6694 29.9454 33.9148C29.9454 33.2001 30.429 32.7234 31.1142 32.6838C31.477 32.6838 31.7994 32.8028 32.1218 33.0412L32.5248 32.3661C32.1218 32.0482 31.7188 31.9292 31.1546 31.9292C29.9051 31.9292 29.0991 32.7632 29.0991 33.9148ZM36.918 33.9148V32.0086H36.0716V32.4851C35.7894 32.1278 35.3864 31.9292 34.8625 31.9292C33.7743 31.9292 32.9279 32.7632 32.9279 33.9148C32.9279 35.0664 33.7743 35.9004 34.8625 35.9004C35.4266 35.9004 35.8298 35.702 36.0716 35.3445V35.821H36.918V33.9148ZM33.8145 33.9148C33.8145 33.2397 34.2579 32.6838 34.9833 32.6838C35.6684 32.6838 36.1522 33.2001 36.1522 33.9148C36.1522 34.5899 35.6684 35.1459 34.9833 35.1459C34.2579 35.1061 33.8145 34.5899 33.8145 33.9148ZM23.6985 31.9292C22.5699 31.9292 21.7638 32.7234 21.7638 33.9148C21.7638 35.1062 22.5698 35.9004 23.7387 35.9004C24.3029 35.9004 24.8672 35.7416 25.3106 35.3843L24.9075 34.7886C24.5851 35.0268 24.1821 35.1857 23.7791 35.1857C23.2551 35.1857 22.7311 34.9474 22.6101 34.2721H25.4718V33.9546C25.5122 32.7234 24.7866 31.9292 23.6983 31.9292H23.6985ZM23.6985 32.644C24.2223 32.644 24.5852 32.9618 24.6657 33.5575H22.6505C22.7311 33.0412 23.0939 32.644 23.6985 32.644ZM44.6965 33.9148V30.4995H43.8501V32.4851C43.5679 32.1278 43.1649 31.9292 42.641 31.9292C41.5528 31.9292 40.7064 32.7632 40.7064 33.9148C40.7064 35.0664 41.5528 35.9004 42.641 35.9004C43.2053 35.9004 43.6083 35.702 43.8501 35.3445V35.821H44.6965V33.9148ZM41.5932 33.9148C41.5932 33.2397 42.0364 32.6838 42.7619 32.6838C43.4471 32.6838 43.9307 33.2001 43.9307 33.9148C43.9307 34.5899 43.4471 35.1459 42.7619 35.1459C42.0364 35.1061 41.5932 34.5899 41.5932 33.9148ZM13.3001 33.9148V32.0086H12.4537V32.4851C12.1716 32.1278 11.7686 31.9292 11.2446 31.9292C10.1564 31.9292 9.31006 32.7632 9.31006 33.9148C9.31006 35.0664 10.1564 35.9004 11.2446 35.9004C11.809 35.9004 12.2119 35.702 12.4537 35.3445V35.821H13.3001V33.9148ZM10.1564 33.9148C10.1564 33.2397 10.5998 32.6838 11.3252 32.6838C12.0104 32.6838 12.4941 33.2001 12.4941 33.9148C12.4941 34.5899 12.0104 35.1459 11.3252 35.1459C10.5998 35.1061 10.1564 34.5899 10.1564 33.9148Z" fill="white"/>
<path d="M17.1289 3.05786H29.8244V25.5354H17.1289V3.05786Z" fill="#FF5F00"/>
<path d="M17.9351 14.2967C17.9351 9.72977 20.1114 5.67895 23.4565 3.05783C20.9982 1.15164 17.8949 0 14.5094 0C6.48875 0 0 6.39371 0 14.2967C0 22.1995 6.48875 28.5934 14.5092 28.5934C17.8947 28.5934 20.998 27.4418 23.4565 25.5354C20.1114 22.9541 17.9351 18.8636 17.9351 14.2967Z" fill="#EB001B"/>
<path d="M46.9536 14.2967C46.9536 22.1995 40.4648 28.5934 32.4443 28.5934C29.0589 28.5934 25.9556 27.4418 23.4971 25.5354C26.8825 22.9145 29.0187 18.8636 29.0187 14.2967C29.0187 9.72977 26.8421 5.67895 23.4971 3.05783C25.9554 1.15164 29.0589 0 32.4443 0C40.4648 0 46.9537 6.43351 46.9537 14.2967H46.9536Z" fill="#F79E1B"/>
</svg>
