<svg width="40" height="40" viewBox="0 0 40 40" fill="none" xmlns="http://www.w3.org/2000/svg">
<g clip-path="url(#clip0)">
<path d="M19.9917 0C13.6546 0 8.49902 5.15563 8.49902 11.4927C8.49902 14.1269 9.41066 16.6951 11.068 18.7353C11.0804 18.7545 11.0936 18.7731 11.1079 18.7913L19.3758 29.3838C19.5239 29.5734 19.7511 29.6843 19.9917 29.6843C20.2323 29.6843 20.4594 29.5734 20.6075 29.3836L28.9151 18.7354C28.918 18.7316 28.9208 18.728 28.9236 18.7242C30.575 16.6866 31.4842 14.1196 31.4842 11.4927C31.4843 5.15563 26.3288 0 19.9917 0ZM27.6931 17.7612C27.6832 17.7734 27.6738 17.7857 27.6647 17.7983L19.9915 27.6334L12.3957 17.9021C12.3768 17.8713 12.3556 17.8415 12.3321 17.813C10.8678 16.0406 10.0614 13.796 10.0614 11.4927C10.0614 6.01711 14.5161 1.56234 19.9917 1.56234C25.4672 1.56234 29.922 6.01711 29.9221 11.4927C29.9221 13.7714 29.1304 15.9977 27.6931 17.7612Z" fill="#B7B5B3"/>
<path d="M26.734 9.6687C26.6119 9.25487 26.1774 9.01847 25.7637 9.1405C25.3498 9.26261 25.1134 9.69698 25.2355 10.1108C25.8034 12.0359 25.2755 14.1125 23.8577 15.5303C22.825 16.5631 21.4518 17.1318 19.9912 17.1318C18.5307 17.1318 17.1575 16.5631 16.1247 15.5302C15.0919 14.4974 14.5231 13.1242 14.5231 11.6636C14.5231 10.203 15.0919 8.8298 16.1248 7.79706C17.5439 6.37784 19.6223 5.85042 21.5488 6.42073C21.9627 6.54331 22.3972 6.30714 22.5196 5.89347C22.6421 5.4798 22.4059 5.04511 21.9923 4.92269C19.5161 4.18972 16.8445 4.86784 15.0201 6.6923C13.6923 8.02019 12.9609 9.78573 12.9609 11.6636C12.9609 13.5415 13.6922 15.307 15.0201 16.6349C16.348 17.9628 18.1135 18.6941 19.9914 18.6941C21.8693 18.6941 23.6348 17.9628 24.9627 16.635C26.7852 14.8125 27.464 12.1431 26.734 9.6687Z" fill="#B7B5B3"/>
<path d="M24.9763 6.70609L24.9625 6.69219C24.6573 6.38711 24.1627 6.38711 23.8577 6.69219C23.5526 6.99734 23.5526 7.49195 23.8577 7.79695L23.8715 7.81086C24.024 7.96344 24.224 8.03969 24.4239 8.03969C24.6238 8.03969 24.8237 7.96344 24.9763 7.81086C25.2813 7.50578 25.2813 7.01117 24.9763 6.70609Z" fill="#B7B5B3"/>
<path d="M32.0014 23.8519C31.5917 23.7173 31.15 23.9398 31.0152 24.3497C30.8804 24.7595 31.1032 25.201 31.513 25.3359C35.8482 26.7625 38.4362 28.8999 38.4362 31.0534C38.4362 32.8744 36.5582 34.7169 33.2835 36.1083C29.7483 37.6104 25.0311 38.4377 20.0007 38.4377C14.9704 38.4377 10.2532 37.6104 6.71801 36.1083C3.4434 34.7169 1.56527 32.8745 1.56527 31.0534C1.56527 29.5284 2.88059 27.9794 5.26902 26.6914C7.79254 25.3306 11.3664 24.345 15.3321 23.9163C15.761 23.8699 16.0711 23.4847 16.0247 23.0557C15.9783 22.6268 15.5929 22.3163 15.1641 22.3631C11.0021 22.813 7.22465 23.8618 4.52738 25.3163C1.56746 26.9125 0.00292969 28.8963 0.00292969 31.0534C0.00292969 33.5677 2.17074 35.8736 6.10699 37.5462C9.83113 39.1285 14.7653 39.9999 20.0008 39.9999C25.2364 39.9999 30.1705 39.1285 33.8945 37.5462C37.8307 35.8736 39.9986 33.5678 39.9986 31.0534C39.9986 28.1492 37.0838 25.5244 32.0014 23.8519Z" fill="#B7B5B3"/>
<path d="M28.4268 22.9156L28.3997 22.9101C27.9768 22.8248 27.5647 23.0985 27.4794 23.5214C27.3942 23.9443 27.6679 24.3563 28.0907 24.4416L28.1179 24.4471C28.1701 24.4576 28.222 24.4627 28.2732 24.4627C28.6374 24.4627 28.9633 24.2065 29.0382 23.8358C29.1234 23.4129 28.8497 23.0009 28.4268 22.9156Z" fill="#B7B5B3"/>
<path d="M14.0945 26.3297C14.0099 25.9068 13.5984 25.6325 13.1753 25.7169C13.1577 25.7204 13.139 25.7248 13.1217 25.7296C12.7055 25.8431 12.4601 26.2725 12.5736 26.6887C12.6684 27.0362 12.9832 27.2646 13.3268 27.2646C13.3883 27.2646 13.4506 27.2573 13.5128 27.2421C13.9182 27.144 14.1771 26.7424 14.0945 26.3297Z" fill="#B7B5B3"/>
<path d="M22.607 25.0585C22.1765 25.0253 21.8009 25.3462 21.7673 25.7763C21.7336 26.2064 22.055 26.5824 22.4851 26.6161C27.5855 27.0153 30.302 28.5071 30.302 29.4305C30.302 29.8759 29.5918 30.6327 27.5903 31.2992C25.5745 31.9705 22.8791 32.3403 20.0005 32.3403C17.122 32.3403 14.4265 31.9706 12.4108 31.2992C10.4093 30.6327 9.69914 29.8759 9.69914 29.4305C9.69914 29.0234 10.2513 28.5101 11.176 28.0577C11.5635 27.868 11.7239 27.4002 11.5343 27.0127C11.3447 26.6252 10.8769 26.4648 10.4893 26.6545C8.54492 27.6059 8.13672 28.6892 8.13672 29.4306C8.13672 32.3666 14.1049 33.9028 20.0005 33.9028C25.896 33.9028 31.8642 32.3666 31.8643 29.4305C31.8644 26.7384 26.8775 25.3928 22.607 25.0585Z" fill="#B7B5B3"/>
</g>
<defs>
<clipPath id="clip0">
<rect x="0.000976562" width="40" height="40" fill="white"/>
</clipPath>
</defs>
</svg>
