<svg width="40" height="40" viewBox="0 0 40 40" fill="none" xmlns="http://www.w3.org/2000/svg">
<path d="M19.9907 0C13.6536 0 8.49805 5.15563 8.49805 11.4927C8.49805 14.1269 9.40969 16.6951 11.067 18.7353C11.0794 18.7545 11.0927 18.7731 11.1069 18.7913L19.3748 29.3838C19.5229 29.5734 19.7501 29.6843 19.9907 29.6843C20.2313 29.6843 20.4584 29.5734 20.6065 29.3836L28.9141 18.7354C28.917 18.7316 28.9198 18.728 28.9227 18.7242C30.574 16.6866 31.4832 14.1196 31.4832 11.4927C31.4834 5.15563 26.3278 0 19.9907 0ZM27.6921 17.7612C27.6822 17.7734 27.6728 17.7857 27.6637 17.7983L19.9905 27.6334L12.3948 17.9021C12.3759 17.8713 12.3546 17.8415 12.3312 17.813C10.8668 16.0406 10.0604 13.796 10.0604 11.4927C10.0604 6.01711 14.5152 1.56234 19.9907 1.56234C25.4662 1.56234 29.921 6.01711 29.9211 11.4927C29.9211 13.7714 29.1294 15.9977 27.6921 17.7612Z" fill="#EB194A"/>
<path d="M26.733 9.6687C26.6109 9.25487 26.1764 9.01847 25.7627 9.1405C25.3489 9.26261 25.1124 9.69698 25.2345 10.1108C25.8024 12.0359 25.2745 14.1125 23.8568 15.5303C22.824 16.5631 21.4508 17.1318 19.9903 17.1318C18.5297 17.1318 17.1565 16.5631 16.1237 15.5302C15.0909 14.4974 14.5221 13.1242 14.5221 11.6636C14.5221 10.203 15.0909 8.8298 16.1238 7.79706C17.5429 6.37784 19.6213 5.85042 21.5479 6.42073C21.9617 6.54331 22.3962 6.30714 22.5186 5.89347C22.6411 5.4798 22.405 5.04511 21.9914 4.92269C19.5151 4.18972 16.8436 4.86784 15.0191 6.6923C13.6913 8.02019 12.96 9.78573 12.96 11.6636C12.96 13.5415 13.6912 15.307 15.0191 16.6349C16.347 17.9628 18.1125 18.6941 19.9904 18.6941C21.8683 18.6941 23.6338 17.9628 24.9617 16.635C26.7843 14.8125 27.463 12.1431 26.733 9.6687Z" fill="#EB194A"/>
<path d="M24.9753 6.70609L24.9615 6.69219C24.6563 6.38711 24.1617 6.38711 23.8567 6.69219C23.5517 6.99734 23.5517 7.49195 23.8567 7.79695L23.8706 7.81086C24.0231 7.96344 24.223 8.03969 24.4229 8.03969C24.6228 8.03969 24.8228 7.96344 24.9753 7.81086C25.2803 7.50578 25.2803 7.01117 24.9753 6.70609Z" fill="#EB194A"/>
<path d="M32.0005 23.8519C31.5907 23.7173 31.1491 23.9398 31.0142 24.3497C30.8794 24.7595 31.1023 25.201 31.512 25.3359C35.8472 26.7625 38.4352 28.8999 38.4352 31.0534C38.4352 32.8744 36.5572 34.7169 33.2825 36.1083C29.7473 37.6104 25.0302 38.4377 19.9998 38.4377C14.9694 38.4377 10.2522 37.6104 6.71703 36.1083C3.44242 34.7169 1.5643 32.8745 1.5643 31.0534C1.5643 29.5284 2.87961 27.9794 5.26805 26.6914C7.79156 25.3306 11.3654 24.345 15.3311 23.9163C15.76 23.8699 16.0702 23.4847 16.0238 23.0557C15.9773 22.6268 15.592 22.3163 15.1631 22.3631C11.0012 22.813 7.22367 23.8618 4.52641 25.3163C1.56648 26.9125 0.00195312 28.8963 0.00195312 31.0534C0.00195312 33.5677 2.16977 35.8736 6.10602 37.5462C9.83016 39.1285 14.7643 39.9999 19.9998 39.9999C25.2354 39.9999 30.1695 39.1285 33.8935 37.5462C37.8298 35.8736 39.9976 33.5678 39.9976 31.0534C39.9976 28.1492 37.0828 25.5244 32.0005 23.8519Z" fill="#EB194A"/>
<path d="M28.4259 22.9156L28.3987 22.9101C27.9758 22.8248 27.5638 23.0985 27.4784 23.5214C27.3932 23.9443 27.6669 24.3563 28.0898 24.4416L28.117 24.4471C28.1691 24.4576 28.221 24.4627 28.2723 24.4627C28.6364 24.4627 28.9624 24.2065 29.0372 23.8358C29.1224 23.4129 28.8488 23.0009 28.4259 22.9156Z" fill="#EB194A"/>
<path d="M14.0935 26.3297C14.0089 25.9068 13.5974 25.6325 13.1743 25.7169C13.1567 25.7204 13.138 25.7248 13.1207 25.7296C12.7045 25.8431 12.4591 26.2725 12.5726 26.6887C12.6674 27.0362 12.9823 27.2646 13.3258 27.2646C13.3873 27.2646 13.4496 27.2573 13.5118 27.2421C13.9172 27.144 14.1761 26.7424 14.0935 26.3297Z" fill="#EB194A"/>
<path d="M22.6061 25.0585C22.1755 25.0253 21.8 25.3462 21.7663 25.7763C21.7326 26.2064 22.054 26.5824 22.4841 26.6161C27.5845 27.0153 30.301 28.5071 30.301 29.4305C30.301 29.8759 29.5908 30.6327 27.5893 31.2992C25.5736 31.9705 22.8782 32.3403 19.9996 32.3403C17.121 32.3403 14.4255 31.9706 12.4098 31.2992C10.4083 30.6327 9.69816 29.8759 9.69816 29.4305C9.69816 29.0234 10.2503 28.5101 11.175 28.0577C11.5625 27.868 11.7229 27.4002 11.5333 27.0127C11.3437 26.6252 10.8759 26.4648 10.4883 26.6545C8.54395 27.6059 8.13574 28.6892 8.13574 29.4306C8.13574 32.3666 14.1039 33.9028 19.9995 33.9028C25.895 33.9028 31.8632 32.3666 31.8633 29.4305C31.8634 26.7384 26.8765 25.3928 22.6061 25.0585Z" fill="#EB194A"/>
</svg>
