<svg width="40" height="40" viewBox="0 0 40 40" fill="none" xmlns="http://www.w3.org/2000/svg">
<path d="M6.24902 38.75H31.249C32.0775 38.7491 32.8719 38.4195 33.4577 37.8337C34.0436 37.2478 34.3731 36.4535 34.374 35.625V4.375C34.3731 3.54648 34.0436 2.75217 33.4577 2.16632C32.8719 1.58047 32.0775 1.25093 31.249 1.25H6.24902C6.08326 1.25 5.92429 1.31585 5.80708 1.43306C5.68987 1.55027 5.62402 1.70924 5.62402 1.875V38.125C5.62402 38.2908 5.68987 38.4497 5.80708 38.5669C5.92429 38.6842 6.08326 38.75 6.24902 38.75ZM6.87402 2.5H31.249C31.7461 2.50058 32.2227 2.69831 32.5742 3.04981C32.9257 3.40132 33.1234 3.8779 33.124 4.375V35.625C33.1234 36.1221 32.9257 36.5987 32.5742 36.9502C32.2227 37.3017 31.7461 37.4994 31.249 37.5H6.87402V2.5Z" fill="#EB194A"/>
<path d="M13.124 6.25H26.874C27.0398 6.25 27.1988 6.18415 27.316 6.06694C27.4332 5.94973 27.499 5.79076 27.499 5.625C27.499 5.45924 27.4332 5.30027 27.316 5.18306C27.1988 5.06585 27.0398 5 26.874 5H13.124C12.9583 5 12.7993 5.06585 12.6821 5.18306C12.5649 5.30027 12.499 5.45924 12.499 5.625C12.499 5.79076 12.5649 5.94973 12.6821 6.06694C12.7993 6.18415 12.9583 6.25 13.124 6.25Z" fill="#EB194A"/>
<path d="M19.999 8.75C18.3921 8.75 16.8212 9.22652 15.485 10.1193C14.1489 11.0121 13.1075 12.281 12.4925 13.7657C11.8775 15.2503 11.7166 16.884 12.0301 18.4601C12.3437 20.0362 13.1175 21.4839 14.2538 22.6202C15.3901 23.7565 16.8378 24.5304 18.4139 24.8439C19.99 25.1574 21.6237 24.9965 23.1083 24.3815C24.593 23.7666 25.8619 22.7252 26.7547 21.389C27.6475 20.0529 28.124 18.482 28.124 16.875C28.1216 14.7209 27.2648 12.6557 25.7416 11.1325C24.2184 9.60925 22.1532 8.75244 19.999 8.75ZM17.178 10.6058C17.0358 10.8274 16.9057 11.0565 16.7883 11.2922C16.5946 11.6828 16.4284 12.0863 16.2907 12.5H14.6996C15.3706 11.688 16.2183 11.0401 17.178 10.6058ZM13.8762 13.75H15.9491C15.7729 14.5727 15.6686 15.4092 15.6375 16.25H13.1527C13.2312 15.378 13.4769 14.5292 13.8762 13.75ZM13.8762 20C13.4769 19.2208 13.2312 18.372 13.1527 17.5H15.6375C15.6686 18.3408 15.7729 19.1773 15.9491 20H13.8762ZM14.6996 21.25H16.2907C16.4284 21.6637 16.5946 22.0672 16.7883 22.4578C16.9057 22.6935 17.0358 22.9226 17.178 23.1442C16.2183 22.7099 15.3706 22.062 14.6996 21.25ZM19.374 23.5926C18.8428 23.3299 18.3296 22.7451 17.9064 21.8988C17.8036 21.6933 17.7089 21.4759 17.6207 21.25H19.374V23.5926ZM19.374 20H17.2304C17.0354 19.1798 16.9207 18.3425 16.888 17.5H19.374V20ZM19.374 16.25H16.888C16.9207 15.4075 17.0354 14.5702 17.2304 13.75H19.374V16.25ZM19.374 12.5H17.6207C17.7089 12.2741 17.8036 12.0567 17.9064 11.8512C18.3296 11.0049 18.8431 10.4201 19.374 10.1574V12.5ZM25.2985 12.5H23.7073C23.5697 12.0863 23.4034 11.6828 23.2097 11.2922C23.0923 11.0565 22.9622 10.8274 22.82 10.6058C23.7797 11.0401 24.6274 11.688 25.2985 12.5ZM20.624 10.1574C21.1553 10.4201 21.6685 11.0049 22.0917 11.8512C22.1944 12.0567 22.2891 12.2741 22.3774 12.5H20.624V10.1574ZM20.624 13.75H22.7677C22.9627 14.5702 23.0773 15.4075 23.11 16.25H20.624V13.75ZM22.0917 21.8988C21.6685 22.7451 21.155 23.3299 20.624 23.5926V21.25H22.3774C22.2891 21.4759 22.1943 21.6933 22.0917 21.8988ZM20.624 20V17.5H23.11C23.0773 18.3425 22.9627 19.1798 22.7677 20H20.624ZM22.82 23.1442C22.9622 22.9226 23.0923 22.6935 23.2097 22.4578C23.4034 22.0672 23.5697 21.6637 23.7073 21.25H25.2985C24.6274 22.062 23.7797 22.7099 22.82 23.1442ZM26.1218 20H24.0489C24.2252 19.1773 24.3295 18.3408 24.3606 17.5H26.8454C26.7668 18.372 26.5212 19.2208 26.1218 20ZM26.8454 16.25H24.3606C24.3295 15.4092 24.2252 14.5727 24.0489 13.75H26.1218C26.5212 14.5292 26.7668 15.378 26.8454 16.25Z" fill="#EB194A"/>
<path d="M21.249 30H18.749C18.2519 30.0006 17.7753 30.1983 17.4238 30.5498C17.0723 30.9013 16.8746 31.3779 16.874 31.875V34.375C16.8746 34.8721 17.0723 35.3487 17.4238 35.7002C17.7753 36.0517 18.2519 36.2494 18.749 36.25H21.249C21.7461 36.2494 22.2227 36.0517 22.5742 35.7002C22.9257 35.3487 23.1234 34.8721 23.124 34.375V31.875C23.1234 31.3779 22.9257 30.9013 22.5742 30.5498C22.2227 30.1983 21.7461 30.0006 21.249 30ZM21.874 32.5H21.249C21.0833 32.5 20.9243 32.5658 20.8071 32.6831C20.6899 32.8003 20.624 32.9592 20.624 33.125C20.624 33.2908 20.6899 33.4497 20.8071 33.5669C20.9243 33.6842 21.0833 33.75 21.249 33.75H21.874V34.375C21.8738 34.5407 21.8079 34.6996 21.6908 34.8167C21.5736 34.9339 21.4147 34.9998 21.249 35H18.749C18.5833 34.9998 18.4245 34.9339 18.3073 34.8167C18.1901 34.6996 18.1242 34.5407 18.124 34.375V33.75H18.749C18.9148 33.75 19.0738 33.6842 19.191 33.5669C19.3082 33.4497 19.374 33.2908 19.374 33.125C19.374 32.9592 19.3082 32.8003 19.191 32.6831C19.0738 32.5658 18.9148 32.5 18.749 32.5H18.124V31.875C18.1242 31.7093 18.1901 31.5504 18.3073 31.4333C18.4245 31.3161 18.5833 31.2502 18.749 31.25H21.249C21.4147 31.2502 21.5736 31.3161 21.6908 31.4333C21.8079 31.5504 21.8738 31.7093 21.874 31.875V32.5Z" fill="#EB194A"/>
<path d="M25.624 27.5H14.374C14.2083 27.5 14.0493 27.5658 13.9321 27.6831C13.8149 27.8003 13.749 27.9592 13.749 28.125C13.749 28.2908 13.8149 28.4497 13.9321 28.5669C14.0493 28.6842 14.2083 28.75 14.374 28.75H25.624C25.7898 28.75 25.9488 28.6842 26.066 28.5669C26.1832 28.4497 26.249 28.2908 26.249 28.125C26.249 27.9592 26.1832 27.8003 26.066 27.6831C25.9488 27.5658 25.7898 27.5 25.624 27.5Z" fill="#EB194A"/>
</svg>
