<svg width="40" height="40" viewBox="0 0 40 40" fill="none" xmlns="http://www.w3.org/2000/svg">
<path d="M38 7.88717H29.3333V5.25806C29.3311 3.44381 27.8402 1.97393 26 1.97168H14C12.1598 1.97393 10.6689 3.44381 10.6667 5.25806V7.88717H2C0.895508 7.88717 0 8.77007 0 9.859V24.4898C0.00423177 25.3236 0.537109 26.0653 1.33333 26.3455V35.4928C1.33333 36.5817 2.22884 37.4646 3.33333 37.4646H36.6667C37.7712 37.4646 38.6667 36.5817 38.6667 35.4928V26.3461C39.4629 26.0656 39.9961 25.3236 40 24.4898V9.859C40 8.77007 39.1045 7.88717 38 7.88717ZM12 5.25806C12 4.16913 12.8955 3.28623 14 3.28623H26C27.1045 3.28623 28 4.16913 28 5.25806V7.88717H26.6667V5.25806C26.6667 4.89509 26.3682 4.60079 26 4.60079H14C13.6318 4.60079 13.3333 4.89509 13.3333 5.25806V7.88717H12V5.25806ZM25.3333 7.88717H14.6667V5.91534H25.3333V7.88717ZM37.3333 35.4928C37.3333 35.8558 37.0348 36.1501 36.6667 36.1501H3.33333C2.96517 36.1501 2.66667 35.8558 2.66667 35.4928V26.5714L17.3333 28.5657V30.2346C17.3333 31.3235 18.2288 32.2064 19.3333 32.2064H20.6667C21.7712 32.2064 22.6667 31.3235 22.6667 30.2346V28.5657L37.3333 26.5714V35.4928ZM21.3333 30.2346C21.3333 30.5976 21.0348 30.8919 20.6667 30.8919H19.3333C18.9652 30.8919 18.6667 30.5976 18.6667 30.2346V26.2909C18.6667 25.9279 18.9652 25.6337 19.3333 25.6337H20.6667C21.0348 25.6337 21.3333 25.9279 21.3333 26.2909V30.2346ZM38.6667 24.4898C38.667 24.8175 38.4225 25.0954 38.0934 25.1413L37.9085 25.1664L22.6667 27.2387V26.2909C22.6667 25.202 21.7712 24.3191 20.6667 24.3191H19.3333C18.2288 24.3191 17.3333 25.202 17.3333 26.2909V27.2387L1.90723 25.1413C1.57812 25.0958 1.33301 24.8178 1.33333 24.4898V9.859C1.33333 9.49603 1.63184 9.20173 2 9.20173H38C38.3682 9.20173 38.6667 9.49603 38.6667 9.859V24.4898Z" fill="#EB194A"/>
</svg>
