<svg width="40" height="40" viewBox="0 0 40 40" fill="none" xmlns="http://www.w3.org/2000/svg">
<path d="M20.0006 0C10.8105 0 3.33398 7.47984 3.33398 16.6738C3.33398 25.7799 11.5684 34.3646 16.4766 38.6712C17.4534 39.528 18.7051 40 20.0006 40C21.2962 40 22.5478 39.528 23.5247 38.6709C28.4329 34.3646 36.6673 25.78 36.6673 16.6738C36.6673 7.47984 29.1907 0 20.0006 0ZM22.6452 37.6686C21.9117 38.3121 20.9727 38.6666 20.0006 38.6666C19.0286 38.6666 18.0895 38.3122 17.3561 37.6689C12.6172 33.5111 4.66727 25.2545 4.66727 16.6738C4.66727 8.21516 11.5459 1.33336 20.0006 1.33336C28.4554 1.33336 35.334 8.21516 35.334 16.6738C35.334 25.2545 27.3841 33.5111 22.6452 37.6686Z" fill="#B7B5B3"/>
<path d="M33.3265 15.9696C33.3079 15.6311 33.0361 15.3602 32.6976 15.3407C32.6976 15.3407 32.5722 15.3335 32.3505 15.3335C31.2669 15.3335 27.5481 15.5162 25.1985 17.8651C22.4456 20.6183 22.6633 25.1717 22.6741 25.3641C22.693 25.7026 22.9645 25.9735 23.303 25.993C23.303 25.993 23.4283 26.0002 23.6507 26.0002C24.7347 26.0002 28.4528 25.8176 30.802 23.4687C33.5547 20.7154 33.3369 16.1623 33.3265 15.9696ZM29.8594 22.5259C28.0739 24.3114 25.2539 24.6168 24.0081 24.6604C24.054 23.4104 24.3626 20.5868 26.1412 18.8079C27.9267 17.023 30.7461 16.717 31.9922 16.6734C31.9465 17.9237 31.6376 20.7473 29.8594 22.5259Z" fill="#B7B5B3"/>
<path d="M7.65101 15.3335C7.42929 15.3335 7.30397 15.3407 7.30397 15.3407C6.96546 15.3602 6.69397 15.6308 6.67507 15.9696C6.66436 16.1619 6.44655 20.7154 9.19952 23.4687C11.5488 25.8176 15.2673 26.0002 16.3508 26.0002C16.5732 26.0002 16.6985 25.993 16.6985 25.993C17.037 25.9735 17.3089 25.7026 17.3274 25.3641C17.3378 25.1714 17.5556 20.6183 14.803 17.8651C12.4534 15.5161 8.73468 15.3335 7.65101 15.3335ZM10.1422 22.5258C8.36382 20.7472 8.05491 17.9237 8.00905 16.6733C9.25515 16.7169 12.0748 17.0226 13.8603 18.8077C15.6387 20.5864 15.9476 23.4099 15.9931 24.6602C14.7476 24.6167 11.9276 24.311 10.1422 22.5258Z" fill="#B7B5B3"/>
</svg>
