<svg width="40" height="40" viewBox="0 0 40 40" fill="none" xmlns="http://www.w3.org/2000/svg">
<path d="M19.9987 0C10.8086 0 3.33203 7.47984 3.33203 16.6738C3.33203 25.7799 11.5664 34.3646 16.4746 38.6712C17.4515 39.528 18.7031 40 19.9987 40C21.2942 40 22.5459 39.528 23.5227 38.6709C28.4309 34.3646 36.6653 25.78 36.6653 16.6738C36.6653 7.47984 29.1887 0 19.9987 0ZM22.6432 37.6686C21.9098 38.3121 20.9707 38.6666 19.9987 38.6666C19.0266 38.6666 18.0876 38.3122 17.3541 37.6689C12.6152 33.5111 4.66531 25.2545 4.66531 16.6738C4.66531 8.21516 11.5439 1.33336 19.9987 1.33336C28.4534 1.33336 35.332 8.21516 35.332 16.6738C35.332 25.2545 27.3821 33.5111 22.6432 37.6686Z" fill="#EB194A"/>
<path d="M33.3245 15.9696C33.306 15.6311 33.0341 15.3602 32.6956 15.3407C32.6956 15.3407 32.5703 15.3335 32.3486 15.3335C31.2649 15.3335 27.5461 15.5162 25.1965 17.8651C22.4436 20.6183 22.6614 25.1717 22.6722 25.3641C22.6911 25.7026 22.9626 25.9735 23.3011 25.993C23.3011 25.993 23.4264 26.0002 23.6487 26.0002C24.7327 26.0002 28.4508 25.8176 30.8001 23.4687C33.5527 20.7154 33.3349 16.1623 33.3245 15.9696ZM29.8574 22.5259C28.0719 24.3114 25.2519 24.6168 24.0061 24.6604C24.0521 23.4104 24.3607 20.5868 26.1393 18.8079C27.9247 17.023 30.7441 16.717 31.9902 16.6734C31.9446 17.9237 31.6357 20.7473 29.8574 22.5259Z" fill="#EB194A"/>
<path d="M7.64905 15.3335C7.42733 15.3335 7.30202 15.3407 7.30202 15.3407C6.96351 15.3602 6.69202 15.6308 6.67311 15.9696C6.66241 16.1619 6.4446 20.7154 9.19757 23.4687C11.5469 25.8176 15.2653 26.0002 16.3489 26.0002C16.5712 26.0002 16.6966 25.993 16.6966 25.993C17.0351 25.9735 17.3069 25.7026 17.3255 25.3641C17.3358 25.1714 17.5537 20.6183 14.801 17.8651C12.4515 15.5161 8.73272 15.3335 7.64905 15.3335ZM10.1402 22.5258C8.36186 20.7472 8.05296 17.9237 8.0071 16.6733C9.25319 16.7169 12.0729 17.0226 13.8583 18.8077C15.6367 20.5864 15.9456 23.4099 15.9912 24.6602C14.7457 24.6167 11.9257 24.311 10.1402 22.5258Z" fill="#EB194A"/>
</svg>
