<svg width="50" height="50" viewBox="0 0 50 50" fill="none" xmlns="http://www.w3.org/2000/svg">
<path d="M34.4563 19.1376C33.4879 18.7847 32.4642 18.6076 31.4334 18.6147C28.1001 18.6147 25.7459 20.2939 25.7293 22.7043C25.7084 24.4751 27.4022 25.473 28.6834 26.0647C29.998 26.673 30.4376 27.0564 30.4334 27.6001C30.4251 28.4272 29.3834 28.8022 28.4147 28.8022C27.0834 28.8022 26.3563 28.6168 25.2376 28.1522L24.823 27.9585L24.3501 30.7335C25.1605 31.071 26.6209 31.3605 28.1293 31.3855C31.673 31.3855 33.9897 29.7168 34.0168 27.1522C34.0459 25.7376 33.1293 24.6689 31.2001 23.7855C30.0272 23.2126 29.3001 22.8293 29.3001 22.248C29.3001 21.7335 29.923 21.1835 31.2251 21.1835C32.0917 21.1625 32.9529 21.3251 33.7522 21.6605L34.0647 21.8001L34.5376 19.1189L34.4563 19.1376ZM43.1063 18.8397H40.5022C39.6918 18.8397 39.0813 19.0626 38.7272 19.8668L33.7188 31.2126H37.2626L37.9709 29.3522L42.2959 29.3564C42.398 29.7918 42.7105 31.2126 42.7105 31.2126H45.8355L43.1063 18.8397ZM20.9355 18.7355H24.3126L22.2001 31.1147H18.8272L20.9355 18.7314V18.7355ZM12.3626 25.5585L12.7126 27.2772L16.0126 18.8397H19.5897L14.2751 31.196H10.7063L7.78968 20.7335C7.74244 20.5609 7.6315 20.4128 7.47926 20.3189C6.42802 19.7758 5.31415 19.3637 4.1626 19.0918L4.20843 18.8314H9.64385C10.3813 18.8605 10.9751 19.0918 11.173 19.8793L12.3605 25.5647V25.5585H12.3626ZM38.9397 26.821L40.2855 23.3585C40.2688 23.396 40.5626 22.6439 40.7334 22.1793L40.9647 23.248L41.7459 26.8189H38.9376V26.821H38.9397Z" fill="white"/>
</svg>
