<svg width="500" height="78" viewBox="0 0 500 78" fill="none" xmlns="http://www.w3.org/2000/svg">
<g clip-path="url(#clip0)">
<path d="M6.51318 8.54709C10.9277 2.84903 18.6349 0 29.635 0C40.635 0 48.3061 2.84903 52.6482 8.54709C56.9903 14.173 59.1614 24.2348 59.1614 38.7324C59.1614 53.23 56.9903 63.3278 52.6482 69.0259C48.3061 74.6518 40.635 77.4648 29.635 77.4648C18.6349 77.4648 10.9277 74.6518 6.51318 69.0259C2.17106 63.3278 0 53.23 0 38.7324C0 24.2348 2.17106 14.173 6.51318 8.54709ZM44.941 15.1467C42.1186 10.747 37.0166 8.54709 29.635 8.54709C22.2534 8.54709 17.1514 10.747 14.329 15.1467C11.5066 19.4744 10.0954 27.3363 10.0954 38.7324C10.0954 50.1285 11.5066 58.0265 14.329 62.4262C17.1514 66.7539 22.2534 68.9177 29.635 68.9177C37.0166 68.9177 42.1186 66.7539 44.941 62.4262C47.7633 58.0265 49.1745 50.1285 49.1745 38.7324C49.1745 27.3363 47.7633 19.4744 44.941 15.1467Z" fill="#1FC935"/>
<path d="M75.332 76.0582V1.40634C81.411 0.757191 89.9867 0.432617 101.059 0.432617C110.178 0.432617 116.474 2.09155 119.948 5.40941C123.421 8.65514 125.158 14.786 125.158 23.8019C125.158 32.8179 123.458 38.9847 120.056 42.3026C116.727 45.5483 110.757 47.1712 102.145 47.1712C96.2104 47.1712 90.4571 46.8466 84.8847 46.1975V76.0582H75.332ZM84.8847 38.9487H100.951C106.523 38.8765 110.323 37.8307 112.349 35.8111C114.448 33.7194 115.497 29.7164 115.497 23.8019C115.497 17.8875 114.448 13.8844 112.349 11.7927C110.25 9.70099 106.451 8.65514 100.951 8.65514C93.0624 8.65514 87.7071 8.69121 84.8847 8.76333V38.9487Z" fill="#1FC935"/>
<path d="M184.845 68.1605L185.28 75.5174C178.622 75.9502 167.911 76.1665 153.148 76.1665C148.734 76.1665 145.224 75.0126 142.618 72.7045C140.085 70.3242 138.783 67.1507 138.71 63.1837V14.2812C138.783 10.3142 140.085 7.17672 142.618 4.86864C145.224 2.48844 148.734 1.29834 153.148 1.29834C167.911 1.29834 178.622 1.51472 185.28 1.94748L184.845 9.41267H154.776C150.434 9.41267 148.263 11.7928 148.263 16.5532V32.7819H180.612V40.4635H148.263V60.9116C148.263 65.7441 150.434 68.1605 154.776 68.1605H184.845Z" fill="#1FC935"/>
<path d="M257.746 1.40625V72.2714C257.746 74.7959 256.516 76.0581 254.056 76.0581H244.72C242.766 76.0581 241.355 75.0483 240.487 73.0288L215.194 20.1233C212.733 14.7859 211.322 11.5041 210.96 10.2779H209.223C209.513 13.163 209.657 16.4448 209.657 20.1233V76.0581H200.105V5.19294C200.105 2.66848 201.371 1.40625 203.904 1.40625H212.914C214.868 1.40625 216.279 2.41603 217.148 4.4356L241.681 56.0428C243.49 59.577 245.191 63.1834 246.783 66.8619H248.628C248.411 62.967 248.302 59.1803 248.302 55.5018V1.40625H257.746Z" fill="#1FC935"/>
<path d="M321.438 68.3218V75.7868H276.761V68.3218L310.703 30.6723H277.086V23.0991H321.113V30.6723L287.063 68.3218H321.438Z" fill="white"/>
<path d="M335.51 30.9972L334.642 24.1814C344.33 22.5946 352.824 21.8013 360.126 21.8013C366.271 21.8013 370.825 23.0995 373.789 25.696C376.753 28.2204 378.235 32.5479 378.235 38.6786V75.7872H370.97L369.885 67.1321C367.355 69.6565 364.174 71.8924 360.343 73.8398C356.583 75.7872 352.499 76.7609 348.089 76.7609C343.245 76.7609 339.378 75.4987 336.486 72.9743C333.666 70.3778 332.257 66.7354 332.257 62.0473V56.3133C332.257 52.2021 333.522 49.0286 336.052 46.7927C338.655 44.4847 342.269 43.3307 346.896 43.3307H368.909V38.6786C368.909 35.3608 368.15 33.0168 366.632 31.6464C365.114 30.276 362.295 29.5908 358.174 29.5908C352.969 29.5908 345.414 30.0596 335.51 30.9972ZM341.691 57.6116V60.9654C341.691 63.7062 342.342 65.7257 343.643 67.0239C344.944 68.2501 347.041 68.8631 349.932 68.8631C352.68 68.9353 355.788 68.2861 359.258 66.9158C362.801 65.5454 366.018 63.5619 368.909 60.9654V50.3629H348.523C346.065 50.4351 344.294 51.0842 343.209 52.3103C342.197 53.5365 341.691 55.3035 341.691 57.6116Z" fill="white"/>
<path d="M397.519 0.70459H401.857C403.736 0.70459 404.676 1.64222 404.676 3.51748V9.68421C404.676 11.5594 403.736 12.4971 401.857 12.4971H397.519C395.639 12.4971 394.7 11.5594 394.7 9.68421V3.51748C394.7 1.64222 395.639 0.70459 397.519 0.70459ZM404.242 75.7872H395.133V23.0995H404.242V75.7872Z" fill="white"/>
<path d="M429.189 23.0995L429.731 31.43C437.177 25.0108 444.37 21.8013 451.311 21.8013C458.684 21.8013 463.13 24.9026 464.649 31.1054C471.806 24.9026 478.89 21.8013 485.903 21.8013C490.457 21.8013 493.928 23.0274 496.313 25.4796C498.771 27.9319 500 31.5382 500 36.2985V75.7872H490.891V38.895C490.819 35.6493 490.132 33.3053 488.831 31.8628C487.602 30.3481 485.541 29.5908 482.65 29.5908C480.119 29.5908 477.661 30.1678 475.276 31.3218C472.962 32.4758 469.637 34.6396 465.299 37.8131V75.7872H456.407V38.895C456.407 35.5772 455.72 33.1971 454.347 31.7546C453.046 30.3121 450.985 29.5908 448.166 29.5908C445.635 29.5908 443.177 30.1678 440.792 31.3218C438.478 32.4758 435.153 34.6035 430.815 37.7049V75.7872H421.598V23.0995H429.189Z" fill="white"/>
</g>
<defs>
<clipPath id="clip0">
<rect width="500" height="78" fill="white"/>
</clipPath>
</defs>
</svg>
