<?xml version="1.0" encoding="utf-8"?>
<svg version="1.1" xmlns="http://www.w3.org/2000/svg" xmlns:xlink="http://www.w3.org/1999/xlink">
    <symbol viewBox="0 0 48 41.53" id="ic-card" xmlns="http://www.w3.org/2000/svg">
      <path d="M47.0974 13.9309L26.4017 34.6262C26.1351 34.8928 25.7026 34.8928 25.436 34.6262L13.3738 22.564C13.1072 22.2974 13.1072 21.8649 13.3738 21.5983L34.0691 0.902588C34.3361 0.635986 34.7686 0.635986 35.0352 0.902588L47.0974 12.9648C47.364 13.2318 47.364 13.6639 47.0974 13.9309Z" fill="#FFC943"/>
      <path d="M47.0969 12.9644L43.8333 9.70068L22.1719 31.3621L25.4355 34.6257C25.7021 34.8923 26.1346 34.8923 26.4012 34.6257L47.0969 13.9304C47.3635 13.6635 47.3635 13.2313 47.0969 12.9644Z" fill="#FFAA16"/>
      <path d="M21.1309 30.3207L42.7919 8.65967L45.4271 11.2949L23.7661 32.9559L21.1309 30.3207Z" fill="#00A97D"/>
      <path d="M22.1719 31.3617L43.8329 9.70068L45.4266 11.2944L23.7656 32.9554L22.1719 31.3617Z" fill="#00C395"/>
      <path d="M25.442 27.8666L32.1799 21.1287C32.9563 20.3523 33.2866 19.4236 32.5099 18.6469C31.2864 17.1271 26.819 18.3458 24.6997 20.4651C23.6721 21.4927 22.5054 22.6594 21.8623 23.3029C21.5477 23.6178 21.1211 23.7947 20.6703 23.7947H20.6472C19.9038 23.7947 19.033 23.0747 18.8414 22.3566L18.8411 16.1303L19.9525 15.0184L21.1742 13.7971L26.0261 8.9452C24.0299 8.72181 22.045 8.6006 21.2753 8.50831C20.4191 8.40577 19.6888 8.78956 19.0249 9.33888L12.8136 14.2391C11.9369 14.9642 11.3052 15.9413 11.0023 17.0381C10.3245 19.4943 8.89624 23.839 7.9895 25.5668L3.46094 30.0953L11.3011 37.9352L13.4816 35.7548C13.8914 35.345 14.3982 35.0454 14.9548 34.8843L19.5087 33.3506C20.9395 32.8599 22.1985 31.9682 23.1367 30.7816L25.442 27.8666Z" fill="white"/>
      <path d="M23.1372 30.7815L25.4425 27.8665L32.1804 21.1286C32.9568 20.3518 33.2871 19.4231 32.5104 18.6467C32.0607 18.0879 31.1726 17.8997 30.1238 17.9898C28.5879 18.122 27.1564 18.824 26.0662 19.9142L21.7782 24.2022L19.4733 27.1172C18.535 28.3037 17.2756 29.1954 15.8452 29.6862L11.291 31.2195C10.7344 31.381 10.2279 31.6806 9.81811 32.0903L7.6377 34.2708L11.3016 37.9351L13.4821 35.7547C13.8918 35.3449 14.3987 35.0453 14.9553 34.8838L19.5092 33.3505C20.9399 32.8598 22.1993 31.968 23.1372 30.7815Z" fill="#E2EBF9"/>
      <path d="M10.0285 40.4439L0.954559 31.3696C0.618011 31.0334 0.618011 30.4881 0.954559 30.1519L2.55124 28.5549C2.88742 28.2187 3.43271 28.2187 3.76926 28.5549L12.8432 37.6292C13.1798 37.9654 13.1798 38.5107 12.8432 38.8469L11.2466 40.4439C10.9104 40.7801 10.3651 40.7801 10.0285 40.4439Z" fill="#5DE1C0"/>
      <path d="M12.8445 37.6294L9.76685 34.5518L6.95215 37.3665L10.0298 40.4441C10.3663 40.7803 10.9116 40.7803 11.2478 40.4441L12.8445 38.847C13.181 38.5109 13.181 37.9656 12.8445 37.6294Z" fill="#00C395"/>
      <path d="M31.9135 20.9188C31.0192 20.0245 29.5694 20.0245 28.6751 20.9188L27.6577 21.9361C27.1974 22.3964 27.1974 23.1428 27.6577 23.6031L28.6817 24.627L32.1515 21.1568L31.9135 20.9188Z" fill="#C1C8D2"/>
      <path d="M33.3302 8.0925C32.6391 7.40146 31.5189 7.40146 30.8279 8.0925C30.1368 8.78317 30.1368 9.90378 30.8279 10.5948C31.5189 11.2855 32.6391 11.2855 33.3302 10.5948C34.0212 9.90378 34.0212 8.78317 33.3302 8.0925Z" fill="#F3E8D7"/>
      <path d="M34.9845 6.43918C34.2934 5.74814 33.1732 5.74814 32.4821 6.43918C31.7911 7.13022 31.7911 8.25046 32.4821 8.9415C33.1732 9.63254 34.2934 9.63254 34.9845 8.9415C35.6755 8.25046 35.6755 7.13022 34.9845 6.43918Z" fill="#F3E8D7"/>
      <path d="M33.3302 8.0925C32.6391 7.40146 31.5189 7.40146 30.8279 8.0925C30.1368 8.78317 30.1368 9.90378 30.8279 10.5948C31.5189 11.2855 32.6391 11.2855 33.3302 10.5948C34.0212 9.90378 34.0212 8.78317 33.3302 8.0925Z" fill="white"/>
      <path d="M34.9845 6.43918C34.2934 5.74814 33.1732 5.74814 32.4821 6.43918C31.7911 7.13022 31.7911 8.25046 32.4821 8.9415C33.1732 9.63254 34.2934 9.63254 34.9845 8.9415C35.6755 8.25046 35.6755 7.13022 34.9845 6.43918Z" fill="#FF8125"/>
      <path d="M47.5939 12.4673L35.532 0.405396C34.9915 -0.135132 34.1122 -0.135132 33.5717 0.405396L27.8837 6.09302C27.609 6.36804 27.609 6.81299 27.8837 7.08765C28.1583 7.36194 28.6033 7.3623 28.8779 7.08765L34.5516 1.41394L46.5853 13.4476L25.9186 34.1144L23.384 31.5798C23.488 31.4619 23.5906 31.3418 23.6884 31.2177L25.968 28.3348L32.677 21.6259C33.8405 20.4624 33.9749 19.1437 33.033 18.1754C32.5807 17.6356 31.8428 17.3236 30.8958 17.2727C28.7688 17.1584 25.8281 18.342 24.2025 19.9677C23.1749 20.9952 22.0082 22.1624 21.3647 22.8058C21.1809 22.99 20.9341 23.0914 20.6704 23.0914H20.647C20.2581 23.0914 19.7018 22.6564 19.5443 22.2477L19.5439 16.4213L26.5228 9.44238C26.714 9.25122 26.7788 8.96777 26.6895 8.71252C26.6001 8.45764 26.3727 8.27637 26.1042 8.24634C24.9174 8.1134 23.7499 8.01782 22.812 7.94055C22.1693 7.88782 21.6617 7.84644 21.3585 7.81018C20.4265 7.69849 19.5187 8.01929 18.583 8.79163L12.3779 13.6868C12.3739 13.6901 12.3695 13.6937 12.3655 13.697C11.3734 14.5177 10.6677 15.6083 10.3246 16.8508C9.68115 19.1814 8.29065 23.4203 7.41467 25.1466L4.38538 28.1763L4.26672 28.0576C3.97156 27.7625 3.57861 27.5995 3.16077 27.5995C2.74292 27.5995 2.35034 27.7625 2.05481 28.0576L0.45813 29.6547C0.162598 29.9502 0 30.3431 0 30.761C0 31.1785 0.162598 31.5714 0.45813 31.8669L9.53247 40.9413C9.82764 41.2365 10.2206 41.3994 10.6384 41.3994C11.0563 41.3994 11.4489 41.2368 11.7444 40.9413L13.3414 39.3442C13.637 39.0491 13.7996 38.6561 13.7996 38.2383C13.7996 37.8204 13.637 37.4275 13.3414 37.132L13.2202 37.0107L13.979 36.252C14.3038 35.9268 14.7092 35.6873 15.1505 35.5594C15.1604 35.5565 15.1699 35.5536 15.1794 35.5503L19.7369 34.0155C20.7004 33.6848 21.5896 33.1893 22.3696 32.5547L24.9382 35.1229C25.2001 35.3848 25.5483 35.5291 25.9186 35.5291C26.2888 35.5291 26.6371 35.3848 26.8986 35.1233L47.5939 14.4276C47.8557 14.1661 48 13.8179 48 13.4476C48 13.0774 47.8557 12.7295 47.5939 12.4673ZM12.3472 38.35L10.7501 39.9467C10.6886 40.0085 10.5883 40.0082 10.5267 39.9467L1.45239 30.8723C1.41431 30.8342 1.40625 30.7906 1.40625 30.761C1.40625 30.731 1.41431 30.6874 1.45239 30.6493L3.04944 29.0522C3.0802 29.0215 3.12048 29.0061 3.16113 29.0061C3.20142 29.0061 3.24207 29.0215 3.27283 29.0522L12.3472 38.1266C12.3853 38.165 12.3933 38.2086 12.3933 38.2383C12.3933 38.2679 12.3853 38.3115 12.3472 38.35ZM19.2843 32.6843L14.744 34.2133C14.0812 34.4081 13.4733 34.7688 12.9844 35.2577L12.2256 36.0165L5.38 29.1709L8.48694 26.064C8.53711 26.0134 8.57922 25.9563 8.61218 25.8933C9.54163 24.1219 10.9911 19.7208 11.6803 17.2251C11.9454 16.2645 12.4904 15.4211 13.2557 14.7858L19.4604 9.89099C19.4645 9.8877 19.4689 9.88403 19.4729 9.88074C20.1156 9.349 20.6455 9.14026 21.1915 9.20654C21.5208 9.24573 22.04 9.28857 22.697 9.34241C23.2306 9.38599 23.8392 9.43616 24.4816 9.49548L18.3435 15.6332C18.2117 15.765 18.1377 15.9441 18.1377 16.1305L18.1381 22.3568C18.1381 22.4176 18.1461 22.4788 18.1619 22.5377C18.4406 23.5818 19.6018 24.4977 20.647 24.4977H20.6704C21.3098 24.4977 21.9097 24.2498 22.3594 23.8C23.0024 23.1566 24.1692 21.9895 25.1968 20.9623C26.5507 19.6084 29.0746 18.5819 30.8199 18.6771C31.3671 18.7064 31.7725 18.8525 31.9622 19.088C31.9779 19.1074 31.9948 19.1265 32.0127 19.144C32.1709 19.3022 32.5913 19.723 31.6827 20.6316L24.9445 27.3695C24.9254 27.3889 24.9071 27.4091 24.8903 27.4307L22.5853 30.3457C22.3766 30.6094 22.151 30.8566 21.91 31.0865C21.9078 31.0891 21.9049 31.0909 21.9027 31.0931C21.9009 31.095 21.8998 31.0968 21.8979 31.0986C21.1531 31.8069 20.2639 32.3481 19.2843 32.6843Z" fill="#434C54"/>
    </symbol>
    <symbol viewBox="0 0 48 48.34" id="ic-wallet" xmlns="http://www.w3.org/2000/svg">
      <path d="M45.223 21.5928L12.224 36.9068C11.7946 37.106 11.2846 36.9201 11.0847 36.4915L2.11546 17.2394C1.91554 16.8108 2.10178 16.3018 2.53118 16.1023L35.5302 0.78864C35.9596 0.589115 36.4696 0.774994 36.6691 1.20355L45.6387 20.4561C45.8387 20.8843 45.6524 21.3936 45.223 21.5928Z" fill="#00C395"/>
      <path d="M45.6389 20.4557L36.6693 1.20355C36.4697 0.774994 35.9598 0.589115 35.5304 0.78864L31.5771 2.62309L41.2696 23.4272L45.2232 21.5928C45.6526 21.3936 45.8388 20.8843 45.6389 20.4557Z" fill="#00A97D"/>
      <path d="M14.9918 33.0231C14.279 31.8182 12.8001 31.279 11.4769 31.7419C11.4022 31.7681 11.3198 31.7316 11.2862 31.66L5.94721 20.2C5.91395 20.1281 5.93908 20.0418 6.00707 20.0016C7.21469 19.2902 7.75458 17.8142 7.29082 16.4935C7.26458 16.419 7.30117 16.3368 7.37285 16.3032L32.5645 4.6127C32.6365 4.5795 32.723 4.60458 32.7633 4.67281C33.4761 5.87771 34.955 6.41654 36.2783 5.95368C36.3529 5.9275 36.4353 5.96401 36.4689 6.03556L41.8079 17.4956C41.8412 17.5675 41.816 17.6538 41.748 17.694C40.5408 18.4054 40.0005 19.8814 40.4643 21.2021C40.4905 21.2766 40.4539 21.3588 40.3823 21.3924L15.1906 33.0829C15.1186 33.1164 15.0321 33.091 14.9918 33.0231Z" fill="#76FFDA"/>
      <path d="M41.8071 17.4957L36.4677 6.03572C36.4345 5.96417 36.3521 5.92766 36.2774 5.95385C34.9542 6.4167 33.4753 5.87787 32.7625 4.67297C32.7218 4.60474 32.6353 4.5793 32.5637 4.61286L27.7871 6.8294C28.6847 7.84067 30.1532 8.21796 31.4565 7.69278L37.5013 20.6675C36.4105 21.2432 35.7716 22.3651 35.7645 23.5346L40.3811 21.3922C40.4531 21.359 40.4893 21.2767 40.4631 21.2022C39.9994 19.8815 40.5396 18.4056 41.7469 17.6941C41.8152 17.6539 41.8404 17.5676 41.8071 17.4957Z" fill="#5DE1C0"/>
      <path d="M29.5801 16.2027C28.1156 13.0594 24.3756 11.6959 21.2261 13.1575C18.0766 14.619 16.7104 18.3518 18.1745 21.4951C19.6389 24.6385 23.379 26.002 26.5285 24.5407C29.678 23.0792 31.0441 19.3461 29.5801 16.2027Z" fill="white"/>
      <path d="M19.4485 14.2873C19.4485 18.5577 15.9801 22.0193 11.7013 22.0193C7.42288 22.0193 3.9541 18.5577 3.9541 14.2873C3.9541 10.0172 7.42288 6.55518 11.7013 6.55518C15.9801 6.55518 19.4485 10.0172 19.4485 14.2873Z" fill="#FFC943"/>
      <path d="M11.7009 6.55518C10.7897 6.55518 9.91574 6.71376 9.10352 7.00217C12.1045 8.06803 14.2533 10.9267 14.2533 14.2873C14.2533 17.6482 12.1045 20.5065 9.10352 21.5727C9.91574 21.8611 10.7897 22.0193 11.7009 22.0193C15.9797 22.0193 19.4482 18.5577 19.4482 14.2873C19.4482 10.0172 15.9797 6.55518 11.7009 6.55518Z" fill="#FFAA16"/>
      <path d="M43.659 47.6322H2.86765C1.67591 47.6322 0.709961 46.6681 0.709961 45.4787V18.2628C0.709961 17.0734 1.67591 16.1094 2.86765 16.1094H43.659C44.8507 16.1094 45.8167 17.0734 45.8167 18.2628V45.4787C45.8167 46.6681 44.8507 47.6322 43.659 47.6322Z" fill="#FF914D"/>
      <path d="M43.6595 16.1094H40.7295V47.6322H43.6595C44.8512 47.6322 45.8172 46.6681 45.8172 45.4784V18.2628C45.8172 17.0734 44.8512 16.1094 43.6595 16.1094Z" fill="#FF8125"/>
      <path d="M46.2241 36.4522H37.7456C35.2102 36.4522 33.1553 34.4009 33.1553 31.8709C33.1553 29.3405 35.2106 27.2896 37.7456 27.2896H46.2241C46.8131 27.2896 47.2906 27.7661 47.2906 28.3539V35.3879C47.2906 35.9757 46.8131 36.4522 46.2241 36.4522Z" fill="#FFC943"/>
      <path d="M39.8421 31.8708C39.8421 33.0082 38.9183 33.9303 37.7787 33.9303C36.6387 33.9303 35.7148 33.0082 35.7148 31.8708C35.7148 30.7331 36.6387 29.811 37.7787 29.811C38.9183 29.811 39.8421 30.7331 39.8421 31.8708Z" fill="#F3E8D7"/>
      <path d="M46.2251 27.2891H40.7295V36.4521H46.2251C46.8142 36.4521 47.2916 35.9756 47.2916 35.3877V28.3538C47.2916 27.7659 46.8142 27.2891 46.2251 27.2891Z" fill="#FFAA16"/>
      <path d="M11.5512 14.0575V16.1095H12.1698V14.3134C12.7414 14.5579 13.1967 14.8843 13.1967 15.6179C13.1967 15.8049 13.1642 15.9679 13.1047 16.1095H14.3001C14.3404 15.9177 14.3633 15.7123 14.3633 15.4899C14.3633 13.9059 13.2547 13.3936 12.2396 13.0207V10.6567C13.0566 10.7149 13.36 11.0874 13.6398 11.0874C13.9901 11.0874 14.1534 10.6449 14.1534 10.4236C14.1534 9.85303 13.033 9.60851 12.2396 9.58528V9.27068C12.2396 9.13091 12.0648 9.00293 11.8897 9.00293C11.6912 9.00293 11.5512 9.13091 11.5512 9.27068V9.60851C10.4426 9.72506 9.33398 10.3074 9.33398 11.7745C9.33398 13.2653 10.501 13.6846 11.5512 14.0575ZM11.621 10.6799V12.7994C11.0028 12.5667 10.501 12.3218 10.501 11.6584C10.501 11.0524 10.9677 10.7614 11.621 10.6799Z" fill="#FF914D"/>
      <path d="M37.7451 26.5811C34.8229 26.5811 32.4453 28.954 32.4453 31.8709C32.4453 34.7874 34.8229 37.1603 37.7451 37.1603H46.2236C47.2029 37.1603 47.9996 36.3652 47.9996 35.3878V28.3539C47.9996 27.3766 47.2029 26.5814 46.2236 26.5814H37.7451V26.5811ZM46.5806 28.3539V35.3878C46.5806 35.5844 46.4206 35.7441 46.2236 35.7441H37.7451C35.6052 35.7441 33.8643 34.0067 33.8643 31.8705C33.8643 29.7347 35.6052 27.9973 37.7451 27.9973H46.2236C46.4206 27.9973 46.5806 28.1573 46.5806 28.3539Z" fill="#434C54"/>
      <path d="M2.86719 48.3405H43.6585C45.2394 48.3405 46.5257 47.0566 46.5257 45.4789V39.7469C46.5257 39.3559 46.2083 39.0387 45.8162 39.0387C45.4245 39.0387 45.1067 39.3559 45.1067 39.7469V42.8994H1.419V20.8425H45.1067V23.9998C45.1067 24.3908 45.4245 24.7079 45.8162 24.7079C46.2083 24.7079 46.5257 24.3908 46.5257 23.9998V18.263C46.5257 16.8283 45.4622 15.6367 44.0805 15.4324L37.3122 0.90539C37.136 0.526624 36.8222 0.238953 36.429 0.0958552C36.0362 -0.0476114 35.6105 -0.0295398 35.231 0.146751L17.6573 8.30222C16.1278 6.78568 14.0222 5.84706 11.7008 5.84706C7.03807 5.84706 3.24411 9.63362 3.24411 14.2872C3.24411 14.659 3.26997 15.0315 3.31949 15.4014H2.86719C1.28634 15.4014 0 16.6849 0 18.263V45.4785C0 47.0566 1.28634 48.3405 2.86719 48.3405ZM35.8293 1.43094C35.8751 1.40955 35.9161 1.41656 35.9424 1.42615C35.9686 1.43537 36.0045 1.45639 36.0255 1.50249L42.5012 15.4014H20.0832C20.0855 15.3841 20.0869 15.3668 20.0891 15.3498C20.0958 15.2974 20.1017 15.245 20.1076 15.1927C20.1113 15.1565 20.1154 15.1204 20.1191 15.0842C20.1243 15.03 20.1283 14.9754 20.1324 14.9209C20.135 14.8866 20.1379 14.8526 20.1401 14.8187C20.1438 14.7586 20.1468 14.6988 20.149 14.6387C20.1505 14.6103 20.152 14.5816 20.1531 14.5528C20.156 14.4643 20.1575 14.3758 20.1575 14.2872C20.1575 14.1888 20.1553 14.0903 20.152 13.9926C20.1512 13.9712 20.1505 13.9502 20.1494 13.9288C20.1409 13.7248 20.125 13.5231 20.1021 13.3232C20.101 13.3147 20.1002 13.3066 20.0991 13.2981C20.0104 12.5435 19.8216 11.8192 19.5467 11.1384C19.5411 11.1254 19.536 11.1122 19.5304 11.0993C19.4961 11.0152 19.4606 10.9315 19.4233 10.8488C19.4188 10.8389 19.4148 10.8286 19.41 10.8186C19.3745 10.7397 19.3368 10.6619 19.2987 10.584C19.2821 10.5501 19.2651 10.5162 19.2481 10.4826C19.2226 10.4325 19.1967 10.3827 19.1701 10.3336C19.1354 10.268 19.0995 10.2031 19.063 10.1385C19.0485 10.1131 19.0341 10.0876 19.0197 10.0625C18.8926 9.84384 18.7566 9.62956 18.6099 9.42192L35.8293 1.43094ZM11.7008 7.26328C14.4856 7.26328 16.8979 8.88641 18.0379 11.2339C18.053 11.2656 18.0671 11.2977 18.0819 11.3294C18.1125 11.395 18.1428 11.4607 18.1717 11.5271C18.1931 11.5776 18.213 11.6285 18.2334 11.679C18.2533 11.7281 18.2733 11.7771 18.2918 11.8266C18.3139 11.8856 18.3342 11.9446 18.3546 12.004C18.3694 12.0467 18.3845 12.0895 18.3985 12.133C18.4189 12.1957 18.4377 12.2592 18.4562 12.3226C18.4684 12.3639 18.4802 12.4052 18.4917 12.4465C18.509 12.5111 18.5257 12.5756 18.5412 12.6405C18.5515 12.6833 18.5615 12.7257 18.5707 12.7685C18.5852 12.8323 18.5985 12.8965 18.611 12.9606C18.6199 13.0071 18.628 13.0536 18.6358 13.1001C18.6465 13.1616 18.6568 13.2229 18.6657 13.2845C18.6731 13.3376 18.6798 13.391 18.686 13.4445C18.6927 13.5006 18.7001 13.5566 18.7053 13.6131C18.7119 13.6791 18.716 13.7455 18.7208 13.8119C18.7237 13.8568 18.7278 13.9018 18.73 13.9472C18.7352 14.0597 18.7385 14.1733 18.7385 14.2872C18.7385 14.371 18.7367 14.4547 18.7333 14.538C18.7326 14.5627 18.7315 14.5875 18.7304 14.6122C18.7274 14.6745 18.7234 14.7368 18.7189 14.7995C18.7171 14.8235 18.7156 14.8475 18.7134 14.8718C18.7067 14.9552 18.6986 15.0385 18.6883 15.1219C18.6879 15.1263 18.6871 15.1307 18.6868 15.1355C18.6768 15.2144 18.6657 15.293 18.6535 15.3715C18.6517 15.3815 18.6502 15.3915 18.6483 15.4014H4.7529C4.6934 15.0322 4.6631 14.6594 4.6631 14.2876C4.6631 10.4144 7.82037 7.26328 11.7008 7.26328ZM1.419 18.263C1.419 17.466 2.06863 16.8176 2.86719 16.8176H43.6585C44.4571 16.8176 45.1067 17.466 45.1067 18.263V19.4262H1.419V18.263ZM1.419 44.3157H45.1067V45.4789C45.1067 46.2759 44.4571 46.9242 43.6585 46.9242H2.86719C2.06863 46.9242 1.419 46.2759 1.419 45.4789V44.3157Z" fill="#434C54"/>
    </symbol>
    <symbol viewBox="0 0 48 31.21" id="ic-cash" xmlns="http://www.w3.org/2000/svg">
      <path d="M40.8864 30.5083H1.40149C1.01587 30.5083 0.703125 30.1956 0.703125 29.8099V6.54456C0.703125 6.15894 1.01587 5.84619 1.40149 5.84619H40.8864C41.272 5.84619 41.5847 6.15894 41.5847 6.54456V29.8099C41.5847 30.1956 41.272 30.5083 40.8864 30.5083Z" fill="#00C395"/>
      <path d="M40.8864 5.84619H1.40149C1.01587 5.84619 0.703125 6.15894 0.703125 6.54456V29.2075H41.5847V6.54456C41.5847 6.15894 41.272 5.84619 40.8864 5.84619Z" fill="#00A97D"/>
      <path d="M43.6495 28.0299H4.16431C3.77869 28.0299 3.46631 27.7175 3.46631 27.3319V4.06653C3.46631 3.68091 3.77869 3.36816 4.16431 3.36816H43.6495C44.0352 3.36816 44.3475 3.68091 44.3475 4.06653V27.3319C44.3475 27.7175 44.0352 28.0299 43.6495 28.0299Z" fill="#00C395"/>
      <path d="M43.6495 3.36816H4.16431C3.77869 3.36816 3.46631 3.68054 3.46631 4.06653V26.624H44.3475V4.06653C44.3475 3.68054 44.0352 3.36816 43.6495 3.36816Z" fill="#00A97D"/>
      <path d="M46.5988 25.3652H7.11389C6.72827 25.3652 6.41553 25.0525 6.41553 24.6669V1.40149C6.41553 1.01587 6.72827 0.703125 7.11389 0.703125H46.5988C46.9844 0.703125 47.2971 1.01587 47.2971 1.40149V24.6669C47.2971 25.0525 46.9844 25.3652 46.5988 25.3652Z" fill="#00C395"/>
      <path d="M46.5989 0.703125H42.2476V25.3652H46.5989C46.9845 25.3652 47.2972 25.0525 47.2972 24.6669V1.40149C47.2972 1.01587 46.9845 0.703125 46.5989 0.703125Z" fill="#00A97D"/>
      <path d="M11.7875 22.8317C11.6399 21.3346 10.4457 20.1404 8.94861 19.9928C8.86401 19.9844 8.80029 19.9119 8.80029 19.8269V6.24194C8.80029 6.15698 8.86401 6.08411 8.94861 6.07605C10.4457 5.92847 11.6399 4.73425 11.7875 3.23718C11.7955 3.15259 11.8684 3.08887 11.9534 3.08887H41.7578C41.8428 3.08887 41.9156 3.15259 41.9241 3.23718C42.0717 4.73389 43.2659 5.92847 44.7626 6.07605C44.8475 6.08411 44.9109 6.15698 44.9109 6.24194V19.8269C44.9109 19.9119 44.8475 19.9847 44.7626 19.9932C43.2659 20.1404 42.0717 21.3346 41.9241 22.8317C41.9156 22.9163 41.8428 22.98 41.7578 22.98H11.9534C11.8684 22.98 11.7955 22.9163 11.7875 22.8317Z" fill="#76FFDA"/>
      <path d="M44.7633 6.07568C43.2666 5.92847 42.072 4.73389 41.9244 3.23718C41.9164 3.15222 41.8435 3.08887 41.7585 3.08887H39.7554V22.98H41.7585C41.8435 22.98 41.9164 22.9163 41.9244 22.8317C42.072 21.3346 43.2662 20.1404 44.7633 19.9928C44.8479 19.9844 44.9116 19.9119 44.9116 19.8269V6.24194C44.9116 6.15698 44.8479 6.08411 44.7633 6.07568Z" fill="#5DE1C0"/>
      <path d="M33.6028 13.0343C33.6028 16.7605 30.5823 19.781 26.8561 19.781C23.1299 19.781 20.1094 16.7605 20.1094 13.0343C20.1094 9.3081 23.1299 6.2876 26.8561 6.2876C30.5823 6.2876 33.6028 9.3081 33.6028 13.0343Z" fill="white"/>
      <path d="M26.856 6.2876C25.9426 6.2876 25.0721 6.46997 24.2778 6.79883C26.7245 7.8114 28.4464 10.2214 28.4464 13.0343C28.4464 15.8468 26.7245 18.2568 24.2778 19.2694C25.0721 19.5986 25.9426 19.7806 26.856 19.7806C30.5822 19.7806 33.6027 16.7601 33.6027 13.0339C33.6027 9.3081 30.5822 6.2876 26.856 6.2876Z" fill="#E2EBF9"/>
      <path d="M46.5985 0H7.11365C6.34094 0 5.71216 0.628784 5.71216 1.40149V2.66528H4.16382C3.39111 2.66528 2.7627 3.2937 2.7627 4.06641V5.14307H1.40149C0.628784 5.14307 0 5.77185 0 6.54456V29.8099C0 30.5826 0.628784 31.2114 1.40149 31.2114H40.8864C41.6591 31.2114 42.2878 30.5826 42.2878 29.8099V28.7336H43.649C44.4214 28.7336 45.0502 28.1049 45.0502 27.3322V26.0684H46.5985C47.3712 26.0684 48 25.4399 48 24.6672V1.40149C48 0.628784 47.3712 0 46.5985 0V0ZM40.8864 29.8052L1.40625 29.8099L1.40149 6.54932H2.7627V27.3322C2.7627 28.1049 3.39111 28.7336 4.16382 28.7336H40.8834L40.8864 29.8052ZM43.649 27.327L4.16895 27.3322L4.16382 4.07153H5.71216V24.6669C5.71216 25.4396 6.34094 26.0684 7.11365 26.0684H43.6458L43.649 27.327ZM7.11841 24.6669L7.11365 1.40625L46.5938 1.40149L46.5989 24.6621L7.11841 24.6669Z" fill="#434C54"/>
      <path d="M26.6782 16.4384C25.3448 16.4167 24.4414 15.696 24.4414 15.1691C24.4414 14.9109 24.667 14.556 24.9362 14.556C25.291 14.556 25.5814 15.309 26.6782 15.395V12.8674C25.7103 12.5232 24.6348 12.1361 24.6348 10.7595C24.6348 9.40454 25.6565 8.86658 26.6782 8.75928V8.44727C26.6782 8.31799 26.8075 8.19971 26.9902 8.19971C27.1517 8.19971 27.3129 8.31799 27.3129 8.44727V8.73767C28.0442 8.75928 29.0765 8.98523 29.0765 9.51221C29.0765 9.71655 28.926 10.1249 28.6034 10.1249C28.3452 10.1249 28.0658 9.78101 27.3129 9.72717V11.9102C28.2485 12.2544 29.2703 12.7279 29.2703 14.1906C29.2703 15.5133 28.4745 16.2446 27.3129 16.4061V16.7716C27.3129 16.9009 27.1514 17.0192 26.9902 17.0192C26.8075 17.0192 26.6782 16.9009 26.6782 16.7716V16.4384ZM26.743 11.7058V9.74841C26.1406 9.82385 25.7103 10.0927 25.7103 10.6519C25.7103 11.2649 26.1729 11.4908 26.743 11.7058ZM27.2484 13.104V15.3734C27.8292 15.2657 28.1947 14.9215 28.1947 14.3085C28.1947 13.631 27.7754 13.33 27.2484 13.104Z" fill="#5DE1C0"/>
    </symbol>
</svg>
