<svg width="41" height="40" viewBox="0 0 41 40" fill="none" xmlns="http://www.w3.org/2000/svg">
<g clip-path="url(#clip0)">
<path d="M20.002 0C8.97414 0 0.00195312 8.85413 0.00195312 19.7368C0.00195312 30.6196 8.97414 39.4737 20.002 39.4737C25.3445 39.4737 30.3666 37.421 34.1442 33.693C34.4698 33.3718 34.4698 32.8514 34.1442 32.5302C33.8187 32.2089 33.2913 32.2089 32.9659 32.5302C29.5031 35.9473 24.8995 37.829 20.002 37.829C9.89289 37.829 1.66859 29.7129 1.66859 19.7368C1.66859 9.76079 9.89289 1.64471 20.002 1.64471C30.111 1.64471 38.3353 9.76079 38.3353 19.7368V21.3816C38.3353 24.1025 36.0925 26.3158 33.3353 26.3158C30.5781 26.3158 28.3353 24.1025 28.3353 21.3816V13.9802C28.3353 13.5257 27.9626 13.1578 27.502 13.1578C27.0413 13.1578 26.6686 13.5257 26.6686 13.9802V14.8535C25.1482 12.8384 22.7374 11.5131 20.002 11.5131C15.4072 11.5131 11.6686 15.2025 11.6686 19.7368C11.6686 24.2711 15.4073 27.9606 20.002 27.9606C23.0667 27.9606 25.7212 26.3007 27.1687 23.8618C28.1638 26.262 30.5492 27.9606 33.3352 27.9606C37.0112 27.9606 40.0019 25.0092 40.0019 21.3816V19.7368C40.002 8.85413 31.0298 0 20.002 0ZM20.002 26.3158C16.326 26.3158 13.3353 23.3644 13.3353 19.7368C13.3353 16.1093 16.326 13.1579 20.002 13.1579C23.6779 13.1579 26.6686 16.1093 26.6686 19.7368C26.6686 23.3644 23.6779 26.3158 20.002 26.3158Z" />
</g>
<defs>
<clipPath id="clip0">
<rect x="0.00195312" width="40" height="40" fill="white"/>
</clipPath>
</defs>
</svg>
