<svg width="40" height="40" viewBox="0 0 40 40" fill="none" xmlns="http://www.w3.org/2000/svg">
<g clip-path="url(#clip0)">
<path d="M38.0469 34.7508H37.551V25.0749C37.551 24.7513 37.2887 24.489 36.9651 24.489C36.6414 24.489 36.3791 24.7513 36.3791 25.0749V34.7509H23.9491V18.8227H35.9003C36.1644 18.8227 36.3792 19.0376 36.3792 19.3016V22.3145C36.3792 22.6381 36.6415 22.9004 36.9652 22.9004C37.2888 22.9004 37.5511 22.6381 37.5511 22.3145V19.3016C37.5511 18.3913 36.8105 17.6509 35.9003 17.6509H23.9491V7.0029C23.9491 6.15032 23.2858 5.43024 22.4373 5.35845V4.18306C22.4373 3.32712 21.7688 2.60423 20.9155 2.53735L5.74047 1.34798C4.78227 1.27227 3.96078 2.0322 3.96078 2.99368V3.93204C3.0918 4.00626 2.44898 4.73313 2.44898 5.57657V34.7507H1.95312C0.876172 34.7507 0 35.6269 0 36.7038C0 37.7808 0.876172 38.657 1.95312 38.657H38.0469C39.1238 38.657 40 37.7808 40 36.7038C40 35.6269 39.1238 34.7508 38.0469 34.7508ZM5.13266 2.99376C5.13266 2.71313 5.37148 2.49438 5.64898 2.51634L20.824 3.70563C21.0715 3.72509 21.2654 3.93477 21.2654 4.18306V5.2661L5.13258 4.00173V2.99376H5.13266ZM3.62086 5.57665C3.62086 5.29376 3.86281 5.07673 4.13711 5.09923L22.3357 6.52548C22.5833 6.54493 22.7772 6.75462 22.7772 7.0029V34.7508H21.1399V26.3617C21.1399 25.8284 20.7061 25.3946 20.1728 25.3946H14.7291C14.1958 25.3946 13.762 25.8284 13.762 26.3617V30.1627C13.762 30.4863 14.0243 30.7487 14.3479 30.7487C14.6715 30.7487 14.9338 30.4863 14.9338 30.1627V26.5665H19.968V34.7508H14.9338V32.902C14.9338 32.5784 14.6715 32.3161 14.3479 32.3161C14.0243 32.3161 13.762 32.5784 13.762 32.902V34.7508H3.62086V5.57665ZM38.0469 37.4852H1.95312C1.52234 37.4852 1.17188 37.1347 1.17188 36.7039C1.17188 36.2731 1.52234 35.9227 1.95312 35.9227H38.0469C38.4777 35.9227 38.8281 36.2731 38.8281 36.7039C38.8281 37.1347 38.4777 37.4852 38.0469 37.4852Z"/>
<path d="M5.93004 12.7298H8.30176C8.85934 12.7298 9.31293 12.2762 9.31293 11.7187V9.89391C9.31293 9.33641 8.85934 8.88281 8.30176 8.88281H5.93004C5.37254 8.88281 4.91895 9.33641 4.91895 9.89391V11.7187C4.91895 12.2762 5.37254 12.7298 5.93004 12.7298ZM6.09082 10.0546H8.14113V11.5579H6.09082V10.0546Z"/>
<path d="M11.8431 12.7298H14.2148C14.7723 12.7298 15.2259 12.2762 15.2259 11.7187V9.89391C15.2259 9.33641 14.7723 8.88281 14.2148 8.88281H11.8431C11.2856 8.88281 10.832 9.33641 10.832 9.89391V11.7187C10.832 12.2762 11.2855 12.7298 11.8431 12.7298ZM12.0038 10.0546H14.0541V11.5579H12.0038V10.0546Z"/>
<path d="M17.7572 12.7298H20.1289C20.6865 12.7298 21.14 12.2762 21.14 11.7187V9.89391C21.14 9.33641 20.6864 8.88281 20.1289 8.88281H17.7572C17.1997 8.88281 16.7461 9.33641 16.7461 9.89391V11.7187C16.746 12.2762 17.1996 12.7298 17.7572 12.7298ZM17.9179 10.0546H19.9681V11.5579H17.9179V10.0546Z"/>
<path d="M5.93004 17.9984H8.30176C8.85934 17.9984 9.31293 17.5448 9.31293 16.9873V15.1625C9.31293 14.605 8.85934 14.1514 8.30176 14.1514H5.93004C5.37254 14.1514 4.91895 14.605 4.91895 15.1625V16.9872C4.91895 17.5448 5.37254 17.9984 5.93004 17.9984ZM6.09082 15.3232H8.14113V16.8265H6.09082V15.3232Z"/>
<path d="M11.8431 17.9984H14.2148C14.7723 17.9984 15.2259 17.5448 15.2259 16.9873V15.1625C15.2259 14.605 14.7723 14.1514 14.2148 14.1514H11.8431C11.2856 14.1514 10.832 14.605 10.832 15.1625V16.9872C10.832 17.5448 11.2855 17.9984 11.8431 17.9984ZM12.0038 15.3232H14.0541V16.8265H12.0038V15.3232Z"/>
<path d="M17.7572 17.9984H20.1289C20.6865 17.9984 21.14 17.5448 21.14 16.9873V15.1625C21.14 14.605 20.6864 14.1514 20.1289 14.1514H17.7572C17.1997 14.1514 16.7461 14.605 16.7461 15.1625V16.9872C16.746 17.5448 17.1996 17.9984 17.7572 17.9984ZM17.9179 15.3232H19.9681V16.8265H17.9179V15.3232Z"/>
<path d="M5.93004 23.2669H8.30176C8.85934 23.2669 9.31293 22.8133 9.31293 22.2558V20.431C9.31293 19.8735 8.85934 19.4199 8.30176 19.4199H5.93004C5.37254 19.4199 4.91895 19.8735 4.91895 20.431V22.2558C4.91895 22.8133 5.37254 23.2669 5.93004 23.2669ZM6.09082 20.5917H8.14113V22.095H6.09082V20.5917Z"/>
<path d="M11.293 25.3945H6.04395C5.42363 25.3945 4.91895 25.8992 4.91895 26.5195V28.1166C4.91895 28.7369 5.42363 29.2416 6.04395 29.2416H11.293C11.9133 29.2416 12.418 28.7369 12.418 28.1166V26.5195C12.418 25.8992 11.9133 25.3945 11.293 25.3945ZM11.2461 28.0697H6.09082V26.5664H11.2461V28.0697Z"/>
<path d="M11.8431 23.2669H14.2148C14.7723 23.2669 15.2259 22.8133 15.2259 22.2558V20.431C15.2259 19.8735 14.7723 19.4199 14.2148 19.4199H11.8431C11.2856 19.4199 10.832 19.8735 10.832 20.431V22.2558C10.832 22.8133 11.2855 23.2669 11.8431 23.2669ZM12.0038 20.5917H14.0541V22.095H12.0038V20.5917Z"/>
<path d="M17.7572 23.2669H20.1289C20.6865 23.2669 21.14 22.8133 21.14 22.2558V20.431C21.14 19.8735 20.6864 19.4199 20.1289 19.4199H17.7572C17.1997 19.4199 16.7461 19.8735 16.7461 20.431V22.2558C16.746 22.8133 17.1996 23.2669 17.7572 23.2669ZM17.9179 20.5917H19.9681V22.095H17.9179V20.5917Z"/>
<path d="M29.7322 22.7576C29.7322 22.1633 29.2487 21.6797 28.6543 21.6797H26.2615C25.6672 21.6797 25.1836 22.1632 25.1836 22.7576V24.6555C25.1836 25.2498 25.6671 25.7334 26.2615 25.7334H28.6543C29.2486 25.7334 29.7322 25.2498 29.7322 24.6555V22.7576ZM28.5603 24.5615H26.3555V22.8516H28.5603V24.5615Z"/>
<path d="M28.6543 27.0874H26.2615C25.6672 27.0874 25.1836 27.5709 25.1836 28.1653V30.0632C25.1836 30.6575 25.6671 31.1411 26.2615 31.1411H28.6543C29.2486 31.1411 29.7322 30.6576 29.7322 30.0632V28.1653C29.7322 27.5709 29.2487 27.0874 28.6543 27.0874ZM28.5603 29.9692H26.3555V28.2593H28.5603V29.9692Z"/>
<path d="M35.1823 22.7576C35.1823 22.1633 34.6988 21.6797 34.1044 21.6797H31.7117C31.1174 21.6797 30.6338 22.1632 30.6338 22.7576V24.6555C30.6338 25.2498 31.1173 25.7334 31.7117 25.7334H34.1044C34.6987 25.7334 35.1823 25.2498 35.1823 24.6555V22.7576ZM34.0104 24.5615H31.8057V22.8516H34.0104V24.5615Z"/>
<path d="M34.1044 27.0874H31.7117C31.1174 27.0874 30.6338 27.5709 30.6338 28.1653V30.0632C30.6338 30.6575 31.1173 31.1411 31.7117 31.1411H34.1044C34.6987 31.1411 35.1823 30.6576 35.1823 30.0632V28.1653C35.1823 27.5709 34.6988 27.0874 34.1044 27.0874ZM34.0104 29.9692H31.8057V28.2593H34.0104V29.9692Z"/>
</g>
<defs>
<clipPath id="clip0">
<rect width="40" height="40" fill="white"/>
</clipPath>
</defs>
</svg>
