<svg width="40" height="40" viewBox="0 0 40 40" fill="none" xmlns="http://www.w3.org/2000/svg">
<g clip-path="url(#clip0)">
<path d="M28.1388 24.8793C27.1732 23.9133 25.6045 23.9133 24.6385 24.8793L22.7581 26.7419H22.7578L22.7557 26.7433C22.0314 27.2044 19.3412 26.1646 16.5943 23.4156C13.8457 20.668 12.8041 17.9754 13.2666 17.2541L13.295 17.2101C13.2988 17.2046 13.3042 17.1998 13.308 17.194L15.1299 15.372C15.5979 14.9041 15.8549 14.283 15.8549 13.6212C15.8549 12.9594 15.5979 12.3383 15.1299 11.8711L7.64561 4.38674C6.68234 3.42176 5.1113 3.41937 4.14632 4.38674L1.30608 7.22664C-0.493987 9.02602 -0.430065 12.3773 1.48588 16.6628C3.29551 20.7107 6.56133 25.2088 10.6821 29.3289C14.8018 33.4486 19.2999 36.7147 23.3478 38.524C25.5608 39.5133 27.5242 40.0086 29.1541 40.0086C30.68 40.0086 31.9126 39.5741 32.7833 38.7038L35.6232 35.8636C36.5881 34.8989 36.5881 33.3293 35.6232 32.3643L28.1388 24.8793ZM5.27743 5.51819C5.61755 5.17739 6.17302 5.17739 6.5145 5.51819L13.9988 13.0032C14.1643 13.1679 14.2548 13.3874 14.2548 13.6212C14.2548 13.8547 14.1643 14.0741 13.9988 14.2399L12.5703 15.6681L3.84859 6.94634L5.27743 5.51819ZM31.6518 37.5724C29.1243 40.0978 20.5499 36.9342 11.8125 28.1974C7.82712 24.212 4.6782 19.8835 2.94685 16.0096C1.34436 12.4258 1.15909 9.63721 2.43753 8.35809L2.71748 8.07779L11.658 17.0186C11.1319 19.0409 13.1436 22.2284 15.4629 24.547C17.5302 26.6144 20.2905 28.4452 22.2977 28.4452C22.5438 28.4452 22.7787 28.4175 22.9995 28.3598L31.9321 37.2924L31.6518 37.5724ZM34.4921 34.7325L33.0636 36.1613L24.3418 27.4396L25.77 26.0104C26.1108 25.6699 26.6669 25.6699 27.0077 26.0104L34.4921 33.4954C34.8325 33.8362 34.8325 34.3917 34.4921 34.7325Z" />
<path d="M35.329 4.67473C32.3192 1.66529 28.3259 0.00878906 24.0825 0.00878906C24.077 0.00878906 24.0716 0.00878906 24.0668 0.00878906C23.6255 0.00947273 23.2669 0.367366 23.2676 0.809691C23.2683 1.25099 23.6262 1.60888 24.0678 1.60888H24.0825C27.8983 1.60888 31.4902 3.09959 34.1975 5.80618C36.9079 8.51722 38.401 12.117 38.401 15.9424C38.401 16.3844 38.7589 16.7423 39.2012 16.7423C39.6432 16.7423 40.0011 16.3844 40.0011 15.9424C40.0011 11.6894 38.3415 7.6876 35.329 4.67473Z" />
<path d="M24.0707 6.99365C29.0023 6.99365 33.0143 11.0057 33.0143 15.9369C33.0143 16.3789 33.3722 16.7368 33.8145 16.7368C34.2568 16.7368 34.6144 16.3789 34.6144 15.9369C34.6144 10.1231 29.8845 5.39355 24.0707 5.39355C23.6284 5.39355 23.2705 5.75145 23.2705 6.19377C23.2705 6.63576 23.6284 6.99365 24.0707 6.99365Z" />
<path d="M24.0707 12.3822C26.0311 12.3822 27.6257 13.9768 27.6257 15.9372C27.6257 16.3792 27.9836 16.7371 28.4256 16.7371C28.8679 16.7371 29.2258 16.3792 29.2258 15.9372C29.2258 13.0945 26.913 10.7817 24.0707 10.7817C23.6284 10.7817 23.2705 11.1396 23.2705 11.582C23.2705 12.0243 23.6284 12.3822 24.0707 12.3822Z" />
</g>
<defs>
<clipPath id="clip0">
<rect x="0.000976562" width="40" height="40" fill="white"/>
</clipPath>
</defs>
</svg>
