<svg width="41" height="40" viewBox="0 0 41 40" fill="none" xmlns="http://www.w3.org/2000/svg">
<path d="M30.55 19.6448H33.3401C33.9709 19.6448 34.4841 19.1316 34.4841 18.5009V15.7107C34.4841 15.0799 33.9709 14.5667 33.3401 14.5667H30.55C29.9192 14.5667 29.406 15.0799 29.406 15.7107V18.5009C29.406 19.1316 29.9192 19.6448 30.55 19.6448ZM30.5779 15.7386H33.3123V18.473H30.5779V15.7386ZM30.55 27.0667H33.3401C33.9709 27.0667 34.4841 26.5535 34.4841 25.9227V23.1326C34.4841 22.5018 33.9709 21.9886 33.3401 21.9886H30.55C29.9192 21.9886 29.406 22.5018 29.406 23.1326V25.9227C29.406 26.5535 29.9192 27.0667 30.55 27.0667ZM30.5779 23.1605H33.3123V25.8948H30.5779V23.1605ZM22.5878 19.6448H25.378C26.0087 19.6448 26.5219 19.1316 26.5219 18.5009V15.7107C26.5219 15.0799 26.0087 14.5667 25.378 14.5667H22.5878C21.957 14.5667 21.4438 15.0799 21.4438 15.7107V18.5009C21.4438 19.1316 21.957 19.6448 22.5878 19.6448ZM22.6157 15.7386H25.3501V18.473H22.6157V15.7386ZM9.45359 29.0625H6.66344C6.03266 29.0625 5.51945 29.5757 5.51945 30.2065V32.9966C5.51945 33.6274 6.03266 34.1406 6.66344 34.1406H9.45359C10.0844 34.1406 10.5976 33.6274 10.5976 32.9966V30.2065C10.5976 29.5757 10.0844 29.0625 9.45359 29.0625ZM9.4257 32.9688H6.69133V30.2344H9.4257V32.9688ZM9.45359 14.5667H6.66344C6.03266 14.5667 5.51945 15.0799 5.51945 15.7107V18.5009C5.51945 19.1316 6.03266 19.6448 6.66344 19.6448H9.45359C10.0844 19.6448 10.5976 19.1316 10.5976 18.5009V15.7107C10.5976 15.0798 10.0844 14.5667 9.45359 14.5667ZM9.4257 18.473H6.69133V15.7386H9.4257V18.473ZM22.5878 26.8927H25.378C26.0087 26.8927 26.5219 26.3795 26.5219 25.7488V22.9586C26.5219 22.3278 26.0087 21.8146 25.378 21.8146H22.5878C21.957 21.8146 21.4438 22.3278 21.4438 22.9586V25.7488C21.4438 26.3795 21.957 26.8927 22.5878 26.8927ZM22.6157 22.9865H25.3501V25.7209H22.6157V22.9865ZM35.0661 2.67766H32.5609V1.7818C32.5609 0.799297 31.7616 0 30.7791 0H30.5101C29.5277 0 28.7284 0.799297 28.7284 1.7818V2.67766H11.2752V1.7818C11.2752 0.799297 10.4759 0 9.49344 0H9.22437C8.24187 0 7.44258 0.799297 7.44258 1.7818V2.67766H4.9375C3.31992 2.67766 2.00391 3.99367 2.00391 5.61125V37.0703C2.00391 38.6858 3.31812 40 4.93359 40H35.0701C36.6856 40 37.9998 38.6858 37.9998 37.0703V5.61125C37.9998 3.99367 36.6837 2.67766 35.0661 2.67766ZM29.9002 1.7818C29.9002 1.44547 30.1738 1.17188 30.5101 1.17188H30.7792C31.1155 1.17188 31.3891 1.44547 31.3891 1.7818V2.67766H29.9002V1.7818ZM8.61453 1.7818C8.61453 1.44547 8.88812 1.17188 9.22445 1.17188H9.49351C9.82984 1.17188 10.1034 1.44547 10.1034 1.7818V2.67766H8.61461V1.7818H8.61453ZM36.8279 37.0703C36.8279 38.0396 36.0394 38.8281 35.0701 38.8281H4.93352C3.96422 38.8281 3.1757 38.0396 3.1757 37.0703V37.0666C3.66664 37.4366 4.27687 37.6562 4.9375 37.6562H28.694C29.4776 37.6562 30.2143 37.3511 30.7684 36.797L36.8279 30.7374V37.0703ZM30.1705 35.7376C30.2164 35.548 30.2414 35.3502 30.2414 35.1467V31.2355C30.2414 30.498 30.8415 29.8979 31.5791 29.8979H35.4902C35.6937 29.8979 35.8915 29.8729 36.0811 29.827L30.1705 35.7376ZM36.8279 11.0511H11.8612C11.5376 11.0511 11.2752 11.3134 11.2752 11.637C11.2752 11.9606 11.5376 12.223 11.8612 12.223H36.8279V27.3884C36.8279 28.126 36.2278 28.7261 35.4902 28.7261H31.5791C30.1953 28.7261 29.0695 29.8519 29.0695 31.2355V35.1468C29.0695 35.8844 28.4694 36.4845 27.7319 36.4845H4.9375C3.96609 36.4845 3.17578 35.6941 3.17578 34.7227V12.223H9.51742C9.84101 12.223 10.1034 11.9606 10.1034 11.637C10.1034 11.3134 9.84101 11.0511 9.51742 11.0511H3.1757V5.61125C3.1757 4.63984 3.96601 3.84953 4.93742 3.84953H7.44258V5.57234C7.44258 6.55484 8.24187 7.35414 9.22437 7.35414C9.54797 7.35414 9.81031 7.0918 9.81031 6.7682C9.81031 6.44461 9.54797 6.18227 9.22437 6.18227C8.88805 6.18227 8.61445 5.90867 8.61445 5.57234V3.84953H28.7284V5.57234C28.7284 6.55484 29.5276 7.35414 30.5101 7.35414C30.8337 7.35414 31.0961 7.0918 31.0961 6.7682C31.0961 6.44461 30.8337 6.18227 30.5101 6.18227C30.1738 6.18227 29.9002 5.90867 29.9002 5.57234V3.84953H35.0662C36.0376 3.84953 36.8279 4.63984 36.8279 5.61125V11.0511ZM9.45359 21.8146H6.66344C6.03266 21.8146 5.51945 22.3278 5.51945 22.9586V25.7488C5.51945 26.3795 6.03266 26.8927 6.66344 26.8927H9.45359C10.0844 26.8927 10.5976 26.3795 10.5976 25.7488V22.9586C10.5976 22.3277 10.0844 21.8146 9.45359 21.8146ZM9.4257 25.7209H6.69133V22.9865H9.4257V25.7209ZM14.6256 19.6448H17.4158C18.0466 19.6448 18.5598 19.1316 18.5598 18.5009V15.7107C18.5598 15.0799 18.0466 14.5667 17.4158 14.5667H14.6256C13.9948 14.5667 13.4816 15.0799 13.4816 15.7107V18.5009C13.4816 19.1316 13.9948 19.6448 14.6256 19.6448ZM14.6535 15.7386H17.3879V18.473H14.6535V15.7386ZM22.615 32.9688C22.6005 32.658 22.344 32.4107 22.0297 32.4107C21.7061 32.4107 21.4437 32.673 21.4437 32.9966C21.4437 33.6274 21.9569 34.1406 22.5877 34.1406H25.3779C26.0087 34.1406 26.5219 33.6274 26.5219 32.9966V30.2065C26.5219 29.5757 26.0087 29.0625 25.3779 29.0625H22.5877C21.9569 29.0625 21.4437 29.5757 21.4437 30.2065V31.0112C21.4437 31.3348 21.7061 31.5971 22.0297 31.5971C22.3533 31.5971 22.6156 31.3348 22.6156 31.0112V30.2344H25.35V32.9688H22.615ZM14.6256 26.8927H17.4158C18.0466 26.8927 18.5598 26.3795 18.5598 25.7488V22.9586C18.5598 22.3278 18.0466 21.8146 17.4158 21.8146H14.6256C13.9948 21.8146 13.4816 22.3278 13.4816 22.9586V25.7488C13.4816 26.3795 13.9948 26.8927 14.6256 26.8927ZM14.6535 22.9865H17.3879V25.7209H14.6535V22.9865ZM14.6256 34.1406H17.4158C18.0466 34.1406 18.5598 33.6274 18.5598 32.9966V30.2065C18.5598 29.5757 18.0466 29.0625 17.4158 29.0625H14.6256C13.9948 29.0625 13.4816 29.5757 13.4816 30.2065V32.9966C13.4816 33.6274 13.9948 34.1406 14.6256 34.1406ZM14.6535 30.2344H17.3879V32.9688H14.6535V30.2344Z"/>
</svg>
