<svg width="40" height="40" viewBox="0 0 40 40" fill="none" xmlns="http://www.w3.org/2000/svg">
<g clip-path="url(#clip0)">
<path d="M38.7888 34.7576H37.496V22.8184C37.496 21.8047 36.6712 20.98 35.6575 20.98H33.7385V12.7982C33.7385 11.7844 32.9137 10.9597 31.9 10.9597H26.2233V6.39904C26.9505 6.15381 27.4758 5.46576 27.4758 4.65686C27.4758 3.84545 26.4376 2.27943 26.1195 1.81881C26.0101 1.66045 25.8299 1.56592 25.6374 1.56592C25.4449 1.56592 25.2646 1.66045 25.1553 1.81881C24.8371 2.27943 23.7989 3.84545 23.7989 4.65686C23.7989 5.46576 24.3243 6.15373 25.0514 6.39904V10.9598H20.5869V6.39904C21.3141 6.15381 21.8394 5.46576 21.8394 4.65686C21.8394 3.84545 20.8012 2.27943 20.4831 1.81881C20.3737 1.66045 20.1935 1.56592 20.001 1.56592C19.8085 1.56592 19.6282 1.66045 19.5189 1.81881C19.2007 2.27943 18.1625 3.84545 18.1625 4.65686C18.1625 5.46576 18.6879 6.15373 19.415 6.39904V10.9598H14.9506V6.39904C15.6778 6.15381 16.2031 5.46576 16.2031 4.65686C16.2031 3.84545 15.1649 2.27943 14.8468 1.81881C14.7374 1.66045 14.5571 1.56592 14.3646 1.56592C14.1721 1.56592 13.9919 1.66045 13.8825 1.81881C13.5643 2.27943 12.5262 3.84545 12.5262 4.65686C12.5262 5.46576 13.0515 6.15373 13.7787 6.39904V10.9598H8.10199C7.08824 10.9598 6.26356 11.7846 6.26356 12.7983V20.98H4.34449C3.33074 20.98 2.50605 21.8047 2.50605 22.8184V34.7576H1.21316C0.544727 34.7576 0.000976562 35.3014 0.000976562 35.9698V37.2223C0.000976562 37.8908 0.544727 38.4345 1.21316 38.4345H38.7888C39.4572 38.4345 40.001 37.8908 40.001 37.2223V35.9698C40.001 35.3014 39.4572 34.7576 38.7888 34.7576ZM25.6374 3.23381C26.0225 3.87545 26.3025 4.4592 26.3039 4.65693C26.3039 5.02443 26.0048 5.3235 25.6373 5.3235C25.2698 5.3235 24.9707 5.02443 24.9707 4.65693C24.9721 4.45967 25.2521 3.87584 25.6374 3.23381ZM20.0011 3.23381C20.3862 3.87545 20.6662 4.4592 20.6675 4.65693C20.6675 5.02443 20.3685 5.3235 20.001 5.3235C19.6335 5.3235 19.3344 5.02443 19.3344 4.65693C19.3357 4.45967 19.6158 3.87584 20.0011 3.23381ZM14.3647 3.23381C14.7499 3.87545 15.0299 4.4592 15.0312 4.65693C15.0312 5.02443 14.7321 5.3235 14.3646 5.3235C13.9971 5.3235 13.6981 5.02443 13.6981 4.65693C13.6994 4.45967 13.9795 3.87584 14.3647 3.23381ZM3.67785 25.3263C4.20152 25.4104 4.53434 25.6076 4.90504 25.8275C5.4648 26.1594 6.09926 26.5357 7.3159 26.5357C8.5334 26.5357 9.16824 26.1595 9.7284 25.8276C10.2214 25.5354 10.6471 25.2832 11.5435 25.2832C12.4407 25.2832 12.8668 25.5355 13.3602 25.8277C13.9207 26.1596 14.5559 26.5357 15.7739 26.5357C16.9921 26.5357 17.6273 26.1596 18.1878 25.8277C18.6812 25.5355 19.1074 25.2832 20.0045 25.2832C20.9001 25.2832 21.3256 25.5354 21.8182 25.8275C22.3782 26.1594 23.0127 26.5357 24.2296 26.5357C25.4468 26.5357 26.0815 26.1595 26.6415 25.8276C27.1343 25.5354 27.5599 25.2832 28.4559 25.2832C29.3512 25.2832 29.7765 25.5354 30.269 25.8275C30.8288 26.1595 31.4632 26.5357 32.6799 26.5357C33.8973 26.5357 34.5322 26.1595 35.0924 25.8276C35.4642 25.6073 35.7979 25.4098 36.3239 25.326V27.2751C35.4726 27.3727 34.9578 27.6765 34.495 27.9508C34.0019 28.2429 33.5762 28.4951 32.6799 28.4951C31.7846 28.4951 31.3593 28.2429 30.8668 27.9508C30.307 27.6189 29.6725 27.2426 28.4559 27.2426C27.2387 27.2426 26.6039 27.6188 26.0439 27.9508C25.5511 28.2429 25.1256 28.4951 24.2296 28.4951C23.3339 28.4951 22.9085 28.2429 22.4158 27.9508C21.8559 27.6189 21.2214 27.2426 20.0044 27.2426C18.7863 27.2426 18.1511 27.6187 17.5906 27.9506C17.0971 28.2428 16.671 28.4951 15.7739 28.4951C14.8768 28.4951 14.4506 28.2428 13.9571 27.9506C13.3967 27.6187 12.7614 27.2426 11.5433 27.2426C10.3259 27.2426 9.69098 27.6188 9.13082 27.9507C8.63777 28.2428 8.21207 28.4951 7.31566 28.4951C6.42035 28.4951 5.99504 28.2429 5.50254 27.9508C5.04051 27.6769 4.52668 27.3733 3.67762 27.2754V25.3263H3.67785ZM8.10199 12.1316H31.8999C32.2675 12.1316 32.5664 12.4307 32.5664 12.7982V14.1219C31.6819 14.217 31.1479 14.5205 30.6683 14.7944C30.1522 15.089 29.7065 15.3435 28.7653 15.3435C27.824 15.3435 27.3783 15.089 26.8622 14.7944C26.2848 14.4647 25.6304 14.091 24.3782 14.091C23.1265 14.091 22.4725 14.4647 21.8954 14.7944C21.3798 15.089 20.9345 15.3435 19.9941 15.3435C19.0547 15.3435 18.6099 15.0891 18.0948 14.7945C17.5182 14.4647 16.8646 14.091 15.6138 14.091C14.3625 14.091 13.7086 14.4647 13.1317 14.7945C12.6162 15.0891 12.1711 15.3435 11.2311 15.3435C10.2914 15.3435 9.84637 15.0891 9.33113 14.7945C8.85207 14.5207 8.31879 14.2172 7.43543 14.1219V12.7982C7.43543 12.4307 7.73449 12.1316 8.10199 12.1316ZM4.34449 22.1519H28.7686C29.0921 22.1519 29.3545 21.8895 29.3545 21.5659C29.3545 21.2423 29.0921 20.98 28.7686 20.98H7.43543V15.3026C8.00098 15.385 8.35504 15.5865 8.74941 15.812C9.32621 16.1418 9.97996 16.5155 11.2311 16.5155C12.4824 16.5155 13.1363 16.1418 13.7132 15.812C14.2286 15.5174 14.6737 15.263 15.6138 15.263C16.5531 15.263 16.9979 15.5174 17.5131 15.8119C18.0897 16.1418 18.7433 16.5155 19.9941 16.5155C21.2457 16.5155 21.8998 16.1418 22.4768 15.8121C22.9925 15.5175 23.4378 15.263 24.3782 15.263C25.3195 15.263 25.7652 15.5175 26.2813 15.8122C26.8587 16.1419 27.5131 16.5155 28.7654 16.5155C30.0176 16.5155 30.6721 16.1419 31.2494 15.8122C31.6447 15.5865 31.9995 15.3848 32.5665 15.3026V20.9801H31.2737C30.9501 20.9801 30.6878 21.2424 30.6878 21.566C30.6878 21.8896 30.9501 22.1519 31.2737 22.1519H35.6575C36.0251 22.1519 36.3241 22.451 36.3241 22.8185V24.1438C35.4729 24.2414 34.958 24.5452 34.4952 24.8194C34.0021 25.1115 33.5764 25.3638 32.6801 25.3638C31.7848 25.3638 31.3595 25.1115 30.867 24.8195C30.3072 24.4876 29.6728 24.1113 28.4561 24.1113C27.2389 24.1113 26.6042 24.4875 26.0442 24.8194C25.5514 25.1115 25.1258 25.3638 24.2298 25.3638C23.3342 25.3638 22.9087 25.1115 22.4161 24.8195C21.8561 24.4876 21.2216 24.1113 20.0046 24.1113C18.7865 24.1113 18.1513 24.4874 17.5908 24.8193C17.0974 25.1115 16.6712 25.3638 15.7741 25.3638C14.877 25.3638 14.4508 25.1115 13.9574 24.8193C13.3969 24.4874 12.7617 24.1113 11.5436 24.1113C10.3261 24.1113 9.69121 24.4875 9.13105 24.8194C8.63801 25.1115 8.2123 25.3638 7.3159 25.3638C6.42059 25.3638 5.99527 25.1115 5.50277 24.8195C5.04074 24.5455 4.52691 24.2419 3.67785 24.144V22.8184C3.67785 22.4508 3.97691 22.1519 4.34449 22.1519ZM38.8291 37.2223C38.8291 37.2446 38.8111 37.2626 38.7888 37.2626H1.21316C1.1909 37.2626 1.17285 37.2446 1.17285 37.2223V35.9698C1.17285 35.9476 1.1909 35.9295 1.21316 35.9295H5.59707C5.92066 35.9295 6.18301 35.6672 6.18301 35.3436C6.18301 35.02 5.92066 34.7576 5.59707 34.7576H3.67785V28.4576C4.20152 28.5417 4.53434 28.7389 4.90504 28.9587C5.4648 29.2907 6.09926 29.6669 7.3159 29.6669C8.5334 29.6669 9.16824 29.2908 9.7284 28.9588C10.2214 28.6667 10.6471 28.4144 11.5435 28.4144C12.4407 28.4144 12.8668 28.6668 13.3602 28.959C13.9207 29.2908 14.5559 29.6669 15.7739 29.6669C16.9921 29.6669 17.6273 29.2908 18.1878 28.959C18.6812 28.6668 19.1074 28.4144 20.0045 28.4144C20.9001 28.4144 21.3256 28.6667 21.8182 28.9587C22.3782 29.2907 23.0127 29.6669 24.2296 29.6669C25.4468 29.6669 26.0815 29.2908 26.6415 28.9588C27.1343 28.6667 27.5599 28.4144 28.4559 28.4144C29.3512 28.4144 29.7765 28.6667 30.269 28.9587C30.8288 29.2908 31.4632 29.6669 32.6799 29.6669C33.8973 29.6669 34.5322 29.2908 35.0924 28.9589C35.4642 28.7386 35.7979 28.5411 36.3239 28.4572V34.7577H8.10207C7.77848 34.7577 7.51613 35.0201 7.51613 35.3437C7.51613 35.6672 7.77848 35.9296 8.10207 35.9296H38.7888C38.8111 35.9296 38.8291 35.9476 38.8291 35.9699V37.2223Z" />
</g>
<defs>
<clipPath id="clip0">
<rect x="0.000976562" width="40" height="40" fill="white"/>
</clipPath>
</defs>
</svg>
