<svg width="48" height="42" viewBox="0 0 48 42" fill="none" xmlns="http://www.w3.org/2000/svg">
<path d="M47.0974 13.9309L26.4017 34.6262C26.1351 34.8928 25.7026 34.8928 25.436 34.6262L13.3738 22.564C13.1072 22.2974 13.1072 21.8649 13.3738 21.5983L34.0691 0.902588C34.3361 0.635986 34.7686 0.635986 35.0352 0.902588L47.0974 12.9648C47.364 13.2318 47.364 13.6639 47.0974 13.9309Z" fill="#FFC943"/>
<path d="M47.0969 12.9644L43.8333 9.70068L22.1719 31.3621L25.4355 34.6257C25.7021 34.8923 26.1346 34.8923 26.4012 34.6257L47.0969 13.9304C47.3635 13.6635 47.3635 13.2313 47.0969 12.9644Z" fill="#FFAA16"/>
<path d="M21.1309 30.3207L42.7919 8.65967L45.4271 11.2949L23.7661 32.9559L21.1309 30.3207Z" fill="#00A97D"/>
<path d="M22.1719 31.3617L43.8329 9.70068L45.4266 11.2944L23.7656 32.9554L22.1719 31.3617Z" fill="#00C395"/>
<path d="M25.442 27.8666L32.1799 21.1287C32.9563 20.3523 33.2866 19.4236 32.5099 18.6469C31.2864 17.1271 26.819 18.3458 24.6997 20.4651C23.6721 21.4927 22.5054 22.6594 21.8623 23.3029C21.5477 23.6178 21.1211 23.7947 20.6703 23.7947H20.6472C19.9038 23.7947 19.033 23.0747 18.8414 22.3566L18.8411 16.1303L19.9525 15.0184L21.1742 13.7971L26.0261 8.9452C24.0299 8.72181 22.045 8.6006 21.2753 8.50831C20.4191 8.40577 19.6888 8.78956 19.0249 9.33888L12.8136 14.2391C11.9369 14.9642 11.3052 15.9413 11.0023 17.0381C10.3245 19.4943 8.89624 23.839 7.9895 25.5668L3.46094 30.0953L11.3011 37.9352L13.4816 35.7548C13.8914 35.345 14.3982 35.0454 14.9548 34.8843L19.5087 33.3506C20.9395 32.8599 22.1985 31.9682 23.1367 30.7816L25.442 27.8666Z" fill="white"/>
<path d="M23.1372 30.7815L25.4425 27.8665L32.1804 21.1286C32.9568 20.3518 33.2871 19.4231 32.5104 18.6467C32.0607 18.0879 31.1726 17.8997 30.1238 17.9898C28.5879 18.122 27.1564 18.824 26.0662 19.9142L21.7782 24.2022L19.4733 27.1172C18.535 28.3037 17.2756 29.1954 15.8452 29.6862L11.291 31.2195C10.7344 31.381 10.2279 31.6806 9.81811 32.0903L7.6377 34.2708L11.3016 37.9351L13.4821 35.7547C13.8918 35.3449 14.3987 35.0453 14.9553 34.8838L19.5092 33.3505C20.9399 32.8598 22.1993 31.968 23.1372 30.7815Z" fill="#E2EBF9"/>
<path d="M10.0285 40.4439L0.954559 31.3696C0.618011 31.0334 0.618011 30.4881 0.954559 30.1519L2.55124 28.5549C2.88742 28.2187 3.43271 28.2187 3.76926 28.5549L12.8432 37.6292C13.1798 37.9654 13.1798 38.5107 12.8432 38.8469L11.2466 40.4439C10.9104 40.7801 10.3651 40.7801 10.0285 40.4439Z" fill="#5DE1C0"/>
<path d="M12.8445 37.6294L9.76685 34.5518L6.95215 37.3665L10.0298 40.4441C10.3663 40.7803 10.9116 40.7803 11.2478 40.4441L12.8445 38.847C13.181 38.5109 13.181 37.9656 12.8445 37.6294Z" fill="#00C395"/>
<path d="M31.9135 20.9188C31.0192 20.0245 29.5694 20.0245 28.6751 20.9188L27.6577 21.9361C27.1974 22.3964 27.1974 23.1428 27.6577 23.6031L28.6817 24.627L32.1515 21.1568L31.9135 20.9188Z" fill="#C1C8D2"/>
<path d="M33.3302 8.0925C32.6391 7.40146 31.5189 7.40146 30.8279 8.0925C30.1368 8.78317 30.1368 9.90378 30.8279 10.5948C31.5189 11.2855 32.6391 11.2855 33.3302 10.5948C34.0212 9.90378 34.0212 8.78317 33.3302 8.0925Z" fill="#F3E8D7"/>
<path d="M34.9845 6.43918C34.2934 5.74814 33.1732 5.74814 32.4821 6.43918C31.7911 7.13022 31.7911 8.25046 32.4821 8.9415C33.1732 9.63254 34.2934 9.63254 34.9845 8.9415C35.6755 8.25046 35.6755 7.13022 34.9845 6.43918Z" fill="#F3E8D7"/>
<path d="M33.3302 8.0925C32.6391 7.40146 31.5189 7.40146 30.8279 8.0925C30.1368 8.78317 30.1368 9.90378 30.8279 10.5948C31.5189 11.2855 32.6391 11.2855 33.3302 10.5948C34.0212 9.90378 34.0212 8.78317 33.3302 8.0925Z" fill="white"/>
<path d="M34.9845 6.43918C34.2934 5.74814 33.1732 5.74814 32.4821 6.43918C31.7911 7.13022 31.7911 8.25046 32.4821 8.9415C33.1732 9.63254 34.2934 9.63254 34.9845 8.9415C35.6755 8.25046 35.6755 7.13022 34.9845 6.43918Z" fill="#FF8125"/>
<path d="M47.5939 12.4673L35.532 0.405396C34.9915 -0.135132 34.1122 -0.135132 33.5717 0.405396L27.8837 6.09302C27.609 6.36804 27.609 6.81299 27.8837 7.08765C28.1583 7.36194 28.6033 7.3623 28.8779 7.08765L34.5516 1.41394L46.5853 13.4476L25.9186 34.1144L23.384 31.5798C23.488 31.4619 23.5906 31.3418 23.6884 31.2177L25.968 28.3348L32.677 21.6259C33.8405 20.4624 33.9749 19.1437 33.033 18.1754C32.5807 17.6356 31.8428 17.3236 30.8958 17.2727C28.7688 17.1584 25.8281 18.342 24.2025 19.9677C23.1749 20.9952 22.0082 22.1624 21.3647 22.8058C21.1809 22.99 20.9341 23.0914 20.6704 23.0914H20.647C20.2581 23.0914 19.7018 22.6564 19.5443 22.2477L19.5439 16.4213L26.5228 9.44238C26.714 9.25122 26.7788 8.96777 26.6895 8.71252C26.6001 8.45764 26.3727 8.27637 26.1042 8.24634C24.9174 8.1134 23.7499 8.01782 22.812 7.94055C22.1693 7.88782 21.6617 7.84644 21.3585 7.81018C20.4265 7.69849 19.5187 8.01929 18.583 8.79163L12.3779 13.6868C12.3739 13.6901 12.3695 13.6937 12.3655 13.697C11.3734 14.5177 10.6677 15.6083 10.3246 16.8508C9.68115 19.1814 8.29065 23.4203 7.41467 25.1466L4.38538 28.1763L4.26672 28.0576C3.97156 27.7625 3.57861 27.5995 3.16077 27.5995C2.74292 27.5995 2.35034 27.7625 2.05481 28.0576L0.45813 29.6547C0.162598 29.9502 0 30.3431 0 30.761C0 31.1785 0.162598 31.5714 0.45813 31.8669L9.53247 40.9413C9.82764 41.2365 10.2206 41.3994 10.6384 41.3994C11.0563 41.3994 11.4489 41.2368 11.7444 40.9413L13.3414 39.3442C13.637 39.0491 13.7996 38.6561 13.7996 38.2383C13.7996 37.8204 13.637 37.4275 13.3414 37.132L13.2202 37.0107L13.979 36.252C14.3038 35.9268 14.7092 35.6873 15.1505 35.5594C15.1604 35.5565 15.1699 35.5536 15.1794 35.5503L19.7369 34.0155C20.7004 33.6848 21.5896 33.1893 22.3696 32.5547L24.9382 35.1229C25.2001 35.3848 25.5483 35.5291 25.9186 35.5291C26.2888 35.5291 26.6371 35.3848 26.8986 35.1233L47.5939 14.4276C47.8557 14.1661 48 13.8179 48 13.4476C48 13.0774 47.8557 12.7295 47.5939 12.4673ZM12.3472 38.35L10.7501 39.9467C10.6886 40.0085 10.5883 40.0082 10.5267 39.9467L1.45239 30.8723C1.41431 30.8342 1.40625 30.7906 1.40625 30.761C1.40625 30.731 1.41431 30.6874 1.45239 30.6493L3.04944 29.0522C3.0802 29.0215 3.12048 29.0061 3.16113 29.0061C3.20142 29.0061 3.24207 29.0215 3.27283 29.0522L12.3472 38.1266C12.3853 38.165 12.3933 38.2086 12.3933 38.2383C12.3933 38.2679 12.3853 38.3115 12.3472 38.35ZM19.2843 32.6843L14.744 34.2133C14.0812 34.4081 13.4733 34.7688 12.9844 35.2577L12.2256 36.0165L5.38 29.1709L8.48694 26.064C8.53711 26.0134 8.57922 25.9563 8.61218 25.8933C9.54163 24.1219 10.9911 19.7208 11.6803 17.2251C11.9454 16.2645 12.4904 15.4211 13.2557 14.7858L19.4604 9.89099C19.4645 9.8877 19.4689 9.88403 19.4729 9.88074C20.1156 9.349 20.6455 9.14026 21.1915 9.20654C21.5208 9.24573 22.04 9.28857 22.697 9.34241C23.2306 9.38599 23.8392 9.43616 24.4816 9.49548L18.3435 15.6332C18.2117 15.765 18.1377 15.9441 18.1377 16.1305L18.1381 22.3568C18.1381 22.4176 18.1461 22.4788 18.1619 22.5377C18.4406 23.5818 19.6018 24.4977 20.647 24.4977H20.6704C21.3098 24.4977 21.9097 24.2498 22.3594 23.8C23.0024 23.1566 24.1692 21.9895 25.1968 20.9623C26.5507 19.6084 29.0746 18.5819 30.8199 18.6771C31.3671 18.7064 31.7725 18.8525 31.9622 19.088C31.9779 19.1074 31.9948 19.1265 32.0127 19.144C32.1709 19.3022 32.5913 19.723 31.6827 20.6316L24.9445 27.3695C24.9254 27.3889 24.9071 27.4091 24.8903 27.4307L22.5853 30.3457C22.3766 30.6094 22.151 30.8566 21.91 31.0865C21.9078 31.0891 21.9049 31.0909 21.9027 31.0931C21.9009 31.095 21.8998 31.0968 21.8979 31.0986C21.1531 31.8069 20.2639 32.3481 19.2843 32.6843Z" fill="#434C54"/>
</svg>
