<svg width="40" height="40" viewBox="0 0 40 40" fill="none" xmlns="http://www.w3.org/2000/svg">
<g clip-path="url(#clip0)">
<path d="M33.4643 28.4491L24.6671 25.728V21.9409C25.3143 21.3236 25.9117 20.5767 26.4438 19.7155C26.6892 20.2614 27.0292 20.7671 27.4645 21.2061C28.414 22.1475 29.6722 22.6661 31.0073 22.6661C32.5773 22.6661 34.0256 21.9516 34.9814 20.706C35.9368 19.4605 36.2516 17.8762 35.8444 16.3586L35.6445 15.6186C35.5742 15.3585 35.3548 15.1665 35.0876 15.1312C34.8226 15.0991 34.5589 15.225 34.4238 15.4584L33.3713 17.2775C33.1122 17.7225 32.6308 17.9992 32.1141 17.9992C31.3166 17.9992 30.6674 17.3501 30.6674 16.5525V10.6655C30.6674 7.8145 29.556 5.13698 27.5397 3.12785C25.3507 0.931837 22.3864 -0.191875 19.2408 0.0268832C13.6853 0.412678 9.33322 5.20285 9.33322 10.9322V16.5525C9.33322 16.9321 9.1786 17.3045 8.90805 17.5744C8.63851 17.8445 8.26607 17.9992 7.88653 17.9992C7.36995 17.9992 6.88845 17.7225 6.63031 17.2785L5.57691 15.4584C5.44152 15.225 5.17909 15.0994 4.91314 15.1312C4.64587 15.1664 4.42648 15.3584 4.35617 15.6186L4.1553 16.3625C4.03874 16.8036 3.97983 17.2424 3.97983 17.6659C3.97983 20.4231 6.22897 22.666 8.99336 22.666C11.0222 22.666 12.7691 21.4511 13.5549 19.7123C14.0875 20.575 14.6854 21.3229 15.3334 21.9409V25.7279L10.6914 27.164C10.6905 27.1643 10.6897 27.1646 10.6888 27.1648L6.52156 28.4539C4.6143 29.0923 3.33301 30.871 3.33301 32.8795V39.3332C3.33301 39.7014 3.63153 39.9999 3.99967 39.9999C4.36781 39.9999 4.66634 39.7013 4.66634 39.3332V32.8795C4.66634 31.4449 5.58207 30.1747 6.93009 29.7232L10.6842 28.5619C13.085 31.1738 16.4535 32.6663 20.0002 32.6663C23.5469 32.6663 26.9156 31.1737 29.3164 28.5617L33.0557 29.7183C34.4184 30.1747 35.3341 31.4449 35.3341 32.8796V39.3333C35.3341 39.7015 35.6327 39.9999 36.0008 39.9999C36.369 39.9999 36.6675 39.7014 36.6675 39.3333V32.8796C36.6675 30.8711 35.3862 29.0924 33.4643 28.4491ZM12.6667 10.6656V17.6594C12.6667 19.6848 11.0188 21.3327 8.99336 21.3327C6.96399 21.3327 5.31323 19.6878 5.31323 17.6659C5.31323 17.6656 5.31323 17.6653 5.31323 17.665L5.47699 17.9476C5.97341 18.8021 6.89696 19.3327 7.88661 19.3327C8.61741 19.3327 9.33361 19.0355 9.85121 18.5176C10.3694 17.9997 10.6666 17.2835 10.6666 16.5527V10.9323C10.6666 5.90029 14.4734 1.69436 19.3336 1.35716C22.0915 1.16481 24.6801 2.14758 26.5965 4.07109C28.3619 5.82998 29.3339 8.17186 29.3339 10.6657V16.5526C29.3339 18.0856 30.5811 19.3326 32.1139 19.3326C33.1036 19.3326 34.0271 18.802 34.5245 17.9465L34.6843 17.6701C34.6837 18.4657 34.4229 19.243 33.9232 19.8941C33.222 20.8086 32.1592 21.3326 31.0071 21.3326C30.0263 21.3326 29.1014 20.9514 28.4071 20.2633C27.715 19.565 27.3338 18.6402 27.3338 17.6594V10.6656C27.3338 9.56269 26.4366 8.66555 25.3337 8.66555H23.7458L22.5967 6.36726C22.3707 5.91545 21.6298 5.91545 21.4039 6.36726L20.2548 8.66555H14.6667C13.5638 8.66555 12.6667 9.56269 12.6667 10.6656ZM13.9964 17.7316C13.9968 17.7073 14.0001 17.6838 14.0001 17.6594V10.6656C14.0001 10.2981 14.2993 9.99895 14.6668 9.99895H20.667C20.9196 9.99895 21.1504 9.85637 21.2633 9.63042L22.0003 8.15608L22.7373 9.63042C22.8503 9.85637 23.081 9.99895 23.3336 9.99895H25.3337C25.7012 9.99895 26.0004 10.2981 26.0004 10.6656V17.6594C26.0004 17.6837 26.0036 17.7076 26.0039 17.7319C24.5683 20.7781 22.2784 22.6661 20.0002 22.6661C17.7219 22.666 15.432 20.7779 13.9964 17.7316ZM16.1971 26.8566C16.4764 26.77 16.6669 26.5119 16.6669 26.2195V22.9846C17.7145 23.6422 18.8437 23.9994 20.0004 23.9994C21.157 23.9994 22.2863 23.6423 23.3339 22.9846V26.2195C23.3339 26.5119 23.5243 26.77 23.8036 26.8566L24.841 27.1774C23.4193 28.139 21.7421 28.6663 20.0005 28.6663C18.2588 28.6663 16.5817 28.139 15.16 27.1775L16.1971 26.8566ZM20.0003 31.333C17.0434 31.333 14.228 30.1683 12.1186 28.1183L13.5933 27.6621C15.3878 29.1666 17.6441 29.9996 20.0004 29.9996C22.3566 29.9996 24.613 29.1666 26.4076 27.662L27.8823 28.1182C25.7727 30.1682 22.9573 31.333 20.0003 31.333Z" />
<path d="M10.6667 34.6665C10.2984 34.6665 10 34.965 10 35.3332V39.3333C10 39.7015 10.2985 40 10.6667 40C11.0348 40 11.3333 39.7014 11.3333 39.3333V35.3332C11.3333 34.965 11.0349 34.6665 10.6667 34.6665Z" />
<path d="M29.3337 34.6665C28.9654 34.6665 28.667 34.965 28.667 35.3332V39.3333C28.667 39.7015 28.9655 40 29.3337 40C29.7018 40 30.0003 39.7014 30.0003 39.3333V35.3332C30.0004 34.965 29.7019 34.6665 29.3337 34.6665Z" />
</g>
<defs>
<clipPath id="clip0">
<rect width="40" height="40" fill="white"/>
</clipPath>
</defs>
</svg>
