<svg width="40" height="40" viewBox="0 0 40 40" fill="none" xmlns="http://www.w3.org/2000/svg">
<path d="M18.03 27.3163L17.5043 31.9814C17.4783 32.2135 17.5539 32.4464 17.7118 32.6207C17.8697 32.7949 18.0959 32.8946 18.3327 32.8946H21.6661C21.9029 32.8946 22.1291 32.7949 22.287 32.6207C22.4449 32.4465 22.5206 32.2136 22.4945 31.9814L21.9688 27.3163C22.8225 26.7035 23.3327 25.7342 23.3327 24.6708C23.3327 22.8567 21.8378 21.3813 19.9994 21.3813C18.1609 21.3813 16.666 22.8567 16.666 24.6708C16.666 25.7342 17.1763 26.7035 18.03 27.3163ZM19.9994 23.0261C20.9181 23.0261 21.666 23.7642 21.666 24.6708C21.666 25.3013 21.303 25.8659 20.7188 26.1453C20.4005 26.2979 20.2142 26.6304 20.2533 26.9765L20.7351 31.2498H19.2638L19.7455 26.9765C19.7846 26.6303 19.5983 26.2979 19.2801 26.1453C18.6958 25.8659 18.3328 25.3013 18.3328 24.6708C18.3327 23.7642 19.0806 23.0261 19.9994 23.0261Z"/>
<path d="M34.1666 14.8026H31.6666V11.5131C31.6666 5.16473 26.4331 0 20 0C13.5669 0 8.33336 5.16473 8.33336 11.5131V14.8026H5.83336C5.37273 14.8026 5 15.1705 5 15.625V36.1843C5 37.9984 6.49492 39.4737 8.33336 39.4737H31.6667C33.5051 39.4737 35 37.9984 35 36.1842V15.625C35 15.1705 34.6273 14.8026 34.1666 14.8026ZM10 11.5131C10 6.07139 14.4857 1.64471 20 1.64471C25.5143 1.64471 30 6.07139 30 11.5131V14.8026H28.3334V11.5131C28.3334 6.97882 24.5948 3.28942 20 3.28942C15.4052 3.28942 11.6666 6.9789 11.6666 11.5131V14.8026H10V11.5131ZM26.6666 11.5131V14.8026H13.3334V11.5131C13.3334 7.88556 16.3241 4.93421 20 4.93421C23.6759 4.93421 26.6666 7.88556 26.6666 11.5131ZM33.3334 36.1842C33.3334 37.0908 32.5855 37.8289 31.6667 37.8289H8.33336C7.41461 37.8289 6.66672 37.0908 6.66672 36.1842V16.4473H33.3334V36.1842Z"/>
</svg>
