<svg width="40" height="40" viewBox="0 0 40 40" fill="none" xmlns="http://www.w3.org/2000/svg">
<path d="M33.1758 23.8223L24.6657 22.1202V19.338C27.0674 17.7955 28.6657 15.1069 28.6657 12.0466V8.65797C28.6663 8.65797 28.6668 8.6582 28.6674 8.6582C29.4018 8.6582 29.9991 8.06219 29.9991 7.32945V5.93422C29.9691 2.66211 27.2985 0 24.0456 0H15.9525C12.6696 0 9.99902 2.68617 9.99902 5.98766V10.363C9.99902 10.738 10.1475 11.083 10.4173 11.3347C10.6662 11.567 10.9915 11.6951 11.3323 11.6952V12.0466C11.3323 14.3581 12.2324 16.5352 13.8675 18.178C14.3165 18.627 14.8096 19.0148 15.3323 19.3495V22.1201L6.82223 23.8223C4.0277 24.3812 1.99902 26.8558 1.99902 29.7057V36.6666C1.99902 38.5045 3.49449 40 5.33238 40H34.6657C36.5036 40 37.9991 38.5045 37.9991 36.6666V29.7057C37.999 26.8558 35.9704 24.3812 33.1758 23.8223ZM11.5557 10.1363C11.5394 10.151 11.5246 10.1655 11.5098 10.1817C11.4509 10.2417 11.3905 10.295 11.3324 10.3571V5.98766C11.3324 3.42125 13.405 1.33336 15.9525 1.33336H24.0457C26.5701 1.33336 28.6427 3.40266 28.6657 5.94047L28.6589 7.32133C28.544 7.25594 28.4274 7.20508 28.3115 7.14805C28.2836 7.13281 28.2575 7.11719 28.2273 7.10602C27.5242 6.77297 26.8066 6.58539 26.0886 6.56547C25.0786 6.53258 24.3071 6.6807 23.6049 6.96977C23.7628 6.79688 23.8214 6.54883 23.7471 6.31711C23.6534 6.02477 23.3764 5.83562 23.0652 5.85555C21.4145 5.97273 19.8057 6.54437 18.2592 7.56C18.4548 7.35133 18.4965 7.03789 18.3568 6.78328C18.2078 6.5118 17.8914 6.37797 17.5942 6.46203C15.7722 6.96758 14.0454 7.90242 12.602 9.16414C12.2603 9.46086 11.9043 9.78523 11.5557 10.1363ZM14.8115 17.2363C13.4277 15.8463 12.6657 14.0029 12.6657 12.0466V10.9133C12.9338 10.654 13.2083 10.4034 13.4779 10.1693C14.2711 9.47594 15.1589 8.89289 16.1025 8.44109C15.945 8.88117 15.8545 9.34633 15.8392 9.82031C15.8304 10.0921 15.9879 10.3421 16.237 10.4518C16.4854 10.5622 16.7774 10.5091 16.9714 10.3187C18.4675 8.8568 20.0264 7.89742 21.6231 7.45312C21.5925 7.555 21.5651 7.65688 21.5378 7.75813C21.4733 7.99898 21.4063 8.24836 21.2907 8.52375C21.1751 8.79977 21.2575 9.11945 21.4925 9.305C21.7275 9.49023 22.0575 9.49641 22.2991 9.31969C23.6239 8.35063 24.4023 7.89391 25.8086 7.89391C25.885 7.89391 25.9632 7.89523 26.0471 7.89813C26.4739 7.90992 26.9039 8.00633 27.3323 8.17047V12.0466C27.3323 16.0902 24.0426 19.3799 19.9989 19.3799C18.0361 19.3799 16.1933 18.6182 14.8115 17.2363ZM13.3324 23.8798L16.1299 23.3203C16.4414 23.2581 16.6657 22.9844 16.6657 22.6666V20.0534C17.7075 20.4859 18.8354 20.7132 19.999 20.7132C21.1799 20.7132 22.3055 20.4741 23.3324 20.0446V22.6666C23.3324 22.9844 23.5567 23.2581 23.8682 23.3203L26.6657 23.8798V26.6666C26.6657 30.3427 23.6751 33.3333 19.999 33.3333C16.3229 33.3333 13.3324 30.3427 13.3324 26.6666V23.8798ZM36.6657 36.6666C36.6657 37.7695 35.7686 38.6666 34.6657 38.6666H5.33238C4.22949 38.6666 3.33238 37.7695 3.33238 36.6666V29.7057C3.33238 27.4889 4.9102 25.5645 7.08402 25.1295L11.9991 24.1465V26.6666C11.9991 31.0777 15.588 34.6666 19.9991 34.6666C24.4103 34.6666 27.9991 31.0777 27.9991 26.6666V24.1465L32.9141 25.1295C35.0879 25.5645 36.6657 27.4889 36.6657 29.7057V36.6666H36.6657Z" />
</svg>
