<svg width="41" height="40" viewBox="0 0 41 40" fill="none" xmlns="http://www.w3.org/2000/svg">
<path d="M6.25195 38.75H31.252C32.0805 38.7491 32.8748 38.4195 33.4606 37.8337C34.0465 37.2478 34.376 36.4535 34.377 35.625V4.375C34.376 3.54648 34.0465 2.75217 33.4606 2.16632C32.8748 1.58047 32.0805 1.25093 31.252 1.25H6.25195C6.08619 1.25 5.92722 1.31585 5.81001 1.43306C5.6928 1.55027 5.62695 1.70924 5.62695 1.875V38.125C5.62695 38.2908 5.6928 38.4497 5.81001 38.5669C5.92722 38.6842 6.08619 38.75 6.25195 38.75ZM6.87695 2.5H31.252C31.7491 2.50058 32.2256 2.69831 32.5771 3.04981C32.9286 3.40132 33.1264 3.8779 33.127 4.375V35.625C33.1264 36.1221 32.9286 36.5987 32.5771 36.9502C32.2256 37.3017 31.7491 37.4994 31.252 37.5H6.87695V2.5Z"/>
<path d="M13.127 6.25H26.877C27.0427 6.25 27.2017 6.18415 27.3189 6.06694C27.4361 5.94973 27.502 5.79076 27.502 5.625C27.502 5.45924 27.4361 5.30027 27.3189 5.18306C27.2017 5.06585 27.0427 5 26.877 5H13.127C12.9612 5 12.8022 5.06585 12.685 5.18306C12.5678 5.30027 12.502 5.45924 12.502 5.625C12.502 5.79076 12.5678 5.94973 12.685 6.06694C12.8022 6.18415 12.9612 6.25 13.127 6.25Z"/>
<path d="M20.002 8.75C18.395 8.75 16.8241 9.22652 15.4879 10.1193C14.1518 11.0121 13.1104 12.281 12.4954 13.7657C11.8805 15.2503 11.7196 16.884 12.0331 18.4601C12.3466 20.0362 13.1204 21.4839 14.2567 22.6202C15.393 23.7565 16.8408 24.5304 18.4168 24.8439C19.9929 25.1574 21.6266 24.9965 23.1113 24.3815C24.5959 23.7666 25.8649 22.7252 26.7576 21.389C27.6504 20.0529 28.127 18.482 28.127 16.875C28.1245 14.7209 27.2677 12.6557 25.7445 11.1325C24.2213 9.60925 22.1561 8.75244 20.002 8.75ZM17.1809 10.6058C17.0387 10.8274 16.9086 11.0565 16.7913 11.2922C16.5976 11.6828 16.4313 12.0863 16.2937 12.5H14.7025C15.3736 11.688 16.2213 11.0401 17.1809 10.6058ZM13.8791 13.75H15.952C15.7758 14.5727 15.6715 15.4092 15.6404 16.25H13.1556C13.2342 15.378 13.4798 14.5292 13.8791 13.75ZM13.8791 20C13.4798 19.2208 13.2342 18.372 13.1556 17.5H15.6404C15.6715 18.3408 15.7758 19.1773 15.952 20H13.8791ZM14.7025 21.25H16.2937C16.4313 21.6637 16.5976 22.0672 16.7913 22.4578C16.9086 22.6935 17.0387 22.9226 17.1809 23.1442C16.2213 22.7099 15.3736 22.062 14.7025 21.25ZM19.377 23.5926C18.8457 23.3299 18.3325 22.7451 17.9093 21.8988C17.8066 21.6933 17.7119 21.4759 17.6236 21.25H19.377V23.5926ZM19.377 20H17.2333C17.0383 19.1798 16.9236 18.3425 16.8909 17.5H19.377V20ZM19.377 16.25H16.8909C16.9236 15.4075 17.0383 14.5702 17.2333 13.75H19.377V16.25ZM19.377 12.5H17.6236C17.7119 12.2741 17.8066 12.0567 17.9093 11.8512C18.3325 11.0049 18.846 10.4201 19.377 10.1574V12.5ZM25.3014 12.5H23.7102C23.5726 12.0863 23.4063 11.6828 23.2127 11.2922C23.0953 11.0565 22.9652 10.8274 22.823 10.6058C23.7826 11.0401 24.6304 11.688 25.3014 12.5ZM20.627 10.1574C21.1582 10.4201 21.6714 11.0049 22.0946 11.8512C22.1973 12.0567 22.292 12.2741 22.3803 12.5H20.627V10.1574ZM20.627 13.75H22.7706C22.9656 14.5702 23.0803 15.4075 23.113 16.25H20.627V13.75ZM22.0946 21.8988C21.6714 22.7451 21.1579 23.3299 20.627 23.5926V21.25H22.3803C22.292 21.4759 22.1973 21.6933 22.0946 21.8988ZM20.627 20V17.5H23.113C23.0803 18.3425 22.9656 19.1798 22.7706 20H20.627ZM22.823 23.1442C22.9652 22.9226 23.0953 22.6935 23.2127 22.4578C23.4063 22.0672 23.5726 21.6637 23.7102 21.25H25.3014C24.6304 22.062 23.7826 22.7099 22.823 23.1442ZM26.1248 20H24.0519C24.2281 19.1773 24.3324 18.3408 24.3635 17.5H26.8483C26.7697 18.372 26.5241 19.2208 26.1248 20ZM26.8483 16.25H24.3635C24.3324 15.4092 24.2281 14.5727 24.0519 13.75H26.1248C26.5241 14.5292 26.7697 15.378 26.8483 16.25Z"/>
<path d="M21.252 30H18.752C18.2548 30.0006 17.7783 30.1983 17.4268 30.5498C17.0753 30.9013 16.8775 31.3779 16.877 31.875V34.375C16.8775 34.8721 17.0753 35.3487 17.4268 35.7002C17.7783 36.0517 18.2548 36.2494 18.752 36.25H21.252C21.7491 36.2494 22.2256 36.0517 22.5771 35.7002C22.9286 35.3487 23.1264 34.8721 23.127 34.375V31.875C23.1264 31.3779 22.9286 30.9013 22.5771 30.5498C22.2256 30.1983 21.7491 30.0006 21.252 30ZM21.877 32.5H21.252C21.0862 32.5 20.9272 32.5658 20.81 32.6831C20.6928 32.8003 20.627 32.9592 20.627 33.125C20.627 33.2908 20.6928 33.4497 20.81 33.5669C20.9272 33.6842 21.0862 33.75 21.252 33.75H21.877V34.375C21.8768 34.5407 21.8109 34.6996 21.6937 34.8167C21.5765 34.9339 21.4177 34.9998 21.252 35H18.752C18.5862 34.9998 18.4274 34.9339 18.3102 34.8167C18.193 34.6996 18.1271 34.5407 18.127 34.375V33.75H18.752C18.9177 33.75 19.0767 33.6842 19.1939 33.5669C19.3111 33.4497 19.377 33.2908 19.377 33.125C19.377 32.9592 19.3111 32.8003 19.1939 32.6831C19.0767 32.5658 18.9177 32.5 18.752 32.5H18.127V31.875C18.1271 31.7093 18.193 31.5504 18.3102 31.4333C18.4274 31.3161 18.5862 31.2502 18.752 31.25H21.252C21.4177 31.2502 21.5765 31.3161 21.6937 31.4333C21.8109 31.5504 21.8768 31.7093 21.877 31.875V32.5Z"/>
<path d="M25.627 27.5H14.377C14.2112 27.5 14.0522 27.5658 13.935 27.6831C13.8178 27.8003 13.752 27.9592 13.752 28.125C13.752 28.2908 13.8178 28.4497 13.935 28.5669C14.0522 28.6842 14.2112 28.75 14.377 28.75H25.627C25.7927 28.75 25.9517 28.6842 26.0689 28.5669C26.1861 28.4497 26.252 28.2908 26.252 28.125C26.252 27.9592 26.1861 27.8003 26.0689 27.6831C25.9517 27.5658 25.7927 27.5 25.627 27.5Z"/>
</svg>
