<svg width="41" height="40" viewBox="0 0 41 40" fill="none" xmlns="http://www.w3.org/2000/svg">
<g clip-path="url(#clip0)">
<path d="M38.002 7.88717H29.3353V5.25806C29.333 3.44381 27.8421 1.97393 26.002 1.97168H14.002C12.1618 1.97393 10.6709 3.44381 10.6686 5.25806V7.88717H2.00195C0.897461 7.88717 0.00195312 8.77007 0.00195312 9.859V24.4898C0.00618489 25.3236 0.539062 26.0653 1.33529 26.3455V35.4928C1.33529 36.5817 2.23079 37.4646 3.33529 37.4646H36.6686C37.7731 37.4646 38.6686 36.5817 38.6686 35.4928V26.3461C39.4648 26.0656 39.998 25.3236 40.002 24.4898V9.859C40.002 8.77007 39.1064 7.88717 38.002 7.88717ZM12.002 5.25806C12.002 4.16913 12.8975 3.28623 14.002 3.28623H26.002C27.1064 3.28623 28.002 4.16913 28.002 5.25806V7.88717H26.6686V5.25806C26.6686 4.89509 26.3701 4.60079 26.002 4.60079H14.002C13.6338 4.60079 13.3353 4.89509 13.3353 5.25806V7.88717H12.002V5.25806ZM25.3353 7.88717H14.6686V5.91534H25.3353V7.88717ZM37.3353 35.4928C37.3353 35.8558 37.0368 36.1501 36.6686 36.1501H3.33529C2.96712 36.1501 2.66862 35.8558 2.66862 35.4928V26.5714L17.3353 28.5657V30.2346C17.3353 31.3235 18.2308 32.2064 19.3353 32.2064H20.6686C21.7731 32.2064 22.6686 31.3235 22.6686 30.2346V28.5657L37.3353 26.5714V35.4928ZM21.3353 30.2346C21.3353 30.5976 21.0368 30.8919 20.6686 30.8919H19.3353C18.9671 30.8919 18.6686 30.5976 18.6686 30.2346V26.2909C18.6686 25.9279 18.9671 25.6337 19.3353 25.6337H20.6686C21.0368 25.6337 21.3353 25.9279 21.3353 26.2909V30.2346ZM38.6686 24.4898C38.6689 24.8175 38.4245 25.0954 38.0954 25.1413L37.9105 25.1664L22.6686 27.2387V26.2909C22.6686 25.202 21.7731 24.3191 20.6686 24.3191H19.3353C18.2308 24.3191 17.3353 25.202 17.3353 26.2909V27.2387L1.90918 25.1413C1.58008 25.0958 1.33496 24.8178 1.33529 24.4898V9.859C1.33529 9.49603 1.63379 9.20173 2.00195 9.20173H38.002C38.3701 9.20173 38.6686 9.49603 38.6686 9.859V24.4898Z"/>
</g>
<defs>
<clipPath id="clip0">
<rect x="0.00195312" width="40" height="40" fill="white"/>
</clipPath>
</defs>
</svg>
