<svg width="48" height="49" viewBox="0 0 48 49" fill="none" xmlns="http://www.w3.org/2000/svg">
<path d="M45.223 21.5928L12.224 36.9068C11.7946 37.106 11.2846 36.9201 11.0847 36.4915L2.11546 17.2394C1.91554 16.8108 2.10178 16.3018 2.53118 16.1023L35.5302 0.78864C35.9596 0.589115 36.4696 0.774994 36.6691 1.20355L45.6387 20.4561C45.8387 20.8843 45.6524 21.3936 45.223 21.5928Z" fill="#00C395"/>
<path d="M45.6389 20.4557L36.6693 1.20355C36.4697 0.774994 35.9598 0.589115 35.5304 0.78864L31.5771 2.62309L41.2696 23.4272L45.2232 21.5928C45.6526 21.3936 45.8388 20.8843 45.6389 20.4557Z" fill="#00A97D"/>
<path d="M14.9918 33.0231C14.279 31.8182 12.8001 31.279 11.4769 31.7419C11.4022 31.7681 11.3198 31.7316 11.2862 31.66L5.94721 20.2C5.91395 20.1281 5.93908 20.0418 6.00707 20.0016C7.21469 19.2902 7.75458 17.8142 7.29082 16.4935C7.26458 16.419 7.30117 16.3368 7.37285 16.3032L32.5645 4.6127C32.6365 4.5795 32.723 4.60458 32.7633 4.67281C33.4761 5.87771 34.955 6.41654 36.2783 5.95368C36.3529 5.9275 36.4353 5.96401 36.4689 6.03556L41.8079 17.4956C41.8412 17.5675 41.816 17.6538 41.748 17.694C40.5408 18.4054 40.0005 19.8814 40.4643 21.2021C40.4905 21.2766 40.4539 21.3588 40.3823 21.3924L15.1906 33.0829C15.1186 33.1164 15.0321 33.091 14.9918 33.0231Z" fill="#76FFDA"/>
<path d="M41.8071 17.4957L36.4677 6.03572C36.4345 5.96417 36.3521 5.92766 36.2774 5.95385C34.9542 6.4167 33.4753 5.87787 32.7625 4.67297C32.7218 4.60474 32.6353 4.5793 32.5637 4.61286L27.7871 6.8294C28.6847 7.84067 30.1532 8.21796 31.4565 7.69278L37.5013 20.6675C36.4105 21.2432 35.7716 22.3651 35.7645 23.5346L40.3811 21.3922C40.4531 21.359 40.4893 21.2767 40.4631 21.2022C39.9994 19.8815 40.5396 18.4056 41.7469 17.6941C41.8152 17.6539 41.8404 17.5676 41.8071 17.4957Z" fill="#5DE1C0"/>
<path d="M29.5801 16.2027C28.1156 13.0594 24.3756 11.6959 21.2261 13.1575C18.0766 14.619 16.7104 18.3518 18.1745 21.4951C19.6389 24.6385 23.379 26.002 26.5285 24.5407C29.678 23.0792 31.0441 19.3461 29.5801 16.2027Z" fill="white"/>
<path d="M19.4485 14.2873C19.4485 18.5577 15.9801 22.0193 11.7013 22.0193C7.42288 22.0193 3.9541 18.5577 3.9541 14.2873C3.9541 10.0172 7.42288 6.55518 11.7013 6.55518C15.9801 6.55518 19.4485 10.0172 19.4485 14.2873Z" fill="#FFC943"/>
<path d="M11.7009 6.55518C10.7897 6.55518 9.91574 6.71376 9.10352 7.00217C12.1045 8.06803 14.2533 10.9267 14.2533 14.2873C14.2533 17.6482 12.1045 20.5065 9.10352 21.5727C9.91574 21.8611 10.7897 22.0193 11.7009 22.0193C15.9797 22.0193 19.4482 18.5577 19.4482 14.2873C19.4482 10.0172 15.9797 6.55518 11.7009 6.55518Z" fill="#FFAA16"/>
<path d="M43.659 47.6322H2.86765C1.67591 47.6322 0.709961 46.6681 0.709961 45.4787V18.2628C0.709961 17.0734 1.67591 16.1094 2.86765 16.1094H43.659C44.8507 16.1094 45.8167 17.0734 45.8167 18.2628V45.4787C45.8167 46.6681 44.8507 47.6322 43.659 47.6322Z" fill="#FF914D"/>
<path d="M43.6595 16.1094H40.7295V47.6322H43.6595C44.8512 47.6322 45.8172 46.6681 45.8172 45.4784V18.2628C45.8172 17.0734 44.8512 16.1094 43.6595 16.1094Z" fill="#FF8125"/>
<path d="M46.2241 36.4522H37.7456C35.2102 36.4522 33.1553 34.4009 33.1553 31.8709C33.1553 29.3405 35.2106 27.2896 37.7456 27.2896H46.2241C46.8131 27.2896 47.2906 27.7661 47.2906 28.3539V35.3879C47.2906 35.9757 46.8131 36.4522 46.2241 36.4522Z" fill="#FFC943"/>
<path d="M39.8421 31.8708C39.8421 33.0082 38.9183 33.9303 37.7787 33.9303C36.6387 33.9303 35.7148 33.0082 35.7148 31.8708C35.7148 30.7331 36.6387 29.811 37.7787 29.811C38.9183 29.811 39.8421 30.7331 39.8421 31.8708Z" fill="#F3E8D7"/>
<path d="M46.2251 27.2891H40.7295V36.4521H46.2251C46.8142 36.4521 47.2916 35.9756 47.2916 35.3877V28.3538C47.2916 27.7659 46.8142 27.2891 46.2251 27.2891Z" fill="#FFAA16"/>
<path d="M11.5512 14.0575V16.1095H12.1698V14.3134C12.7414 14.5579 13.1967 14.8843 13.1967 15.6179C13.1967 15.8049 13.1642 15.9679 13.1047 16.1095H14.3001C14.3404 15.9177 14.3633 15.7123 14.3633 15.4899C14.3633 13.9059 13.2547 13.3936 12.2396 13.0207V10.6567C13.0566 10.7149 13.36 11.0874 13.6398 11.0874C13.9901 11.0874 14.1534 10.6449 14.1534 10.4236C14.1534 9.85303 13.033 9.60851 12.2396 9.58528V9.27068C12.2396 9.13091 12.0648 9.00293 11.8897 9.00293C11.6912 9.00293 11.5512 9.13091 11.5512 9.27068V9.60851C10.4426 9.72506 9.33398 10.3074 9.33398 11.7745C9.33398 13.2653 10.501 13.6846 11.5512 14.0575ZM11.621 10.6799V12.7994C11.0028 12.5667 10.501 12.3218 10.501 11.6584C10.501 11.0524 10.9677 10.7614 11.621 10.6799Z" fill="#FF914D"/>
<path d="M37.7451 26.5811C34.8229 26.5811 32.4453 28.954 32.4453 31.8709C32.4453 34.7874 34.8229 37.1603 37.7451 37.1603H46.2236C47.2029 37.1603 47.9996 36.3652 47.9996 35.3878V28.3539C47.9996 27.3766 47.2029 26.5814 46.2236 26.5814H37.7451V26.5811ZM46.5806 28.3539V35.3878C46.5806 35.5844 46.4206 35.7441 46.2236 35.7441H37.7451C35.6052 35.7441 33.8643 34.0067 33.8643 31.8705C33.8643 29.7347 35.6052 27.9973 37.7451 27.9973H46.2236C46.4206 27.9973 46.5806 28.1573 46.5806 28.3539Z" fill="#434C54"/>
<path d="M2.86719 48.3405H43.6585C45.2394 48.3405 46.5257 47.0566 46.5257 45.4789V39.7469C46.5257 39.3559 46.2083 39.0387 45.8162 39.0387C45.4245 39.0387 45.1067 39.3559 45.1067 39.7469V42.8994H1.419V20.8425H45.1067V23.9998C45.1067 24.3908 45.4245 24.7079 45.8162 24.7079C46.2083 24.7079 46.5257 24.3908 46.5257 23.9998V18.263C46.5257 16.8283 45.4622 15.6367 44.0805 15.4324L37.3122 0.90539C37.136 0.526624 36.8222 0.238953 36.429 0.0958552C36.0362 -0.0476114 35.6105 -0.0295398 35.231 0.146751L17.6573 8.30222C16.1278 6.78568 14.0222 5.84706 11.7008 5.84706C7.03807 5.84706 3.24411 9.63362 3.24411 14.2872C3.24411 14.659 3.26997 15.0315 3.31949 15.4014H2.86719C1.28634 15.4014 0 16.6849 0 18.263V45.4785C0 47.0566 1.28634 48.3405 2.86719 48.3405ZM35.8293 1.43094C35.8751 1.40955 35.9161 1.41656 35.9424 1.42615C35.9686 1.43537 36.0045 1.45639 36.0255 1.50249L42.5012 15.4014H20.0832C20.0855 15.3841 20.0869 15.3668 20.0891 15.3498C20.0958 15.2974 20.1017 15.245 20.1076 15.1927C20.1113 15.1565 20.1154 15.1204 20.1191 15.0842C20.1243 15.03 20.1283 14.9754 20.1324 14.9209C20.135 14.8866 20.1379 14.8526 20.1401 14.8187C20.1438 14.7586 20.1468 14.6988 20.149 14.6387C20.1505 14.6103 20.152 14.5816 20.1531 14.5528C20.156 14.4643 20.1575 14.3758 20.1575 14.2872C20.1575 14.1888 20.1553 14.0903 20.152 13.9926C20.1512 13.9712 20.1505 13.9502 20.1494 13.9288C20.1409 13.7248 20.125 13.5231 20.1021 13.3232C20.101 13.3147 20.1002 13.3066 20.0991 13.2981C20.0104 12.5435 19.8216 11.8192 19.5467 11.1384C19.5411 11.1254 19.536 11.1122 19.5304 11.0993C19.4961 11.0152 19.4606 10.9315 19.4233 10.8488C19.4188 10.8389 19.4148 10.8286 19.41 10.8186C19.3745 10.7397 19.3368 10.6619 19.2987 10.584C19.2821 10.5501 19.2651 10.5162 19.2481 10.4826C19.2226 10.4325 19.1967 10.3827 19.1701 10.3336C19.1354 10.268 19.0995 10.2031 19.063 10.1385C19.0485 10.1131 19.0341 10.0876 19.0197 10.0625C18.8926 9.84384 18.7566 9.62956 18.6099 9.42192L35.8293 1.43094ZM11.7008 7.26328C14.4856 7.26328 16.8979 8.88641 18.0379 11.2339C18.053 11.2656 18.0671 11.2977 18.0819 11.3294C18.1125 11.395 18.1428 11.4607 18.1717 11.5271C18.1931 11.5776 18.213 11.6285 18.2334 11.679C18.2533 11.7281 18.2733 11.7771 18.2918 11.8266C18.3139 11.8856 18.3342 11.9446 18.3546 12.004C18.3694 12.0467 18.3845 12.0895 18.3985 12.133C18.4189 12.1957 18.4377 12.2592 18.4562 12.3226C18.4684 12.3639 18.4802 12.4052 18.4917 12.4465C18.509 12.5111 18.5257 12.5756 18.5412 12.6405C18.5515 12.6833 18.5615 12.7257 18.5707 12.7685C18.5852 12.8323 18.5985 12.8965 18.611 12.9606C18.6199 13.0071 18.628 13.0536 18.6358 13.1001C18.6465 13.1616 18.6568 13.2229 18.6657 13.2845C18.6731 13.3376 18.6798 13.391 18.686 13.4445C18.6927 13.5006 18.7001 13.5566 18.7053 13.6131C18.7119 13.6791 18.716 13.7455 18.7208 13.8119C18.7237 13.8568 18.7278 13.9018 18.73 13.9472C18.7352 14.0597 18.7385 14.1733 18.7385 14.2872C18.7385 14.371 18.7367 14.4547 18.7333 14.538C18.7326 14.5627 18.7315 14.5875 18.7304 14.6122C18.7274 14.6745 18.7234 14.7368 18.7189 14.7995C18.7171 14.8235 18.7156 14.8475 18.7134 14.8718C18.7067 14.9552 18.6986 15.0385 18.6883 15.1219C18.6879 15.1263 18.6871 15.1307 18.6868 15.1355C18.6768 15.2144 18.6657 15.293 18.6535 15.3715C18.6517 15.3815 18.6502 15.3915 18.6483 15.4014H4.7529C4.6934 15.0322 4.6631 14.6594 4.6631 14.2876C4.6631 10.4144 7.82037 7.26328 11.7008 7.26328ZM1.419 18.263C1.419 17.466 2.06863 16.8176 2.86719 16.8176H43.6585C44.4571 16.8176 45.1067 17.466 45.1067 18.263V19.4262H1.419V18.263ZM1.419 44.3157H45.1067V45.4789C45.1067 46.2759 44.4571 46.9242 43.6585 46.9242H2.86719C2.06863 46.9242 1.419 46.2759 1.419 45.4789V44.3157Z" fill="#434C54"/>
</svg>
